<svg width="617" height="431" viewBox="0 0 617 431" fill="none" xmlns="http://www.w3.org/2000/svg">
<path opacity="0.1" d="M52.8747 427.84H592.417C637.137 390.535 614.124 278.28 576.769 255.523C536.562 231.028 600.408 146.313 538.469 118.816C498.027 100.863 433.708 120.431 442.359 72.3966C454.356 5.78859 314.13 -11.278 210.821 6.67698C99.1325 26.0889 201.127 121.526 78.3016 140.755C15.1429 150.644 27.3482 235.237 33.2377 252.718C38.3666 267.944 72.3008 292.094 25.1403 325.351C-44.0097 374.115 51.2448 426.943 52.8747 427.84Z" fill="#E1F3F1"/>
<path d="M532.126 142.921C532.126 142.921 523.294 162.15 517.351 170.271C511.407 178.395 505.745 186.161 501.002 208.704C496.259 231.248 497.072 233.513 495.776 239.336C494.477 245.159 486.029 268.75 485.982 273.076C485.932 277.402 468.911 302.028 464.549 313.553C460.188 325.079 452.465 341.544 452.898 349.928L454.839 349.435C454.839 349.435 456.421 329.89 469.877 310.137C483.333 290.384 481.41 286.655 496.69 276.506C511.973 266.36 521.842 238.327 521.842 238.327C521.842 238.327 537.388 207.88 536.663 192.052C535.938 176.225 540.067 161.951 532.126 142.921Z" fill="#256653"/>
<path d="M511.442 113.346C511.442 113.346 510.928 125.977 506.853 133.48C502.778 140.983 499.27 145.541 498.53 153.66C497.791 161.778 495.233 182.706 483.871 192.924C472.509 203.142 471.059 233.757 462.412 243.02C453.765 252.28 452.635 258.937 454.232 274.822C455.829 290.706 461.254 312.719 448.71 341.454L445.874 334.306C445.874 334.306 454.848 310.668 452.675 296.826C450.503 282.983 442.943 262.069 445.71 252.039C448.477 242.008 438.189 240.049 444.384 224.878C450.579 209.706 448.034 204.435 456.471 191.318C456.471 191.318 457.335 190.704 459.553 179.605C461.77 168.506 479.649 148.166 487.889 141.225C496.124 134.286 507.997 123.161 511.442 113.346Z" fill="#256653"/>
<path d="M477.884 175.886C477.884 175.886 468.017 192.777 467.877 203.651C467.737 214.523 468.915 223.366 463.923 238.256C458.932 253.145 468.839 262.557 465.984 270.778C463.13 278.999 462.907 288.731 462.995 296.11C463.082 303.49 451.694 327.917 449.96 340.283C448.226 352.65 450.441 352.692 450.441 352.692C450.441 352.692 452.329 336.365 454.949 330.966C457.569 325.567 465.536 306.953 467.399 299.751C469.261 292.549 474.304 287.927 478.656 275.729C483.008 263.533 489.196 253.259 488.722 235.953C488.251 218.642 495.216 200.375 477.884 175.886Z" fill="#3C8F7C"/>
<path d="M456.996 341.356C456.996 341.356 461.597 319.919 480.999 317.777C500.402 315.636 511.797 319.474 525.504 303.809C539.211 288.145 547.171 263.292 551.549 259.013C551.549 259.013 544.662 255.472 533.213 266.175C521.763 276.878 513.723 284.997 507.094 291.23C500.466 297.463 495.083 293.398 488.085 297.508C482.222 300.952 474.636 310.902 471.296 316.114C470.211 317.808 468.924 319.362 467.446 320.724C466.103 321.966 464.501 323.484 463.473 324.605C461.419 326.844 455.494 341.432 455.494 341.432L456.996 341.356Z" fill="#3C8F7C"/>
<path d="M450.157 337.575C450.157 337.575 456.994 311.357 452.415 298.529C447.835 285.698 433.498 276.205 434.074 268.146C434.649 260.086 443.855 238.303 436.35 222.087C436.35 222.087 433.498 236.552 430.686 239.772C427.871 242.989 408.566 255.967 411.989 273.104C415.413 290.242 434.18 294.248 438.804 299.294C443.426 304.34 449.667 304.333 449.707 307.688C449.747 311.042 450.965 323.24 448.892 335.277L450.157 337.575Z" fill="#3C8F7C"/>
<path d="M457.634 320.03L467.241 292.36C467.241 292.36 472.884 270.105 476.155 251.546C479.427 232.987 477.885 175.886 477.885 175.886C477.885 175.886 468.018 192.777 467.878 203.651C467.738 214.523 468.916 223.366 463.924 238.256C458.933 253.145 468.84 262.557 465.985 270.778C463.131 278.999 462.908 288.731 462.995 296.11C463.083 303.49 451.693 327.917 449.961 340.283C449.011 347.059 449.248 350.129 449.655 351.527C448.113 340.707 457.634 320.03 457.634 320.03Z" fill="#327F6B"/>
<path d="M504.949 303.547C496.381 305.257 488.719 304.674 478.546 312.246C468.374 319.817 462.392 327.903 462.392 327.903C462.392 327.903 457.82 336.076 455.929 340.383C455.657 341.041 455.498 341.435 455.498 341.435L456.998 341.359C456.998 341.359 461.598 319.921 481.001 317.78C500.403 315.638 511.798 319.476 525.506 303.812C539.213 288.148 547.173 263.294 551.551 259.016C551.551 259.016 536.972 270.356 527.965 280.394C518.955 290.429 513.521 301.834 504.949 303.547Z" fill="#327F6B"/>
<path d="M430.686 239.767C427.871 242.984 408.566 255.962 411.989 273.099C415.413 290.237 434.18 294.243 438.804 299.289C443.426 304.335 449.667 304.328 449.707 307.683C449.747 311.037 450.965 323.235 448.892 335.272L449.446 336.277C450.458 331.579 451.865 324.427 452.325 318.995C453.071 310.173 451.64 306.522 448.807 299.374C445.971 292.227 428.352 277.672 423.939 270.02C419.525 262.368 432.451 249.575 435.322 243.399C438.191 237.223 436.357 222.082 436.357 222.082C436.357 222.082 433.498 236.55 430.686 239.767Z" fill="#327F6B"/>
<path d="M476.487 324.908L479.503 317.618C481.843 312.257 487.83 309.699 492.878 311.899C505.595 317.45 511.125 332.903 505.228 346.412L500.916 356.288C499.028 360.614 499.684 365.376 502.231 368.73C504.543 371.779 504.922 376.017 503.319 379.692L501.047 384.899C498.585 390.537 493.797 394.712 488.119 396.434C484.797 397.441 481.865 399.933 480.313 403.486L477.093 410.859C473.535 419.011 464.431 422.903 456.757 419.553L452.379 417.642C444.706 414.292 441.371 404.97 444.929 396.818C450.683 387.071 450.224 379.798 448.184 374.864C445.187 367.61 445.22 359.264 448.463 351.834L448.918 350.792C452.342 342.95 458.951 337.096 466.823 334.59C470.299 333.486 473.921 330.783 476.487 324.908Z" fill="#50BFA5"/>
<path d="M422.184 427.84C428.355 419.838 462.197 376.972 484.262 369.827C508.618 361.943 485.662 393.259 485.662 393.259C485.662 393.259 528.871 346.011 544.727 350.271C559.261 354.175 544.727 383.461 544.727 383.461C544.727 383.461 561.097 367.245 580.95 367.245C600.272 367.245 567.451 424.76 565.681 427.84H422.184Z" fill="#96D9C9"/>
<path d="M552.4 335.107C534.746 362.677 521.861 393.307 514.496 425.846L513.285 425.521C520.622 393.662 533.42 363.087 551.045 335.547C555.141 329.146 559.564 321.553 567.233 319.056C567.38 319.009 567.437 319.234 567.297 319.286C560.289 321.925 556.234 329.122 552.4 335.107Z" fill="#3C8F7C"/>
<path d="M518.75 426.99C538.477 400.162 562.461 375.366 590.98 353.805C591.264 353.589 591.648 354.087 591.361 354.307C564.314 375.098 540.384 399.648 520.25 427.395L518.75 426.99Z" fill="#3C8F7C"/>
<path d="M554.014 318.009C554.468 318.677 556.207 320.421 556.719 322.712C557.406 324.884 556.864 327.604 556.804 327.509C556.674 327.564 558.818 325.751 559.486 322.868C560.353 320.103 559.747 316.266 558.666 314.996C556.804 312.122 553.549 311.831 552.917 313.224C552.249 314.605 553.099 316.488 554.014 318.009Z" fill="#3C8F7C"/>
<path d="M558.238 342.619C557.58 342.152 555.869 340.378 553.59 339.821C551.432 339.091 548.703 339.579 548.795 339.641C548.738 339.771 550.593 337.663 553.488 337.049C556.27 336.237 560.093 336.919 561.344 338.023C564.18 339.942 564.407 343.202 563.002 343.806C561.605 344.45 559.74 343.564 558.238 342.619Z" fill="#3C8F7C"/>
<path d="M551.863 353.405C551.205 352.938 549.497 351.164 547.215 350.607C545.057 349.877 542.328 350.365 542.42 350.427C542.363 350.557 544.218 348.449 547.113 347.835C549.895 347.023 553.718 347.705 554.969 348.809C557.805 350.728 558.032 353.988 556.627 354.592C555.232 355.239 553.365 354.35 551.863 353.405Z" fill="#3C8F7C"/>
<path d="M574.598 378.427C573.939 377.96 572.231 376.185 569.95 375.629C567.791 374.899 565.062 375.387 565.155 375.449C565.098 375.579 566.953 373.471 569.848 372.857C572.629 372.044 576.453 372.727 577.703 373.831C580.539 375.75 580.767 379.009 579.362 379.614C577.964 380.258 576.1 379.369 574.598 378.427Z" fill="#3C8F7C"/>
<path d="M586.215 368.192C585.556 367.726 583.846 365.951 581.567 365.395C579.409 364.665 576.679 365.153 576.772 365.215C576.715 365.345 578.57 363.236 581.465 362.623C584.246 361.81 588.07 362.493 589.321 363.597C592.156 365.515 592.384 368.775 590.979 369.379C589.581 370.024 587.717 369.138 586.215 368.192Z" fill="#3C8F7C"/>
<path d="M545.096 330.214C545.65 330.801 547.643 332.249 548.51 334.431C549.531 336.468 549.424 339.24 549.351 339.155C549.23 339.228 551.061 337.101 551.268 334.149C551.687 331.282 550.483 327.589 549.218 326.504C546.925 323.96 543.665 324.187 543.26 325.661C542.817 327.132 543.954 328.856 545.096 330.214Z" fill="#3C8F7C"/>
<path d="M535.723 342.446C536.512 342.865 539.267 343.623 540.653 345.684C542.221 347.52 542.42 350.657 542.316 350.595C542.169 350.731 544.28 347.568 544.19 344.182C544.384 340.802 542.378 337.199 540.608 336.53C537.332 334.678 533.138 336.329 532.795 338.151C532.399 339.987 534.081 341.423 535.723 342.446Z" fill="#3C8F7C"/>
<path d="M525.859 360.974C526.707 361.254 529.55 361.538 531.263 363.338C533.118 364.883 533.843 367.944 533.729 367.899C533.606 368.057 535.155 364.584 534.497 361.263C534.12 357.897 531.535 354.684 529.678 354.324C526.136 353.05 522.282 355.383 522.249 357.236C522.166 359.107 524.066 360.242 525.859 360.974Z" fill="#3C8F7C"/>
<path d="M555.049 373.881C555.667 374.267 557.865 375.039 558.875 376.797C560.045 378.38 560.031 380.943 559.948 380.886C559.82 380.988 561.718 378.536 561.836 375.776C562.187 373.038 560.76 369.991 559.358 369.349C556.797 367.655 553.293 368.761 552.909 370.221C552.483 371.69 553.769 372.955 555.049 373.881Z" fill="#3C8F7C"/>
<path d="M570.246 322.347C569.877 322.041 568.943 320.918 567.619 320.489C566.373 319.963 564.738 320.134 564.79 320.172C564.75 320.245 565.939 319.08 567.68 318.845C569.363 318.487 571.594 319.058 572.284 319.764C573.878 321.025 573.868 322.963 573.011 323.259C572.158 323.576 571.092 322.97 570.246 322.347Z" fill="#3C8F7C"/>
<path d="M566.707 314.472C566.724 314.951 567.044 316.377 566.575 317.687C566.231 318.995 565.099 320.186 565.099 320.12C565.016 320.106 566.665 319.876 567.913 318.642C569.223 317.528 570.135 315.413 569.996 314.434C569.972 312.404 568.43 311.227 567.672 311.726C566.899 312.207 566.729 313.42 566.707 314.472Z" fill="#3C8F7C"/>
<path d="M594.58 357.768C594.211 357.463 593.277 356.34 591.953 355.911C590.707 355.385 589.072 355.556 589.124 355.594C589.084 355.667 590.276 354.502 592.014 354.267C593.697 353.909 595.928 354.48 596.618 355.186C598.212 356.447 598.202 358.384 597.345 358.681C596.492 359 595.426 358.394 594.58 357.768Z" fill="#3C8F7C"/>
<path d="M590.307 349.828C590.361 350.304 590.799 351.697 590.439 353.042C590.205 354.374 589.172 355.656 589.167 355.589C589.084 355.582 590.709 355.217 591.851 353.886C593.067 352.671 593.801 350.486 593.583 349.522C593.391 347.499 591.761 346.454 591.046 347.013C590.314 347.556 590.245 348.778 590.307 349.828Z" fill="#3C8F7C"/>
<path d="M587.337 401.146C569.311 403.121 552.522 411.079 536.358 418.837C525.458 424.071 526.008 425.561 523.788 426.34C523.428 426.466 523.068 426.075 523.243 425.729C524.098 424.038 526.337 422.893 527.893 421.92C529.708 420.787 531.601 419.785 533.525 418.852C537.64 416.855 541.859 415.057 546.052 413.235C554.583 409.527 563.251 406.042 572.266 403.68C577.207 402.387 582.235 401.453 587.323 400.996C587.42 400.989 587.432 401.134 587.337 401.146Z" fill="#3C8F7C"/>
<path d="M571.092 395.555C571.21 396.294 571.98 398.443 571.504 400.563C571.222 402.655 569.694 404.721 569.685 404.619C569.554 404.612 572.065 403.939 573.764 401.786C575.581 399.81 576.586 396.356 576.183 394.866C575.754 391.722 573.141 390.194 572.063 391.113C570.954 392.008 570.926 393.92 571.092 395.555Z" fill="#3C8F7C"/>
<path d="M555.209 401.243C555.327 401.982 556.097 404.131 555.621 406.251C555.339 408.343 553.811 410.409 553.802 410.307C553.671 410.3 556.183 409.627 557.881 407.474C559.698 405.498 560.703 402.044 560.3 400.551C559.871 397.408 557.258 395.879 556.18 396.799C555.074 397.694 555.043 399.608 555.209 401.243Z" fill="#3C8F7C"/>
<path d="M539.072 408.435C539.191 409.174 539.961 411.323 539.484 413.443C539.203 415.535 537.675 417.601 537.665 417.499C537.535 417.492 540.046 416.819 541.745 414.666C543.562 412.69 544.566 409.236 544.163 407.743C543.734 404.6 541.121 403.072 540.043 403.991C538.935 404.886 538.906 406.801 539.072 408.435Z" fill="#3C8F7C"/>
<path d="M575.83 410.395C575.503 409.783 574.873 407.772 573.34 406.474C571.966 405.09 569.687 404.42 569.737 404.503C569.645 404.581 571.872 403.676 574.324 404.313C576.766 404.754 579.434 406.739 579.969 408.063C581.407 410.617 580.334 413.202 579.026 413.128C577.711 413.086 576.619 411.69 575.83 410.395Z" fill="#3C8F7C"/>
<path d="M559.311 416.241C558.984 415.63 558.354 413.619 556.819 412.32C555.445 410.937 553.166 410.266 553.216 410.349C553.123 410.428 555.35 409.523 557.802 410.16C560.245 410.601 562.912 412.586 563.448 413.91C564.886 416.466 563.812 419.049 562.505 418.975C561.192 418.932 560.102 417.537 559.311 416.241Z" fill="#3C8F7C"/>
<path d="M588.411 404.375C588.125 404.034 587.464 402.854 586.329 402.243C585.282 401.556 583.763 401.435 583.806 401.48C583.759 401.541 585.038 400.679 586.661 400.755C588.253 400.71 590.191 401.603 590.702 402.363C591.944 403.778 591.612 405.543 590.78 405.668C589.949 405.817 589.079 405.085 588.411 404.375Z" fill="#3C8F7C"/>
<path d="M586.506 396.609C586.44 397.047 586.494 398.4 585.847 399.516C585.314 400.648 584.082 401.546 584.094 401.487C584.021 401.461 585.563 401.527 586.906 400.61C588.287 399.817 589.47 398.04 589.508 397.125C589.825 395.27 588.619 393.941 587.844 394.268C587.06 394.576 586.703 395.654 586.506 396.609Z" fill="#3C8F7C"/>
<path d="M122.228 290.929C101.046 272.041 90.1536 244.918 84.7475 225.487C78.877 204.395 78.0217 187.561 78.0146 187.392L76.8633 187.321C76.8704 187.49 77.7303 204.447 83.6364 225.681C89.0923 245.301 100.099 272.706 121.543 291.827L122.228 290.929Z" fill="#3C8F7C"/>
<path d="M80.4256 182.51C81.4703 187.367 80.5961 191.955 78.3692 195.267C74.8796 192.697 72.1339 188.582 71.0892 183.725C70.0444 178.869 70.9186 174.282 73.1455 170.968C76.6375 173.536 79.3808 177.653 80.4256 182.51Z" fill="#3C8F7C"/>
<path d="M73.9299 196.34C77.5806 199.735 79.7128 204.196 80.1273 208.491C76.1213 208.674 71.7125 207.049 68.0642 203.651C64.4159 200.256 62.2814 195.796 61.8691 191.5C65.8728 191.318 70.2792 192.946 73.9299 196.34Z" fill="#3C8F7C"/>
<path d="M72.2166 210.87C76.7509 212.294 80.4703 215.452 82.6735 219.287C79.3829 221.4 74.9718 222.009 70.4374 220.585C65.9031 219.162 62.1837 216.004 59.9805 212.168C63.2711 210.055 67.6799 209.446 72.2166 210.87Z" fill="#3C8F7C"/>
<path d="M79.2 228.349C82.7915 229.481 85.6652 232.381 87.2927 236.041C84.5683 238.329 81.0029 239.197 77.4091 238.064C73.8176 236.932 70.9439 234.032 69.3164 230.372C72.0408 228.083 75.6086 227.216 79.2 228.349Z" fill="#3C8F7C"/>
<path d="M85.3364 203.403C88.1626 200.557 91.9081 199.342 95.5327 199.733C95.7341 203.568 94.4098 207.458 91.5835 210.304C88.7572 213.149 85.0118 214.364 81.3872 213.973C81.1858 210.138 82.5077 206.248 85.3364 203.403Z" fill="#3C8F7C"/>
<path d="M88.6117 215.93C91.4404 213.085 95.1835 211.87 98.8081 212.261C99.0095 216.096 97.6852 219.986 94.8589 222.831C92.0326 225.676 88.2872 226.892 84.6625 226.501C84.4612 222.663 85.7831 218.775 88.6117 215.93Z" fill="#3C8F7C"/>
<path d="M109.459 316.543C89.8979 313.691 73.1583 302.104 62.5592 292.883C51.0527 282.874 44.0972 273.417 44.0285 273.322L43.332 273.723C43.4007 273.817 50.4084 283.346 61.9882 293.424C72.6892 302.736 89.6018 314.442 109.407 317.327L109.459 316.543Z" fill="#50BFA5"/>
<path d="M43.558 269.56C46.0289 271.984 47.2797 274.985 47.2584 277.764C44.2426 277.61 41.0681 276.269 38.5972 273.848C36.1263 271.425 34.8754 268.423 34.8968 265.644C37.9125 265.798 41.0871 267.137 43.558 269.56Z" fill="#50BFA5"/>
<path d="M45.0884 280.093C48.5141 280.666 51.4635 282.441 53.3517 284.779C51.0916 286.423 47.9076 287.169 44.482 286.596C41.0563 286.023 38.1069 284.248 36.2188 281.91C38.4788 280.266 41.6652 279.52 45.0884 280.093Z" fill="#50BFA5"/>
<path d="M49.6671 289.195C52.8487 288.283 56.2246 288.69 58.9751 290.076C57.8735 292.568 55.5423 294.613 52.3607 295.527C49.1791 296.442 45.8032 296.032 43.0527 294.646C44.1567 292.154 46.4855 290.109 49.6671 289.195Z" fill="#50BFA5"/>
<path d="M60.4347 296.676C62.9577 295.956 65.739 296.539 68.089 298.043C67.3831 300.419 65.6442 302.291 63.1212 303.011C60.5981 303.731 57.8169 303.148 55.4668 301.644C56.1728 299.268 57.9116 297.396 60.4347 296.676Z" fill="#50BFA5"/>
<path d="M54.4298 279.82C54.9818 277.082 56.6922 274.938 58.9475 273.774C60.5372 275.928 61.2597 278.695 60.7077 281.433C60.1558 284.172 58.4453 286.316 56.1876 287.479C54.6003 285.328 53.8778 282.559 54.4298 279.82Z" fill="#50BFA5"/>
<path d="M61.1404 285.845C61.6924 283.106 63.4029 280.963 65.6606 279.799C67.2502 281.953 67.9727 284.72 67.4207 287.458C66.8688 290.197 65.1583 292.341 62.9006 293.504C61.3134 291.351 60.5884 288.584 61.1404 285.845Z" fill="#50BFA5"/>
<path d="M121.238 375.089C98.675 383.656 73.8356 379.131 56.9728 373.827C38.6672 368.07 25.5403 360.174 25.41 360.096L24.9102 361.05C25.0405 361.131 38.2644 369.086 56.6908 374.885C73.7195 380.244 98.8124 384.812 121.657 376.141L121.238 375.089Z" fill="#96D9C9"/>
<path d="M22.6312 355.511C26.7273 357.101 29.8757 360.207 31.5317 363.824C28.2269 365.514 24.0337 365.767 19.9376 364.177C15.8415 362.585 12.6931 359.482 11.0371 355.864C14.3419 354.175 18.5351 353.922 22.6312 355.511Z" fill="#96D9C9"/>
<path d="M30.6267 368.2C34.6209 366.797 38.8378 367.245 42.2634 369.09C40.8491 372.637 37.9067 375.601 33.9102 377.003C29.916 378.405 25.6991 377.958 22.2734 376.112C23.6878 372.568 26.6301 369.604 30.6267 368.2Z" fill="#96D9C9"/>
<path d="M41.0058 377.126C43.8439 373.949 47.6864 372.365 51.4556 372.433C51.7873 376.352 50.5411 380.464 47.7007 383.641C44.8626 386.82 41.02 388.405 37.2508 388.334C36.9215 384.416 38.1676 380.303 41.0058 377.126Z" fill="#96D9C9"/>
<path d="M55.5292 381.734C58.3673 378.555 62.2099 376.97 65.979 377.041C66.3107 380.96 65.0646 385.072 62.2241 388.249C59.3836 391.426 55.5434 393.013 51.7743 392.942C51.445 389.024 52.6911 384.913 55.5292 381.734Z" fill="#96D9C9"/>
<path d="M41.8662 366.845C39.3669 363.592 38.2534 359.671 38.5188 356.115C41.8094 356.499 45.1734 358.411 47.6704 361.664C50.1697 364.916 51.2832 368.837 51.0178 372.393C47.7272 372.009 44.3632 370.097 41.8662 366.845Z" fill="#96D9C9"/>
<path d="M56.9543 371.566C54.41 368.352 53.2349 364.443 53.441 360.877C56.7293 361.204 60.117 363.059 62.6637 366.274C65.2081 369.489 66.3831 373.398 66.177 376.963C62.8864 376.638 59.4987 374.783 56.9543 371.566Z" fill="#96D9C9"/>
<path d="M74.6192 382.997C75.2873 381.303 76.6116 380.126 78.1657 379.64C78.9119 381.206 79.0399 383.066 78.3742 384.76C77.7061 386.454 76.3818 387.631 74.8277 388.117C74.0815 386.551 73.9512 384.691 74.6192 382.997Z" fill="#96D9C9"/>
<path d="M169.666 426.187C169.666 426.187 198.414 312.49 188.881 301.064C175.707 285.274 164.838 337.651 163.772 333.202C153.701 291.19 151.019 237.434 118.53 231.743C100.064 228.509 122.797 271.716 121.428 283.402C120.061 295.089 86.7804 256.289 66.5559 235.962C46.3314 215.636 35.8863 228.505 48.6649 254.064C61.0218 278.78 100.995 305.79 92.7552 308.995C84.5156 312.201 34.4933 280.282 28.367 293.926C20.8571 310.656 95.8918 333.422 88.8273 337.182C81.7604 340.939 45.8979 328.564 46.8787 341.356C47.8595 354.149 96.0671 353.673 95.245 359.299C93.9112 368.411 62.024 347.788 60.6238 360.394C59.1906 373.289 102.572 370.936 101.821 380.995C101.39 386.776 92.08 378.058 90.7083 386.063C87.5812 404.318 144.77 426.554 144.77 426.554L169.666 426.187Z" fill="#3C8F7C"/>
<path d="M191.587 426.881C191.587 426.881 164.227 384.933 151.062 377.013C137.035 368.574 147.715 393.84 147.715 393.84C147.715 393.84 119.047 359.728 111.08 366.66C103.113 373.592 110.343 381.618 110.343 381.618C110.343 381.618 84.6057 373.992 79.9814 383.438C72.8743 397.953 115.245 409.99 115.245 409.99C115.245 409.99 97.0551 409.798 100.403 419.599C105.446 434.377 191.587 426.881 191.587 426.881Z" fill="#50BFA5"/>
<path d="M79.9785 383.435C84.6053 373.988 110.34 381.616 110.34 381.616C110.34 381.616 103.107 373.59 111.077 366.658C119.046 359.726 141.979 380.474 141.979 380.474C141.979 380.474 139.574 363.365 156.844 378.437C169.178 389.202 191.589 426.881 191.589 426.881L79.9785 383.435Z" fill="#96D9C9"/>
<path d="M158.376 321.556L159.604 320.718C137.327 286.98 130.528 246.929 128.747 219.268C126.814 189.252 130.206 166.941 130.242 166.72L128.721 166.277C128.685 166.5 125.267 188.961 127.207 219.154C129 247.052 135.863 287.461 158.376 321.556Z" fill="#96D9C9"/>
<path d="M134.625 161.465C134.675 168.243 132.322 173.846 128.57 177.208C124.758 172.361 122.32 165.817 122.27 159.039C122.223 152.262 124.573 146.659 128.326 143.297C132.14 148.144 134.577 154.688 134.625 161.465Z" fill="#96D9C9"/>
<path d="M122.561 176.699C126.359 182.69 127.917 189.418 127.301 195.191C122.09 193.708 116.842 189.698 113.047 183.706C109.249 177.715 107.69 170.987 108.306 165.214C113.518 166.694 118.766 170.705 122.561 176.699Z" fill="#96D9C9"/>
<path d="M116.474 194.898C121.939 198.7 125.889 204.412 127.701 210.358C122.894 211.699 117.05 210.6 111.584 206.797C106.119 202.995 102.17 197.283 100.357 191.337C105.164 189.996 111.009 191.095 116.474 194.898Z" fill="#96D9C9"/>
<path d="M123.602 226.671C125.986 228.093 127.796 230.374 128.727 232.826C126.77 233.556 124.308 233.286 121.925 231.864C119.542 230.443 117.732 228.162 116.801 225.71C118.758 224.98 121.219 225.248 123.602 226.671Z" fill="#96D9C9"/>
<path d="M125.542 238.44C127.925 239.862 129.735 242.143 130.666 244.595C128.709 245.325 126.248 245.055 123.864 243.633C121.481 242.212 119.671 239.93 118.74 237.478C120.697 236.751 123.156 237.019 125.542 238.44Z" fill="#96D9C9"/>
<path d="M135.377 190.799C139.781 188.304 144.932 188.331 149.499 190.394C148.734 195.48 145.991 199.979 141.587 202.474C137.183 204.968 132.032 204.942 127.465 202.879C128.23 197.792 130.973 193.294 135.377 190.799Z" fill="#96D9C9"/>
<path d="M136.256 208.529C140.66 206.034 145.811 206.06 150.378 208.124C149.613 213.21 146.87 217.709 142.466 220.204C138.062 222.698 132.911 222.672 128.344 220.609C129.109 215.525 131.852 211.024 136.256 208.529Z" fill="#96D9C9"/>
<path d="M135.383 233.906C138.249 232.281 141.601 232.3 144.575 233.643C144.077 236.953 142.291 239.881 139.424 241.506C136.558 243.131 133.206 243.112 130.232 241.769C130.732 238.46 132.516 235.531 135.383 233.906Z" fill="#96D9C9"/>
<path d="M449.712 333.948C452.301 334.367 452.147 334.789 452.481 334.834C452.875 334.886 457.546 332.541 457.546 332.541C457.546 332.541 471.365 325.72 472.097 325.325L482.071 312.776L489.756 316.32C489.756 316.32 478.538 329.66 477.83 330.247C477.119 330.835 457.307 337.783 455.585 338.451C455.585 338.451 453.848 340.039 452.723 340.998C451.598 341.958 450.096 342.337 449.738 342.555C449.686 342.588 448.444 343.242 446.694 343.623C445.185 343.952 446.443 342.927 446.443 342.927C446.443 342.927 449.113 341.799 448.982 341.595C448.88 341.439 447.461 342.142 445.796 342.524C445.367 342.621 444.945 342.718 444.554 342.801C443.531 343.021 443.083 342.436 444.109 342.029C444.472 341.884 445.08 341.662 445.54 341.564C446.035 341.46 446.452 341.202 446.852 341.048C447.648 340.745 448.234 340.534 448.203 340.508C448.163 340.472 448.274 340.297 447.817 340.385C447.265 340.491 446.154 340.989 445.329 341.081C444.862 341.133 443.894 341.306 443.894 341.306C443.894 341.306 442.178 341.47 442.166 341.23C442.14 340.704 443.197 340.411 443.844 340.425C444.251 340.216 445.277 340.065 445.277 340.065C445.277 340.065 447.265 339.281 447.151 338.987C447.106 338.868 445.9 339.051 444.623 339.138C443.273 339.231 442.294 339.231 442.223 338.97C442.11 338.556 443.183 338.397 443.183 338.397C443.183 338.397 444.13 338.26 444.441 338.188C444.806 338.106 445.872 337.772 445.872 337.772C445.872 337.772 449.529 336.428 449.397 336.158C449.264 335.888 448.66 335.324 448.402 335.324C448.144 335.327 447.684 335.583 447.426 335.585C447.168 335.587 446.613 335.538 446.575 335.213C446.537 334.888 447.968 334.216 447.968 334.216C447.968 334.216 448.963 333.827 449.712 333.948Z" fill="#F8A492"/>
<path d="M475.127 320.551C475.127 320.551 477.614 322.811 478.65 323.555C479.51 324.174 483.703 326.192 483.703 326.192C483.703 326.192 487.875 319.805 489.699 316.602C491.912 312.717 493.444 306.936 492.921 306.78C491.452 306.339 489.434 306.072 487.569 306.927C481.116 309.891 475.127 320.551 475.127 320.551Z" fill="#FB6B67"/>
<path d="M452.129 337.286C451.022 337.461 449.89 337.251 449.399 336.237C449.288 337.44 451.11 338.037 452.129 337.286Z" fill="#FE875E"/>
<path d="M142.866 292.483C143.02 288.764 142.475 285.089 140.816 281.628C139.39 278.648 135.863 276.959 132.646 276.954C122.43 276.94 121.132 290.495 114.629 295.724C112.641 297.321 110.422 298.624 108.541 300.346C101.597 306.707 104.724 318.486 111.099 324.062C115.522 327.933 122.475 330.132 127.929 327.107C130.774 325.527 132.935 322.902 134.474 320.026C136.659 315.944 138.068 311.232 139.62 306.882C141.276 302.248 142.66 297.427 142.866 292.483Z" fill="#13375B"/>
<path d="M144.532 310.495C141.341 300.815 137.129 300.967 137.129 300.967L140.533 321.577C142.504 321.04 145.07 319.838 147.039 319.284C146.385 316.223 145.319 312.878 144.532 310.495Z" fill="#F7CC7F"/>
<path d="M160.658 343.508L148.993 334.61C148.993 334.61 147.82 326.308 146.247 318.941C144.279 319.497 142.502 321.04 140.533 321.58L143.499 338.078L158.789 345.964L163.108 351.515L164.091 345.817L160.658 343.508Z" fill="#F48C7F"/>
<path d="M266.994 329.608C270.616 329.608 274.016 330.563 276.953 332.233C277.325 332.444 277.728 332.638 278.157 332.814C287.121 336.495 296.929 329.677 296.929 319.985V272.327H249.271C239.579 272.327 232.761 262.519 236.443 253.555C236.618 253.126 236.812 252.723 237.023 252.351C238.693 249.411 239.648 246.014 239.648 242.392C239.648 230.914 230.077 221.67 218.481 222.208C207.986 222.693 199.535 231.314 199.242 241.816C199.137 245.552 200.047 249.066 201.717 252.103C201.926 252.482 202.115 252.892 202.291 253.327C205.944 262.439 199.014 272.33 189.199 272.33H141.951V380.924C141.951 406.541 162.718 427.308 188.335 427.308H296.929V379.808C296.929 370.069 287.088 363.208 278.069 366.878C277.638 367.053 277.233 367.245 276.861 367.454C273.649 369.257 269.891 370.207 265.897 369.996C255.608 369.451 247.295 361.09 246.81 350.797C246.262 339.189 255.509 329.608 266.994 329.608Z" fill="black"/>
<path d="M370.286 303.172C370.454 299.555 371.568 296.202 373.373 293.345C373.6 292.985 373.813 292.59 374.008 292.17C378.104 283.388 371.75 273.273 362.07 272.82L314.462 270.595L312.237 318.201C311.785 327.881 301.669 334.235 292.887 330.139C292.468 329.942 292.072 329.732 291.712 329.504C288.855 327.699 285.505 326.588 281.885 326.417C270.419 325.882 260.739 335.01 260.734 346.618C260.73 357.122 268.945 365.968 279.421 366.75C283.148 367.03 286.699 366.283 289.812 364.758C290.201 364.568 290.617 364.395 291.063 364.241C300.333 361.019 309.892 368.401 309.432 378.204L307.227 425.401L415.703 430.473C441.291 431.669 463.005 411.895 464.202 386.307L469.274 277.831L421.824 275.613C412.097 275.158 404.784 284.668 408.027 293.85C408.181 294.288 408.354 294.703 408.546 295.084C410.197 298.377 410.972 302.175 410.574 306.155C409.55 316.408 400.809 324.321 390.506 324.325C378.888 324.328 369.748 314.643 370.286 303.172Z" fill="#CAFFDD"/>
<path d="M237.631 228.213C237.814 231.831 237.032 235.273 235.511 238.291C235.319 238.673 235.146 239.085 234.992 239.523C231.766 248.661 239.067 258.116 248.747 257.627L296.346 255.235L293.953 207.636C293.467 197.958 302.92 190.655 312.057 193.881C312.495 194.035 312.908 194.208 313.289 194.4C316.307 195.921 319.749 196.703 323.367 196.52C334.831 195.945 343.582 185.921 342.464 174.365C341.452 163.908 332.417 155.901 321.915 156.135C318.179 156.218 314.715 157.306 311.766 159.125C311.399 159.353 310.998 159.563 310.572 159.76C301.657 163.866 291.428 157.443 290.935 147.64L288.561 100.451L180.104 105.905C154.521 107.191 134.822 128.974 136.108 154.558L141.562 263.015L189.002 260.629C198.727 260.141 205.085 249.968 200.968 241.144C200.771 240.722 200.561 240.326 200.331 239.966C198.367 236.849 197.23 233.143 197.242 229.144C197.268 218.842 205.202 210.119 215.457 209.117C227.02 207.989 237.056 216.743 237.631 228.213Z" fill="#50BFA5"/>
<path d="M335.056 201.943C331.434 201.943 328.034 200.988 325.097 199.318C324.725 199.107 324.322 198.913 323.893 198.737C314.929 195.056 305.121 201.874 305.121 211.563V259.221H352.779C362.471 259.221 369.289 269.029 365.607 277.994C365.432 278.422 365.238 278.825 365.027 279.197C363.357 282.137 362.402 285.534 362.402 289.157C362.402 300.635 371.973 309.879 383.57 309.341C394.064 308.855 402.515 300.234 402.809 289.732C402.913 285.996 402.001 282.483 400.333 279.446C400.124 279.067 399.935 278.657 399.76 278.221C396.106 269.11 403.036 259.219 412.851 259.219H460.099V150.629C460.099 125.013 439.332 104.246 413.716 104.246H305.121V151.745C305.121 161.484 314.962 168.345 323.981 164.675C324.412 164.5 324.817 164.308 325.189 164.1C328.402 162.297 332.159 161.344 336.153 161.558C346.442 162.103 354.755 170.463 355.241 180.756C355.788 192.362 346.539 201.943 335.056 201.943Z" fill="black"/>
<path d="M110.932 412.236C110.932 412.236 110.212 417.239 108.976 418.855C108.561 419.398 107.801 420.082 107.303 421.063C106.528 422.586 106.957 424.858 107.528 426.107C107.822 426.749 107.507 426.746 108.177 426.953C110.158 427.564 112.264 426.533 113.107 424.633C113.579 423.572 113.991 422.155 114.074 420.369C114.285 415.825 115.694 413.515 115.694 413.515L110.932 412.236Z" fill="#F7A491"/>
<path d="M132.592 414.525C132.592 414.525 133.038 420.168 132.675 421.999C132.481 422.98 131.405 425.003 131.901 425.927C132.393 426.851 132.957 427.083 132.957 427.083L145.743 427.289C146.439 427.301 145.98 426.851 145.418 426.436C144.499 425.759 143.758 425.311 140.82 423.887C140.628 423.795 139.932 423.349 139.68 423.195C139.043 422.804 138.404 422.191 137.852 421.577C136.932 420.551 136.854 415.583 136.854 415.583L132.592 414.525Z" fill="#F7A491"/>
<path d="M142.587 339.53C142.587 339.53 144.198 348.691 143.139 354.696C142.08 360.702 137.008 416.367 137.008 416.367L131.37 416.687C131.37 416.687 130.187 393.435 130.398 390.201C130.609 386.967 132.284 381.556 132.284 381.556L131.723 362.782L138.839 338.118L142.587 339.53Z" fill="#256653"/>
<path d="M126.014 337.601C126.014 337.601 121.574 344.299 120.515 349.842C119.459 355.386 121.292 372.422 119.257 379.687C118.156 383.62 113.984 389.692 113.349 394.774C112.714 399.855 110.227 413.167 110.227 413.167L115.863 414.287L128.961 381.045L139.235 350.998L141.867 335.524L126.014 337.601Z" fill="#2FB9AF"/>
<path d="M129.608 299.491C129.608 299.491 123.728 299.116 121.404 301.656C119.078 304.196 126.564 324.297 126.986 327.528C127.407 330.762 124.83 339.359 124.83 339.359C124.83 339.359 138.639 342.145 142.588 339.527C142.588 339.527 143.012 316.275 142.588 313.965C142.167 311.656 138.641 302.262 137.796 301.338C136.95 300.415 129.608 299.491 129.608 299.491Z" fill="#F7CC7F"/>
<path d="M131.564 291.618C131.564 291.618 131.533 291.791 131.479 292.087C131.216 293.504 130.206 298.204 129.524 299.495C128.7 301.056 132.346 306.036 135.854 305.427C136.899 305.247 134.971 300.853 135.065 300.386C135.243 299.495 135.482 298.28 135.729 297.034C135.868 296.33 136.008 295.617 136.141 294.949C136.515 293.044 136.823 291.488 136.823 291.488L131.564 291.618Z" fill="#F7A491"/>
<path d="M131.48 292.085C131.534 291.789 131.565 291.616 131.565 291.616L136.822 291.485C136.822 291.485 136.516 293.042 136.14 294.946C136.009 295.612 135.87 296.321 135.73 297.022C134.917 296.901 134.069 296.508 133.219 295.759C132.292 294.947 131.684 293.968 131.316 292.926C131.385 292.592 131.44 292.305 131.48 292.085Z" fill="#F47458"/>
<path d="M135.104 279.64C135.104 279.64 132.626 279.354 131.072 281.367C129.518 283.381 127.845 289.607 131.702 292.992C135.561 296.378 139.373 292.545 139.939 288.482C140.506 284.419 140.726 279.494 135.104 279.64Z" fill="#F7A491"/>
<path d="M141.081 288.422C140.622 289.32 139.847 289.815 139.354 289.531C138.861 289.247 138.835 288.287 139.295 287.392C139.755 286.494 140.529 285.997 141.022 286.281C141.515 286.568 141.543 287.525 141.081 288.422Z" fill="#F7A491"/>
<path d="M135.381 278.975C135.381 278.975 132.072 284.898 129.703 285.17C127.334 285.442 127.023 288.591 127.023 288.591C127.023 288.591 127.869 281.342 130.215 279.944C132.56 278.544 135.381 278.975 135.381 278.975Z" fill="#13375B"/>
<path d="M113.489 423.631C110.417 424.192 108.375 422.392 107.311 421.044C106.529 422.572 106.15 424.851 106.723 426.104C107.228 427.21 108.706 427.177 109.872 427.22C111.101 427.265 112.054 426.58 112.665 425.507C112.949 425.007 113.243 424.382 113.489 423.631Z" fill="#F47458"/>
<path d="M139.68 423.195C136.3 424.064 133.798 423.472 132.4 422.908C132.04 423.931 131.562 425.218 131.815 425.959C132.126 426.867 132.569 427.073 132.957 427.082C136.046 427.163 144.272 427.274 146.626 427.305C146.956 427.31 147.136 426.924 146.925 426.67C146.342 425.971 139.932 423.349 139.68 423.195Z" fill="#F47458"/>
<path d="M130.323 286.657C130.515 287.709 130.129 288.673 129.458 288.811C128.788 288.948 128.089 288.209 127.895 287.157C127.703 286.105 128.089 285.141 128.76 285.004C129.43 284.864 130.131 285.605 130.323 286.657Z" fill="#F7A491"/>
<path d="M389.087 51.945C389.459 51.9592 390.48 52.3027 391.97 55.1195C393.875 58.7205 396.658 69.5944 396.658 69.5944L388.348 72.6883L387.279 70.4188L385.521 52.9448C385.524 52.9448 388.985 51.9403 389.087 51.945Z" fill="#F7CC7F"/>
<path d="M378.103 50.3763C380.479 50.3787 386.359 51.0728 389.088 51.9446C389.088 51.9446 391.092 69.1746 387.283 82.2683C386.43 85.1988 387.989 94.4191 387.989 94.4191L363.365 94.0946C363.365 94.0946 366.282 71.8066 365.182 68.2081C364.083 64.6071 364.057 52.063 364.057 52.063C364.057 52.063 364.225 52.037 369.589 51.1107C372.093 50.6748 375.568 50.3715 378.103 50.3763Z" fill="#F7CC7F"/>
<path d="M375.234 126.399C375.234 126.399 375.779 132.687 376.781 134.428C377.783 136.169 376.729 139.128 376.674 139.535C376.622 139.941 374.566 140.521 371.297 140.173C368.027 139.824 368.082 139.071 368.345 137.851C368.608 136.633 370.349 135.065 370.453 133.904C370.56 132.743 369.451 128.564 369.451 128.564L375.234 126.399Z" fill="#F7A491"/>
<path d="M385.211 89.2284C385.211 89.2284 402.209 88.2855 406.004 90.5835C409.799 92.8815 403.308 104.165 403.308 104.165C403.308 104.165 391.479 103.62 368.312 104.956C362.826 105.274 362.354 90.6522 363.38 89.4416C364.406 88.231 385.211 89.2284 385.211 89.2284Z" fill="#256653"/>
<path d="M370.89 140.661C367.524 140.303 367.941 138.649 368.213 137.394C368.384 136.607 369.348 135.681 369.924 134.805C370.225 135.044 370.715 135.468 372.174 135.899C373.693 136.347 375.773 135.461 377.097 134.904C377.571 136.662 377.592 138.905 377.547 139.246C377.495 139.666 374.254 141.021 370.89 140.661Z" fill="#F47458"/>
<path d="M372.749 101.389C373.429 106.527 376.791 132.111 376.791 132.111L368.989 133.077C368.989 133.077 359.395 99.6855 359.887 94.5802C360.38 89.4726 363.972 89.0438 363.972 89.0438C363.972 89.0438 370.951 87.7858 372.749 101.389Z" fill="#327F6B"/>
<path d="M363.791 53.9749C366.094 53.1102 367.219 73.8559 367.529 82.394C371.606 82.7872 378.714 82.3963 380.483 82.2637C381.315 82.2021 383.234 81.4985 384.063 81.3895C384.911 81.2781 385.681 81.2213 386.095 81.2924C386.249 81.3184 390.497 83.0573 390.862 83.4387C391.312 83.9125 392.532 85.1041 392.326 85.6182C392.12 86.1347 389.983 84.1826 389.983 84.1826L388.938 83.5951C390.239 84.8649 392.722 86.5398 392.364 87.1486C392.016 87.7433 389.777 86.0447 388.183 84.8862C389.552 86.1228 391.251 88.3332 390.86 88.679C390.507 88.9894 388.573 86.4284 386.508 85.6917C385.742 85.4192 384.977 86.175 384.376 86.2674C383.933 86.3337 383.25 86.4782 382.814 86.355L380.576 85.7201C379.813 85.7888 379.794 86.2389 379.024 86.4048C378.131 86.5943 376.664 86.7956 375.527 87.0728C368.974 88.6743 366.788 89.4182 364.781 89.4158C358.702 89.4134 358.349 56.0171 363.791 53.9749Z" fill="#F7A491"/>
<path d="M359.42 73.4506C358.989 64.7041 359.053 53.925 363.955 52.0866C365.89 51.3617 369.299 55.7231 368.686 73.6283C366.07 73.8439 362.228 74.0192 359.42 73.4506Z" fill="#F7CC7F"/>
<path d="M398.05 131.776C398.05 131.776 397.371 133.958 398.588 135.403C399.808 136.846 404.873 138.263 405.537 139.045C406.202 139.826 406.15 140.492 406.15 140.492L391.934 140.101L392.088 135.809L392.741 132.724L398.05 131.776Z" fill="#F7A491"/>
<path d="M399.473 136.124C399.473 136.124 395.82 137.602 394.055 136.726C392.29 135.851 392.345 135.607 391.833 135.934C391.321 136.261 391.139 140.286 391.139 140.286L407.125 140.755C408.238 140.729 408.8 139.909 407.895 139.208C407.274 138.727 406.559 138.405 406.151 138.173C404.903 137.455 399.473 136.124 399.473 136.124Z" fill="#F47458"/>
<path d="M397.51 93.2584C398.61 90.9462 401.109 87.9351 405.506 89.7498C409.699 91.4792 410.824 95.7293 409.503 100.081C408.181 104.433 399.47 130.019 399.166 133.537L392.211 133.582C392.211 133.582 393.474 113.324 393.784 108.427C394.082 103.713 395.608 97.2597 397.51 93.2584Z" fill="#327F6B"/>
<path d="M408.8 69.6932H385.553C384.937 69.6932 384.385 70.0652 384.15 70.6361L376.991 88.1552H364.175C363.817 88.1552 363.525 88.4465 363.525 88.8066C363.525 89.1667 363.817 89.4581 364.175 89.4581H400.653C401.655 89.4581 402.565 88.8682 402.977 87.949L410.186 71.8372C410.634 70.8304 409.899 69.6932 408.8 69.6932Z" fill="#DDDDDD"/>
<path d="M383.63 29.3323C382.928 29.0954 382.239 28.8301 381.573 28.5079C380.82 28.1454 379.844 27.719 379.228 27.6242C377.93 27.4229 375.703 27.5579 374.471 28.8917C372.938 30.5547 370.214 29.1926 370.761 37.9035C371.382 47.7658 376.866 46.6832 376.999 46.515C377.131 46.3468 381.888 40.2062 381.888 40.2062C381.888 40.2062 383.551 43.8451 383.551 43.71C383.551 43.5845 392.044 32.1657 383.63 29.3323Z" fill="#0E2E35"/>
<path d="M379.465 47.2468L379.939 50.7695C379.939 50.7695 381 55.8464 379.636 56.8248C378.271 57.8032 373.834 50.625 373.834 50.625L374.303 41.6961L379.465 47.2468Z" fill="#F7A491"/>
<path d="M374.15 44.5911C375.278 47.6377 377.962 49.5092 379.867 50.2341L379.467 47.2468L374.302 41.6961L374.15 44.5911Z" fill="#F47458"/>
<path d="M379.185 31.9808C382.075 31.5141 384.669 33.8381 384.596 36.7331C384.565 37.9911 384.461 39.5617 384.2 41.2532C383.572 45.3209 380.796 48.9029 378.962 48.5831C377.129 48.2632 372.509 44.7547 373.324 38.9647C373.824 35.3899 376.153 32.4688 379.185 31.9808Z" fill="#F7A491"/>
<path d="M374.596 39.6537C374.442 40.5492 373.725 41.1698 372.997 41.0443C372.268 40.9164 371.803 40.0896 371.957 39.1941C372.111 38.2986 372.829 37.6779 373.556 37.8034C374.286 37.9314 374.75 38.7605 374.596 39.6537Z" fill="#F7A491"/>
<path d="M373.557 37.8039C373.557 37.8039 375.777 38.3559 376.599 36.9273C377.423 35.5012 380.365 32.4214 384.108 33.6983C387.852 34.9752 380.815 30.5949 380.515 30.5949C380.216 30.5949 376.622 30.5688 376.622 30.5688C376.622 30.5688 373.853 32.8478 373.753 33.0966C373.654 33.3477 372.855 36.0768 372.855 36.0768L373.557 37.8039Z" fill="#0E2E35"/>
<path d="M397.152 80.8512C397.152 81.5016 396.61 82.0273 395.941 82.0273H392.203C391.534 82.0273 390.992 81.5016 390.992 80.8512C390.992 80.2661 391.433 79.782 392.012 79.6929C392.002 79.6513 391.999 79.6097 391.999 79.5651C391.999 79.1553 392.341 78.8197 392.766 78.8197C392.954 78.8197 393.13 78.888 393.262 78.9979C393.499 78.4781 393.804 77.9999 394.66 77.9999C395.698 77.9999 396.188 78.7781 396.188 79.6008C396.188 79.6335 396.188 79.6691 396.185 79.7018C396.458 79.757 396.704 79.9015 396.88 80.1108C397.056 80.3202 397.152 80.5816 397.152 80.8512Z" fill="#FCFCFC"/>
<path d="M395.509 79.6494C395.342 79.6493 395.177 79.682 395.023 79.7457C394.869 79.8094 394.729 79.9029 394.612 80.0208C394.494 80.1386 394.4 80.2786 394.337 80.4326C394.273 80.5866 394.24 80.7517 394.24 80.9183C394.24 80.9305 394.24 80.9426 394.241 80.9546H394.638V80.9453C394.638 80.8272 394.661 80.7102 394.706 80.6011C394.751 80.4919 394.817 80.3928 394.901 80.3092C394.985 80.2257 395.084 80.1594 395.193 80.1142C395.302 80.069 395.419 80.0458 395.537 80.0458H395.541V79.6499C395.53 79.6496 395.52 79.6494 395.509 79.6494Z" fill="#DDDDDD"/>
<path d="M394.581 79.5223L394.354 79.1844C394.074 79.3667 393.845 79.6159 393.686 79.9093C393.528 80.2027 393.445 80.5311 393.445 80.8646C393.445 80.8949 393.446 80.925 393.447 80.9549H393.844C393.843 80.9339 393.843 80.9128 393.843 80.8916C393.842 80.6199 393.91 80.3525 394.039 80.1135C394.168 79.8744 394.354 79.6712 394.581 79.5223H394.581Z" fill="#DDDDDD"/>
<path d="M392.713 80.2246C392.671 80.4171 392.65 80.6134 392.65 80.8104C392.65 80.8588 392.652 80.9068 392.654 80.9546H393.051C393.049 80.9158 393.048 80.8767 393.048 80.8374C393.048 80.6651 393.067 80.4933 393.103 80.325L392.713 80.2246Z" fill="#DDDDDD"/>
<path d="M394.029 81.1569L394.16 80.9228L394.242 81.1569H394.206L394.187 81.1037H394.098L394.068 81.1569H394.029ZM394.112 81.0737H394.178L394.16 81.018C394.159 81.0154 394.159 81.0118 394.158 81.0074C394.157 81.003 394.156 80.9972 394.154 80.99C394.152 80.9954 394.15 81.0005 394.147 81.0053C394.145 81.01 394.143 81.0145 394.141 81.0187L394.112 81.0737ZM394.263 81.1569L394.279 81.0394H394.253L394.256 81.0111H394.282L394.287 80.9748C394.29 80.9526 394.295 80.9371 394.302 80.9285C394.31 80.9199 394.321 80.9156 394.336 80.9156C394.341 80.9156 394.346 80.9161 394.35 80.917C394.354 80.9178 394.358 80.9191 394.363 80.921L394.359 80.9496C394.355 80.948 394.352 80.9468 394.349 80.9461C394.346 80.9453 394.344 80.945 394.341 80.945C394.335 80.945 394.33 80.9473 394.327 80.9519C394.324 80.9564 394.322 80.9657 394.32 80.9799L394.316 81.0111H394.345L394.342 81.0394H394.312L394.296 81.1569H394.263ZM394.456 81.0403C394.453 81.0387 394.451 81.0375 394.448 81.0367C394.446 81.0357 394.443 81.0353 394.44 81.0353C394.428 81.0353 394.419 81.0396 394.412 81.0483C394.405 81.0571 394.401 81.0705 394.398 81.0886L394.389 81.1569H394.356L394.375 81.0111H394.407L394.405 81.03C394.411 81.0219 394.417 81.0159 394.424 81.012C394.43 81.008 394.438 81.006 394.446 81.006C394.449 81.006 394.453 81.0065 394.456 81.0074C394.46 81.0084 394.463 81.0098 394.466 81.0117L394.456 81.0403ZM394.493 80.9601C394.493 80.9546 394.495 80.95 394.498 80.9462C394.502 80.9424 394.507 80.9405 394.513 80.9405C394.518 80.9405 394.523 80.9424 394.526 80.9462C394.53 80.9499 394.532 80.9545 394.532 80.9601C394.532 80.9657 394.53 80.9704 394.526 80.9742C394.523 80.978 394.518 80.9799 394.513 80.9799C394.507 80.9799 394.502 80.978 394.498 80.9742C394.495 80.9704 394.493 80.9657 394.493 80.9601ZM394.471 81.1569L394.49 81.0111H394.523L394.504 81.1569H394.471ZM394.676 81.0526C394.67 81.0469 394.663 81.0425 394.655 81.0396C394.648 81.0365 394.641 81.035 394.633 81.035C394.619 81.035 394.606 81.0402 394.597 81.0506C394.588 81.0611 394.583 81.0747 394.583 81.0914C394.583 81.1045 394.587 81.1148 394.593 81.1223C394.6 81.1298 394.61 81.1335 394.622 81.1335C394.629 81.1335 394.637 81.1323 394.645 81.1297C394.653 81.1271 394.66 81.1233 394.668 81.1182L394.661 81.1534C394.655 81.1566 394.649 81.1589 394.642 81.1605C394.636 81.1621 394.629 81.1629 394.621 81.1629C394.599 81.1629 394.582 81.1565 394.568 81.1435C394.555 81.1305 394.549 81.1132 394.549 81.0917C394.549 81.0665 394.557 81.0459 394.572 81.03C394.588 81.014 394.609 81.006 394.634 81.006C394.643 81.006 394.652 81.0073 394.66 81.0097C394.668 81.0122 394.676 81.016 394.683 81.0211L394.676 81.0526ZM394.732 81.0886C394.732 81.1026 394.735 81.1134 394.742 81.1212C394.748 81.129 394.757 81.1329 394.769 81.1329C394.782 81.1329 394.792 81.1276 394.8 81.1171C394.808 81.1065 394.812 81.092 394.812 81.0734C394.812 81.0608 394.808 81.0508 394.801 81.0434C394.795 81.0359 394.785 81.0322 394.774 81.0322C394.761 81.0322 394.751 81.0373 394.743 81.0474C394.736 81.0576 394.732 81.0713 394.732 81.0886ZM394.834 81.1569H394.801L394.803 81.1409C394.798 81.1482 394.791 81.1536 394.784 81.1572C394.776 81.1608 394.767 81.1626 394.758 81.1626C394.739 81.1626 394.724 81.1566 394.713 81.1446C394.703 81.1325 394.698 81.1154 394.698 81.0932C394.698 81.0671 394.704 81.046 394.717 81.03C394.73 81.014 394.746 81.006 394.767 81.006C394.777 81.006 394.786 81.0081 394.794 81.0122C394.802 81.0162 394.81 81.0223 394.817 81.0307L394.82 81.0111H394.853L394.834 81.1569ZM394.885 81.1398C394.885 81.1342 394.887 81.1294 394.891 81.1254C394.895 81.1214 394.9 81.1194 394.906 81.1194C394.911 81.1194 394.916 81.1214 394.92 81.1254C394.924 81.1294 394.926 81.1342 394.926 81.1398C394.926 81.1454 394.924 81.1501 394.92 81.154C394.916 81.1578 394.911 81.1597 394.906 81.1597C394.9 81.1597 394.895 81.1578 394.891 81.154C394.887 81.1501 394.885 81.1454 394.885 81.1398ZM394.978 81.1398C394.978 81.1342 394.98 81.1294 394.984 81.1254C394.988 81.1214 394.993 81.1194 394.998 81.1194C395.004 81.1194 395.009 81.1214 395.013 81.1254C395.017 81.1294 395.019 81.1342 395.019 81.1398C395.019 81.1454 395.017 81.1501 395.013 81.154C395.009 81.1578 395.004 81.1597 394.998 81.1597C394.993 81.1597 394.988 81.1578 394.984 81.154C394.98 81.1501 394.978 81.1454 394.978 81.1398ZM395.071 81.1398C395.071 81.1342 395.073 81.1294 395.077 81.1254C395.081 81.1214 395.086 81.1194 395.091 81.1194C395.097 81.1194 395.102 81.1214 395.106 81.1254C395.11 81.1294 395.111 81.1342 395.111 81.1398C395.111 81.1454 395.11 81.1501 395.106 81.154C395.102 81.1578 395.097 81.1597 395.091 81.1597C395.086 81.1597 395.081 81.1578 395.077 81.154C395.073 81.1501 395.071 81.1454 395.071 81.1398Z" fill="#DDDDDD"/>
<path d="M309.324 324.839C309.478 325.372 309.568 325.548 309.762 325.905C311.028 328.211 313.965 331.499 313.965 331.499L316.237 326.379C316.237 326.379 315.868 324.771 315.223 322.475C313.032 323.046 310.94 323.378 309.324 324.839Z" fill="#F8A492"/>
<path d="M322.354 320.4C322.354 320.4 309.68 325.858 309.27 325.754C309.007 325.688 304.072 317.427 304.018 309.661C303.994 306.074 307.718 301.758 311.876 302.611C313.968 303.04 313.937 303.622 317.033 308.121C320.13 312.62 322.354 320.4 322.354 320.4Z" fill="#2FB9AF"/>
<path d="M333.17 418.248C333.17 418.248 332.87 423.226 332.867 423.235C332.756 423.868 332.322 425.429 332.322 426.002C332.322 428.16 342.571 424.171 340.273 423.214C340.064 423.126 338.975 422.472 338.908 421.738C338.804 420.605 338.536 418.317 338.536 418.317L333.17 418.248Z" fill="#F7A491"/>
<path d="M340.248 423.195C340.248 423.195 337.841 423.856 336.61 424.019C335.378 424.185 333.753 422.795 332.881 423.171C331.921 423.584 331.959 427.303 331.959 427.303C331.959 427.303 344.861 428.362 348.49 427.267C349.928 426.832 345.167 424.733 340.248 423.195Z" fill="black"/>
<path d="M312.206 418.248C312.206 418.248 311.905 423.226 311.902 423.235C311.791 423.868 311.357 425.429 311.357 426.002C311.357 428.16 321.606 424.171 319.308 423.214C319.099 423.126 317.688 421.984 317.619 421.25C317.515 420.117 317.569 418.317 317.569 418.317L312.206 418.248Z" fill="#F7A491"/>
<path d="M319.285 423.195C319.285 423.195 316.878 423.856 315.646 424.019C314.414 424.185 312.789 422.795 311.917 423.171C310.958 423.584 310.92 427.303 310.92 427.303C310.92 427.303 323.881 428.537 327.527 427.267C328.941 426.772 324.203 424.733 319.285 423.195Z" fill="black"/>
<path d="M315.338 327.599L324.364 314.956C324.402 314.844 324.485 314.619 324.61 314.273C325.065 313.018 326.01 310.407 326.835 307.811L326.844 307.782C327.103 306.875 327.652 305.29 328.183 303.759C328.773 302.056 329.505 299.943 329.531 299.583C329.507 299.521 329.464 299.41 329.41 299.263C329.078 298.403 328.631 296.359 328.474 295.468C328.375 294.902 328.273 293.525 328.946 293.525C330.005 293.525 329.5 294.899 329.988 295.759C330.168 295.186 330.531 294.046 330.722 292.895L330.9 290.206C330.933 290.002 330.718 288.519 331.462 288.519H331.497C332.165 288.569 332.149 290.145 332.426 292.812C332.513 292.507 332.601 292.135 332.667 291.796C332.66 291.613 332.793 290.813 332.892 290.389C332.757 289.645 332.836 288.474 333.627 288.583C334.023 288.638 333.992 290.275 333.992 290.275C333.987 290.5 333.963 292.229 333.977 292.57C334.058 291.99 334.376 289.514 334.996 289.514C335.51 289.514 335.553 290.18 335.541 290.708C335.534 291.021 335.212 293.701 335.193 294.013C335.434 293.606 335.723 291.244 335.963 291.244C336.967 291.244 336.605 294.603 336.235 295.48C336.2 295.57 336.164 295.745 336.121 295.949C335.996 296.548 335.785 297.548 335.262 298.448C334.631 299.526 333.762 301.241 333.629 301.504C333.532 302.04 333.231 303.966 332.85 306.389C332.686 307.427 332.509 308.561 332.324 309.739L332.314 309.737C332.281 309.992 332.092 310.803 331.379 313.842C330.403 318.002 330.301 318.182 330.256 318.258C329.832 319.009 320.1 332.226 319.685 332.787L319.441 333.119L315.338 327.599Z" fill="#F7A491"/>
<path d="M332.123 298.109C332.123 298.109 331.391 296.235 330.086 296.233C330.086 296.233 330.816 295.97 331.439 296.465C332.062 296.96 332.123 298.109 332.123 298.109Z" fill="#F47458"/>
<path d="M313.159 294.489L311.998 301.838C311.998 301.838 316.426 305.394 319.006 304.643C321.171 304.013 319.686 301.182 319.686 301.182C319.686 301.182 318.532 297.259 318.885 295.203C319.238 293.146 313.159 294.489 313.159 294.489Z" fill="#F7A491"/>
<path d="M313.992 296.709C315.101 297.233 317.295 297.948 319.003 298.121C318.839 297.093 318.747 296.006 318.884 295.202C319.048 294.255 317.839 294.03 316.494 294.063C314.731 294.215 313.158 294.489 313.158 294.489L312.936 295.901C313.27 296.254 313.623 296.536 313.992 296.709Z" fill="#FE875E"/>
<path d="M307.57 286.013C307.388 286.013 309.321 294.222 312.311 295.634C315.301 297.046 319.764 296.309 320.6 294.099C321.526 291.654 318.148 283.279 313.941 282.216C309.736 281.152 307.57 286.013 307.57 286.013Z" fill="#F7A491"/>
<path d="M311.031 278.47C308.643 279.849 307.546 281.891 307.176 282.73C306.056 283.263 304.698 284.412 304.047 287.515C303.246 291.327 306.094 294.267 309.112 295.151C312.13 296.034 312.597 298.031 312.597 298.031L312.94 295.883C312.94 295.883 312.27 294.011 311.258 293.075C310.249 292.14 311.737 290.773 311.867 289.659C311.969 288.802 311.336 287.136 311.474 285.729C311.474 285.729 313.151 283.187 314.805 282.559C317.624 281.488 314.096 276.703 311.031 278.47Z" fill="#13375B"/>
<path d="M312.303 291.087C312.694 292.035 312.535 292.978 311.945 293.191C311.358 293.404 310.564 292.807 310.173 291.86C309.782 290.912 309.941 289.969 310.531 289.758C311.118 289.543 311.912 290.14 312.303 291.087Z" fill="#F7A491"/>
<path d="M323.445 327.801L340.855 324.963C340.855 324.963 338.875 319.976 338.167 319.976C337.458 319.976 325.002 325.413 325.002 325.413L324.012 327.403L323.445 327.801Z" fill="#F8A492"/>
<path d="M314.527 339.738C314.527 339.738 312.79 348.134 313.498 354.502C314.207 360.868 314.261 383.485 314.261 383.485L311.561 419.67L317.969 419.81C317.969 419.81 325.569 383.641 325.427 384.57C325.284 385.499 327.973 359.105 327.973 359.105L318.914 338.945L314.527 339.738Z" fill="#202425"/>
<path d="M316.225 339.34C316.225 339.34 315.093 346.9 316.51 350.216C317.924 353.533 328.651 386.067 328.793 388.718C328.935 391.369 332.501 420.691 332.501 420.691L339.951 420.482L341.562 387.884L338.186 346.914L334.91 336.557L316.225 339.34Z" fill="black"/>
<path d="M311.994 301.836C311.994 301.836 313.833 303.042 315.545 302.902C317.258 302.762 319.682 301.182 319.682 301.182L319.345 300.04C319.345 300.04 314.913 299.393 314.799 299.464C314.69 299.533 311.994 301.836 311.994 301.836Z" fill="#F7A491"/>
<path d="M331.58 319.729C331.58 319.729 338.166 325.943 341.139 324.882C344.112 323.821 345.342 320.194 338.088 314.887C331.597 310.139 331.58 319.729 331.58 319.729Z" fill="#F8A492"/>
<path d="M336.043 327.403C335.065 322.079 327.974 305.517 327.408 302.468C327.133 300.985 323.307 300.952 319.666 301.147C315.818 301.35 311.995 301.838 311.995 301.838C311.995 301.838 308.588 302.397 307.091 303.802C305.594 305.207 305.193 309.09 307.349 316.462C309.05 322.281 311.159 325.477 312.201 329.717C312.412 331.139 312.594 332.541 312.833 334.18C313.217 340.518 312.829 348.892 312.829 348.892C312.829 348.892 331.371 352.74 338.308 346.902C338.308 346.9 337.045 332.856 336.043 327.403Z" fill="#50BFA5"/>
<path d="M340.77 315.96C340.77 315.96 333.494 321.966 333.07 321.966C332.798 321.966 322.687 314.53 320.353 308.42C319.062 305.042 321.77 301.263 324.859 301.275C327.001 301.284 327.953 301.836 332.201 305.416C336.449 308.995 340.77 315.96 340.77 315.96Z" fill="#2FB9AF"/>
<path d="M212.775 47.8628C213.967 44.9939 215.18 42.1179 218.274 40.6657C220.778 39.4906 223.393 39.9313 225.618 41.6062C231.922 46.3466 226.428 51.568 233.604 60.5562C235.833 63.3492 238.531 65.6046 239.867 68.8762C241.737 73.458 239.51 75.6564 235.942 77.8502C218.863 88.3474 209.911 66.7938 210.233 61.8639C210.47 58.1966 212.007 49.7107 212.775 47.8628Z" fill="#13375B"/>
<path d="M195.049 103.73C195.769 103.616 197.518 102.363 198.136 102.249C198.615 102.161 199.65 102.005 200.09 101.939C200.631 99.9227 203.374 88.9256 203.682 85.7013C204.016 82.2093 206.484 67.102 206.484 67.102L212.878 68.2652C212.878 68.2652 210.223 79.8877 209.488 85.5213C208.858 90.3612 203.547 101.245 202.872 102.394C202.872 102.422 202.872 102.448 202.869 102.476C202.767 104.185 201.943 103.616 201.943 103.616L200.604 103.957C200.604 103.957 195.874 104.412 195.563 104.526C195.255 104.639 194.329 103.843 195.049 103.73Z" fill="#F7A491"/>
<path d="M212.059 58.2726C207.539 59.8054 204.969 72.0936 204.969 72.0936C204.969 72.0936 212.062 74.0741 213.879 73.0341C213.879 73.0341 215.942 63.892 216.681 64.2118L212.059 58.2726Z" fill="#E1F3F1"/>
<path d="M177.093 124.961C175.71 128.61 174.992 132.123 174.928 132.547C174.897 132.751 175.186 133.743 175.158 133.954C172.381 137.742 168.392 138.569 164.971 138.811C166.714 137.11 169.273 135.496 169.396 134.959C169.593 134.101 170.645 130.28 171.163 124.987C173.293 125.973 174.736 125.191 177.093 124.961Z" fill="#F7A491"/>
<path d="M216.434 84.1522L222.544 101.356C222.544 101.356 212.726 103.204 209.057 103.877C205.387 104.55 184.881 105.445 184.362 105.81C183.976 106.08 179.74 119.78 177.849 127.335C175.703 127.807 172.029 127.24 170.074 126.568C171.131 115.76 174.945 98.6341 176.167 96.7697C178.153 93.735 216.434 84.1522 216.434 84.1522Z" fill="#256653"/>
<path d="M192.569 132.504C191.893 136.347 191.846 139.933 191.863 140.362C191.87 140.568 192.339 141.488 192.353 141.703C190.335 145.944 186.57 147.505 183.256 148.384C184.649 146.387 186.862 144.321 186.88 143.769C186.911 142.89 187.231 138.941 186.748 133.641C189.022 134.207 190.294 133.172 192.569 132.504Z" fill="#F7A491"/>
<path d="M223.565 85.0449L225.934 89.0912C229.542 95.2531 226.775 103.18 220.121 105.762C220.085 105.776 220.05 105.791 220.014 105.802C216.536 107.15 196.56 111.874 196.12 112.329C195.791 112.668 194.199 126.918 193.756 134.693C191.735 135.56 188.02 135.69 185.973 135.394C184.985 124.579 185.523 107.044 186.374 104.983C187.76 101.631 223.565 85.0449 223.565 85.0449Z" fill="#327F6B"/>
<path d="M191.559 140.481C192.089 139.893 194.044 143.127 194.532 143.816C195.081 144.591 194.925 145.176 194.859 145.299C194.686 145.619 184.39 151.677 181.879 152.108C181.642 152.148 181.23 151.999 181.128 151.907C180.147 151.037 184.662 144.624 186.693 143.781C188 143.236 189.166 143.122 191.559 140.481Z" fill="black"/>
<path d="M174.6 132.663C175.233 132.184 176.545 135.726 176.896 136.496C177.289 137.361 177.026 137.906 176.938 138.012C176.709 138.294 165.46 142.314 162.911 142.267C162.67 142.262 162.295 142.037 162.21 141.928C161.409 140.891 167.048 135.437 169.199 134.989C170.587 134.703 171.753 134.812 174.6 132.663Z" fill="black"/>
<path d="M216.345 58.2369C216.229 58.2369 216.061 58.1966 215.891 58.1421C215.052 57.9929 213.216 57.7725 211.787 58.3743C210.051 59.1063 207.36 65.9552 207.518 72.9818C207.582 74.0573 207.649 75.0192 207.703 75.6896C208.141 80.9986 209.665 90.9605 209.748 91.0126C211.821 92.3463 224.322 87.1747 225.18 86.04C226.04 84.9052 226.547 71.1055 226.964 70.4161L227.786 58.4146C226.336 57.9858 218.568 58.2203 216.345 58.2369Z" fill="#CAFFDD"/>
<path d="M221.413 53.8163C221.413 53.8163 220.608 57.9787 220.769 59.6229C220.93 61.2646 220.155 66.557 216.68 66.576C213.205 66.5926 216.019 59.8479 216.348 58.237C216.675 56.6284 216.753 51.6463 216.753 51.6463L221.413 53.8163Z" fill="#F7A491"/>
<path d="M216.68 54.1456C216.734 52.7834 216.751 51.6463 216.751 51.6463L221.413 53.8187C221.413 53.8187 221.25 54.6692 221.084 55.7542C219.042 56.1617 217.563 55.4083 216.68 54.1456Z" fill="#F47458"/>
<path d="M223.116 42.3266C223.116 42.3266 224.912 43.3239 225.568 45.4821C226.225 47.6427 225.478 53.2147 220.837 54.5603C216.196 55.9059 214.188 51.4924 215.142 48.0407C216.099 44.5914 218.179 40.2229 223.116 42.3266Z" fill="#F7A491"/>
<path d="M214.565 46.7046C214.655 47.6308 215.167 48.3392 215.707 48.2871C216.247 48.235 216.61 47.4389 216.52 46.5127C216.43 45.5864 215.918 44.878 215.378 44.9301C214.838 44.9846 214.473 45.7783 214.565 46.7046Z" fill="#F7A491"/>
<path d="M222.572 42.0446C222.572 42.0446 223.413 48.2609 225.425 49.3839C227.434 50.5068 226.593 53.2643 226.593 53.2643C226.593 53.2643 228.417 46.8608 226.827 44.8045C225.237 42.7458 222.572 42.0446 222.572 42.0446Z" fill="#13375B"/>
<path d="M224.231 50.277C223.687 51.0873 223.689 52.042 224.236 52.4116C224.783 52.7811 225.669 52.421 226.214 51.6108C226.759 50.8006 226.757 49.8459 226.21 49.4763C225.662 49.1091 224.776 49.4668 224.231 50.277Z" fill="#F7A491"/>
<path d="M233.707 103.211C233.863 103.204 247.805 102.503 247.805 102.503C247.805 102.503 242.02 106.66 241.902 106.66C241.783 106.66 237.294 104.888 237.097 104.888C236.901 104.888 233.707 103.211 233.707 103.211Z" fill="#50BFA5"/>
<path d="M515.969 418.452C515.969 418.452 516.243 423.342 516.246 423.351C516.348 423.972 516.746 425.507 516.746 426.071C516.746 428.191 507.338 424.27 509.447 423.332C509.639 423.247 510.638 422.605 510.7 421.882C510.797 420.771 511.041 418.521 511.041 418.521L515.969 418.452Z" fill="#F7A491"/>
<path d="M509.357 423.259C509.357 423.259 511.565 423.908 512.697 424.069C513.83 424.23 515.32 422.865 516.12 423.235C517.002 423.64 516.966 427.295 516.966 427.295C516.966 427.295 505.123 428.335 501.792 427.26C500.471 426.831 504.841 424.768 509.357 423.259Z" fill="#256653"/>
<path d="M531.632 418.199C531.632 418.199 531.91 423.088 531.91 423.098C532.011 423.718 532.412 425.254 532.412 425.817C532.412 427.938 523.004 424.017 525.113 423.079C525.302 422.994 526.6 421.871 526.662 421.148C526.759 420.037 526.707 418.267 526.707 418.267L531.632 418.199Z" fill="#F7A491"/>
<path d="M525.135 422.962C525.135 422.962 527.343 423.612 528.475 423.773C529.605 423.934 531.098 422.569 531.898 422.939C532.78 423.344 532.815 426.999 532.815 426.999C532.815 426.999 521.055 427.483 517.57 426.964C516.199 426.76 520.619 424.474 525.135 422.962Z" fill="#256653"/>
<path d="M528.843 340.527C528.843 340.527 530.438 348.776 529.788 355.031C529.139 361.285 529.087 383.504 529.087 383.504L532.084 419.042L525.683 419.191C525.683 419.191 518.708 383.658 518.836 384.57C518.967 385.482 516.498 359.551 516.498 359.551L524.813 339.743L528.843 340.527Z" fill="#256653"/>
<path d="M526.612 335.202C526.612 335.202 533.836 342.809 531.149 351.117C530.071 354.455 520.005 386.34 519.875 388.946C519.744 391.552 516.47 420.357 516.47 420.357L509.631 420.151L508.15 388.124L510.105 344.972L514.258 337.694L526.612 335.202Z" fill="#2FB9AF"/>
<path d="M482.763 310.44C485.127 307.801 490.275 304.046 490.275 304.046C490.275 304.046 493.34 301.426 494.591 300.995C496.432 300.36 499.583 298.668 504.141 305.577C507.403 310.521 527.985 336.118 531.366 336.981L509.301 347.537C508.697 342.496 497.792 332.97 496.221 331.193C492.715 327.223 480.524 312.94 482.763 310.44Z" fill="#FB6B67"/>
<path d="M483.795 299.716L490.668 303.741C490.668 303.741 490.862 309.609 488.614 311.132C486.728 312.411 485.295 309.341 485.295 309.341C485.295 309.341 482.739 305.799 480.798 304.695C478.856 303.591 483.795 299.716 483.795 299.716Z" fill="#F7A491"/>
<path d="M484.946 302.298C484.688 303.523 484.089 305.292 483.162 306.749C482.404 305.93 481.554 305.127 480.796 304.695C479.9 304.186 480.469 303.087 481.343 302.049C482.577 300.765 483.793 299.716 483.793 299.716L485.115 300.488C485.2 300.99 485.034 301.891 484.946 302.298Z" fill="#F47458"/>
<path d="M480.212 289.631C480.328 289.489 485.978 296.52 485.281 299.82C484.585 303.12 481.169 306.129 478.795 305.302C476.17 304.387 471.288 296.108 473.038 292.087C474.789 288.067 480.212 289.631 480.212 289.631Z" fill="#F7A491"/>
<path d="M474.027 287.414C476.491 286.044 480.509 285.651 483.51 287.222C487.201 289.155 488.042 294.016 486.886 296.982C485.73 299.948 487.055 301.625 487.055 301.625L485.098 300.481C485.098 300.481 483.954 298.695 483.804 297.273C483.655 295.85 481.58 296.103 480.566 295.456C479.786 294.959 478.789 293.346 477.529 292.507C477.529 292.507 474.349 292.116 472.788 292.995C470.121 294.49 470.5 289.375 474.027 287.414Z" fill="#13375B"/>
<path d="M482.153 296.643C482.134 297.697 482.634 298.562 483.266 298.571C483.899 298.581 484.427 297.735 484.446 296.681C484.465 295.627 483.965 294.762 483.333 294.753C482.7 294.743 482.172 295.586 482.153 296.643Z" fill="#F7A491"/>
<path d="M468.852 346.736C469.6 345.642 469.927 344.062 470.965 342.856C471.313 342.451 471.868 341.996 472.498 341.541C477.482 338.625 490.465 331.108 490.969 330.525C491.569 329.833 500.429 315.112 500.429 315.112L492.471 313.309L484.694 327.042C484.044 327.559 471.699 336.682 471.699 336.682C471.699 336.682 469.245 338.601 467.902 339.499C467.224 339.894 466.566 340.15 465.99 340.352C465.265 340.603 463.886 341.292 463.607 341.536C463.282 341.823 462.633 342.432 462.247 342.804C461.861 343.176 461.394 343.597 461.212 343.818C461.103 343.953 460.761 344.137 460.51 344.263C460.136 344.45 460.186 345.002 460.586 345.116C460.965 345.222 461.475 344.985 461.792 344.836C462.685 344.417 463.777 343.282 463.834 343.422C463.891 343.562 462.782 345.99 462.673 346.277C462.564 346.563 461.292 349.394 461.226 350.024C461.159 350.655 461.541 350.802 461.823 350.569C462.067 350.37 464.114 346.592 464.114 346.592C464.114 346.592 464.377 346.111 464.478 346.386C464.58 346.66 462.728 350.098 462.548 350.662C462.368 351.226 462.51 351.688 463.033 351.491C463.668 351.252 465.419 347.461 465.419 347.461C465.419 347.461 465.646 346.99 465.803 347.153C465.959 347.317 464.334 350.214 464.315 350.548C464.296 350.882 464.599 351.211 465.038 350.932C465.554 350.602 467.089 347.208 467.089 347.208C467.089 347.208 467.279 346.983 467.338 347.141C467.397 347.3 466.189 349.868 466.279 350.242C466.355 350.557 466.639 350.494 466.639 350.494C467.272 350.491 468.103 347.831 468.852 346.736Z" fill="#F8A492"/>
<path d="M498.246 322.89C498.246 322.89 495.655 322.065 493.991 321.305C492.878 320.795 488.021 318.379 488.021 318.379C488.021 318.379 490.116 309.547 491.53 306.37C496.725 294.715 502.627 302.753 503.427 304.627C505.223 308.815 498.246 322.89 498.246 322.89Z" fill="#FB6B67"/>
<path d="M248.126 102.488C248.067 102.339 247.936 102.336 247.804 102.332C246.51 102.291 245.217 102.235 243.935 102.043C243.722 102.012 243.511 101.962 243.314 101.884C242.957 101.742 242.606 101.744 242.244 101.844C242.049 101.898 241.85 101.908 241.649 101.908C240.997 101.905 239.143 101.273 238.188 101.107C237.97 101.069 237.797 100.903 237.742 100.69C236.804 96.9801 234.793 88.6553 234.532 85.919C234.198 82.4199 231.782 66.6374 231.782 66.6374L225.314 68.4402C225.314 68.4402 227.977 80.0888 228.712 85.7366C229.28 90.098 233.639 99.3538 235.006 102.014C235.674 103.995 237.172 104.049 237.52 104.092C237.719 104.116 237.901 104.215 238.031 104.367C238.268 104.642 238.538 104.881 238.846 105.077C239.076 105.222 239.252 105.411 239.403 105.632C239.678 106.032 239.924 106.451 240.166 106.873C240.327 107.153 240.495 107.24 240.735 107.174C240.99 107.103 241.114 106.913 241.109 106.601C241.102 106.139 240.955 105.722 240.723 105.326C240.505 104.957 240.521 104.743 240.775 104.402C240.919 104.208 241.071 104.018 241.26 103.862C241.455 103.703 241.658 103.585 241.921 103.62C242.386 103.737 242.855 103.831 243.331 103.883L243.722 103.964C243.736 103.966 243.935 104.009 243.935 104.009C243.968 104.018 244.655 104.092 244.892 104.094C245.082 104.094 245.387 104.106 245.648 104.12C245.885 104.132 246.382 104.009 246.399 104.009C246.629 104.004 246.832 103.921 247.003 103.767C247.074 103.703 247.14 103.635 247.105 103.526C247.072 103.426 246.996 103.386 246.894 103.367C246.738 103.339 245.935 103.241 245.944 103.208C246.183 103.208 246.93 103.192 247.169 103.185C247.491 103.175 247.768 103.061 247.991 102.822C248.083 102.732 248.185 102.637 248.126 102.488Z" fill="#F7A491"/>
<path d="M227.864 58.3907C231.055 57.8103 233.689 72.0909 233.689 72.0909C233.689 72.0909 226.596 74.0714 224.779 73.0314C224.779 73.0314 222.716 63.8893 221.977 64.2091L227.864 58.3907Z" fill="#E1F3F1"/>
<path d="M150.682 315.091C150.893 314.484 147.951 313.996 147.792 313.385C147.636 312.774 151.509 312.724 151.646 312.186C151.902 311.196 147.401 311.978 147.489 311.514C147.576 311.049 152.179 310.014 151.682 309.22C151.184 308.427 147.022 310.791 146.897 310.253C146.771 309.713 150.964 308.401 150.891 307.218C150.85 306.586 144.006 310.372 143.213 310.028C142.419 309.685 144.066 306.714 143.435 306.271C142.803 305.83 140.99 312.31 140.552 312.527C140.116 312.743 130.87 318.021 127.579 318.86C127.179 317.758 126.317 316.271 125.964 315.228C124.118 316.543 122.747 317.202 120.842 318.398C122.223 321.857 124.187 325.645 125.149 326.078C128.077 327.4 139.401 318.009 141.663 316.401C143.926 314.792 145.222 315.313 146.75 314.806C148.282 314.3 150.471 315.695 150.682 315.091Z" fill="#F7A491"/>
<path d="M120.448 320.059C120.448 320.059 117.914 308.865 118.354 305.617C118.795 302.369 122.654 299.344 125.329 300.467C128.001 301.59 129.214 317.216 129.214 317.216L120.448 320.059Z" fill="#F7CC7F"/>
</svg>
