<svg width="66" height="81" viewBox="0 0 66 81" fill="none" xmlns="http://www.w3.org/2000/svg">
<path d="M33.0595 48.6117C31.4222 48.6117 29.8239 48.3778 28.2646 47.8711C26.2374 47.2083 24.4052 46.1948 22.8069 44.8304C21.2866 43.505 20.0392 41.9067 19.0646 40.1134C18.129 38.2813 17.5832 36.3711 17.3883 34.344C17.1934 32.2389 17.4273 30.1728 18.09 28.1457C18.7527 26.1186 19.7663 24.2864 21.1307 22.6881C22.4561 21.1677 24.0544 19.9203 25.8476 18.9457C27.6798 18.0101 29.59 17.4644 31.6171 17.2695C33.7222 17.0745 35.7883 17.3084 37.8154 17.9711C38.5171 18.205 38.9459 18.9847 38.712 19.6864C38.4781 20.3881 37.6984 20.8169 36.9967 20.583C35.3205 20.0372 33.6052 19.8423 31.89 19.9983C30.2137 20.1542 28.6154 20.622 27.0951 21.4016C25.5747 22.1813 24.2883 23.2338 23.1968 24.4813C22.0663 25.8067 21.2086 27.327 20.7019 28.9643C20.1561 30.6406 19.9612 32.3558 20.1171 34.0711C20.2731 35.7474 20.7408 37.3457 21.5205 38.866C22.3002 40.3863 23.3137 41.6728 24.6002 42.7643C25.9256 43.8948 27.4459 44.7524 29.0832 45.2592C30.7595 45.805 32.4747 45.9999 34.19 45.8439C35.8662 45.688 37.4645 45.2202 38.9849 44.4406C40.5052 43.6609 41.7916 42.6084 42.8832 41.3609C44.0137 40.0355 44.8713 38.5151 45.3781 36.8779C45.9238 35.2016 46.1187 33.4863 45.9628 31.7711C45.8848 31.0304 46.4306 30.3677 47.2103 30.2897C47.9509 30.2118 48.6136 30.7575 48.6916 31.5372C48.8865 33.6423 48.6526 35.7084 47.9899 37.7355C47.3272 39.7626 46.3136 41.5948 44.9492 43.1931C43.6238 44.7134 42.0255 45.9999 40.2323 46.9355C38.4001 47.871 36.451 48.4168 34.4628 48.6117C33.995 48.5727 33.5272 48.6117 33.0595 48.6117Z" fill="#23856D"/>
<path d="M33.0594 65.8422C30.2137 65.8422 27.9916 63.5812 26.0815 61.593C24.834 60.3066 23.6256 59.0591 22.4561 58.5914C21.2086 58.0846 19.3374 58.0846 17.5442 58.0846C14.6985 58.1236 11.7358 58.1236 9.78662 56.2134C7.83748 54.2642 7.87646 51.3405 7.91544 48.4558C7.91544 46.6626 7.95442 44.7914 7.40866 43.5439C6.94087 42.3744 5.69341 41.166 4.40698 39.9185C2.41885 37.9694 0.157837 35.7863 0.157837 32.9016C0.157837 30.0558 2.41885 27.8338 4.40698 25.9237C5.69341 24.6762 6.94087 23.4677 7.40866 22.2982C7.91544 21.0508 7.91544 19.1796 7.91544 17.3864C7.87646 14.5406 7.87646 11.5779 9.78662 9.62878C11.7358 7.67964 14.6595 7.71862 17.5442 7.7576C19.3374 7.7576 21.2086 7.79659 22.4561 7.25083C23.6256 6.78303 24.834 5.53558 26.0815 4.24914C28.0306 2.26101 30.2137 0 33.0984 0C35.9442 0 38.1662 2.26101 40.0764 4.24914C41.3238 5.53558 42.5323 6.78303 43.7018 7.25083C44.9492 7.7576 46.8204 7.7576 48.6136 7.7576C51.4594 7.71862 54.4221 7.71862 56.3712 9.62878C58.3204 11.5779 58.2814 14.5017 58.2424 17.3864C58.2424 19.1796 58.2034 21.0508 58.7492 22.2982C59.217 23.4677 60.4644 24.6762 61.7509 25.9237C63.739 27.8728 66 30.0558 66 32.9406C66 35.7863 63.739 38.0084 61.7509 39.9185C60.4644 41.166 59.217 42.3744 58.7492 43.5439C58.2424 44.7914 58.2424 46.6626 58.2424 48.4558C58.2814 51.3015 58.2814 54.2642 56.3712 56.2134C54.4221 58.1625 51.4984 58.1236 48.6136 58.0846C46.8204 58.0846 44.9492 58.0456 43.7018 58.5914C42.5323 59.0591 41.3238 60.3066 40.0764 61.593C38.1272 63.5422 35.9052 65.8422 33.0594 65.8422ZM18.4798 55.3168C20.234 55.3168 21.9883 55.3947 23.4696 56.0185C25.1459 56.7202 26.6272 58.2015 27.9916 59.6439C29.6289 61.3202 31.3442 63.0744 33.0204 63.0744C34.7357 63.0744 36.412 61.3202 38.0492 59.6439C39.4526 58.2015 40.895 56.7202 42.5713 56.0185C44.3255 55.2778 46.4696 55.3168 48.5356 55.3168C50.9526 55.3558 53.2136 55.3558 54.3441 54.2253C55.4746 53.0948 55.4356 50.8337 55.4356 48.4168C55.4356 46.3507 55.3966 44.2066 56.1373 42.4524C56.839 40.7761 58.3204 39.2948 59.7627 37.9304C61.439 36.2931 63.1932 34.5779 63.1932 32.9016C63.1932 31.1863 61.439 29.5101 59.7627 27.8728C58.3204 26.4694 56.839 25.027 56.1373 23.3508C55.3966 21.5965 55.4356 19.4525 55.4356 17.3864C55.4746 14.9694 55.4746 12.7084 54.3441 11.5779C53.2136 10.4474 50.9526 10.4864 48.5356 10.4864C46.4696 10.4864 44.3255 10.5254 42.5713 9.78472C40.895 9.08302 39.4136 7.60167 38.0492 6.1593C36.412 4.48304 34.7357 2.72881 33.0204 2.72881C31.3052 2.72881 29.6289 4.48304 27.9916 6.1593C26.5883 7.60167 25.1459 9.08302 23.4696 9.78472C21.7154 10.5254 19.5713 10.4864 17.5052 10.4864C15.0883 10.4474 12.8273 10.4474 11.6968 11.5779C10.5663 12.7084 10.6053 14.9694 10.6053 17.3864C10.6053 19.4525 10.6442 21.5965 9.90357 23.3508C9.20188 25.027 7.72053 26.5084 6.27816 27.8728C4.60189 29.5101 2.84766 31.1863 2.84766 32.9016C2.84766 34.6168 4.60189 36.2931 6.27816 37.9304C7.72053 39.3338 9.20188 40.7761 9.90357 42.4524C10.6442 44.2066 10.6053 46.3507 10.6053 48.4168C10.5663 50.8337 10.5663 53.0948 11.6968 54.2253C12.8273 55.3558 15.0883 55.3168 17.5052 55.3168H18.4798Z" fill="#23856D"/>
<path d="M47.4831 80.6947C47.2103 80.6947 46.8984 80.6167 46.6645 80.4998L33.2544 73.4049L19.8442 80.4998C19.2985 80.7726 18.6358 80.7726 18.129 80.4608C17.5832 80.1489 17.2714 79.5642 17.2714 78.9404V63.8151C17.2714 63.0744 17.8951 62.4507 18.6358 62.4507C19.3764 62.4507 20.0002 63.0744 20.0002 63.8151V77.3032L33.2544 70.2862L46.5086 77.3032V63.8151C46.5086 63.0744 47.1323 62.4507 47.873 62.4507C48.6136 62.4507 49.2374 63.0744 49.2374 63.8151V78.9404C49.2374 79.5642 48.9255 80.1099 48.3797 80.4608C48.1069 80.6167 47.795 80.6947 47.4831 80.6947ZM32.7866 38.3202L24.6002 30.1338C24.0544 29.5881 24.0544 28.7304 24.6002 28.2237C25.1459 27.6779 26.0035 27.6779 26.5103 28.2237L32.7476 34.4609L47.5611 19.6864C48.1069 19.1406 48.9645 19.1406 49.5102 19.6864C50.056 20.2322 50.056 21.0898 49.5102 21.5966L32.7866 38.3202Z" fill="#23856D"/>
</svg>
