<svg width="100" height="59" viewBox="0 0 100 59" fill="none" xmlns="http://www.w3.org/2000/svg">
<path d="M27.0834 50H18.75C18.1975 50 17.6676 49.7805 17.2769 49.3898C16.8862 48.9991 16.6667 48.4692 16.6667 47.9167C16.6667 47.3641 16.8862 46.8342 17.2769 46.4435C17.6676 46.0528 18.1975 45.8333 18.75 45.8333H27.0834C27.6359 45.8333 28.1658 46.0528 28.5565 46.4435C28.9472 46.8342 29.1667 47.3641 29.1667 47.9167C29.1667 48.4692 28.9472 48.9991 28.5565 49.3898C28.1658 49.7805 27.6359 50 27.0834 50ZM94.7917 50H89.5834C89.0308 50 88.5009 49.7805 88.1102 49.3898C87.7195 48.9991 87.5 48.4692 87.5 47.9167C87.5 47.3641 87.7195 46.8342 88.1102 46.4435C88.5009 46.0528 89.0308 45.8333 89.5834 45.8333H93.0625L95.8709 30.8667C95.8334 23.2083 89.2917 16.6667 81.25 16.6667H67.5709L60.9417 45.8333H72.9167C73.4692 45.8333 73.9991 46.0528 74.3898 46.4435C74.7805 46.8342 75 47.3641 75 47.9167C75 48.4692 74.7805 48.9991 74.3898 49.3898C73.9991 49.7805 73.4692 50 72.9167 50H58.3334C58.0207 50.0002 57.7121 49.93 57.4303 49.7946C57.1485 49.6593 56.9008 49.4622 56.7055 49.2181C56.5102 48.974 56.3724 48.6891 56.3022 48.3844C56.232 48.0798 56.2312 47.7633 56.3 47.4583L63.875 14.125C63.9791 13.6635 64.2371 13.2512 64.6067 12.9559C64.9762 12.6605 65.4353 12.4998 65.9084 12.5H81.25C91.5875 12.5 100 20.9125 100 31.25L96.8375 48.3C96.7489 48.7778 96.4958 49.2094 96.122 49.52C95.7483 49.8305 95.2776 50.0004 94.7917 50Z" fill="#659E38"/>
<path d="M81.25 58.3333C75.5083 58.3333 70.8333 53.6625 70.8333 47.9167C70.8333 42.1708 75.5083 37.5 81.25 37.5C86.9917 37.5 91.6667 42.1708 91.6667 47.9167C91.6667 53.6625 86.9917 58.3333 81.25 58.3333ZM81.25 41.6667C77.8042 41.6667 75 44.4708 75 47.9167C75 51.3625 77.8042 54.1667 81.25 54.1667C84.6958 54.1667 87.5 51.3625 87.5 47.9167C87.5 44.4708 84.6958 41.6667 81.25 41.6667ZM35.4167 58.3333C29.675 58.3333 25 53.6625 25 47.9167C25 42.1708 29.675 37.5 35.4167 37.5C41.1583 37.5 45.8333 42.1708 45.8333 47.9167C45.8333 53.6625 41.1583 58.3333 35.4167 58.3333ZM35.4167 41.6667C31.9708 41.6667 29.1667 44.4708 29.1667 47.9167C29.1667 51.3625 31.9708 54.1667 35.4167 54.1667C38.8625 54.1667 41.6667 51.3625 41.6667 47.9167C41.6667 44.4708 38.8625 41.6667 35.4167 41.6667ZM27.0833 12.5H10.4167C9.86413 12.5 9.33423 12.2805 8.94353 11.8898C8.55283 11.4991 8.33333 10.9692 8.33333 10.4167C8.33333 9.86414 8.55283 9.33424 8.94353 8.94354C9.33423 8.55284 9.86413 8.33334 10.4167 8.33334H27.0833C27.6359 8.33334 28.1658 8.55284 28.5565 8.94354C28.9472 9.33424 29.1667 9.86414 29.1667 10.4167C29.1667 10.9692 28.9472 11.4991 28.5565 11.8898C28.1658 12.2805 27.6359 12.5 27.0833 12.5ZM27.0833 25H6.25C5.69747 25 5.16756 24.7805 4.77686 24.3898C4.38616 23.9991 4.16667 23.4692 4.16667 22.9167C4.16667 22.3641 4.38616 21.8342 4.77686 21.4435C5.16756 21.0528 5.69747 20.8333 6.25 20.8333H27.0833C27.6359 20.8333 28.1658 21.0528 28.5565 21.4435C28.9472 21.8342 29.1667 22.3641 29.1667 22.9167C29.1667 23.4692 28.9472 23.9991 28.5565 24.3898C28.1658 24.7805 27.6359 25 27.0833 25ZM27.0833 37.5H2.08333C1.5308 37.5 1.0009 37.2805 0.610194 36.8898C0.219493 36.4991 0 35.9692 0 35.4167C0 34.8641 0.219493 34.3342 0.610194 33.9435C1.0009 33.5528 1.5308 33.3333 2.08333 33.3333H27.0833C27.6359 33.3333 28.1658 33.5528 28.5565 33.9435C28.9472 34.3342 29.1667 34.8641 29.1667 35.4167C29.1667 35.9692 28.9472 36.4991 28.5565 36.8898C28.1658 37.2805 27.6359 37.5 27.0833 37.5Z" fill="#659E38"/>
<path d="M58.3334 50H43.75C43.1975 50 42.6676 49.7805 42.2769 49.3898C41.8862 48.9991 41.6667 48.4692 41.6667 47.9167C41.6667 47.3641 41.8862 46.8342 42.2769 46.4435C42.6676 46.0528 43.1975 45.8333 43.75 45.8333H56.6709L66.1375 4.16667H18.75C18.1975 4.16667 17.6676 3.94717 17.2769 3.55647C16.8862 3.16577 16.6667 2.63587 16.6667 2.08333C16.6667 1.5308 16.8862 1.0009 17.2769 0.610195C17.6676 0.219494 18.1975 2.60623e-07 18.75 2.60623e-07H68.75C69.0626 -0.000156095 69.3713 0.0700416 69.6531 0.205392C69.9349 0.340742 70.1826 0.537776 70.3779 0.781886C70.5732 1.026 70.711 1.31093 70.7812 1.61556C70.8514 1.92019 70.8521 2.23671 70.7834 2.54167L60.3667 48.375C60.2626 48.8365 60.0046 49.2488 59.635 49.5441C59.2655 49.8395 58.8064 50.0002 58.3334 50Z" fill="#659E38"/>
</svg>
