<svg width="23" height="23" viewBox="0 0 23 23" fill="none" xmlns="http://www.w3.org/2000/svg">
<path d="M20.1457 8.41927C20.0881 8.24946 19.9819 8.10025 19.8404 7.99006C19.699 7.87987 19.5283 7.81353 19.3495 7.79922L14.1204 7.38371L11.8576 2.3747C11.7855 2.21337 11.6683 2.07634 11.5201 1.98016C11.3719 1.88397 11.199 1.83274 11.0223 1.83264C10.8456 1.83254 10.6726 1.88359 10.5243 1.97961C10.376 2.07563 10.2586 2.21253 10.1864 2.37378L7.92356 7.38371L2.69441 7.79922C2.51871 7.81314 2.35075 7.87738 2.21062 7.98425C2.07048 8.09113 1.9641 8.23612 1.9042 8.40187C1.84431 8.56762 1.83343 8.74712 1.87288 8.91889C1.91233 9.09066 2.00043 9.24743 2.12664 9.37044L5.99095 13.1375L4.62427 19.0555C4.58277 19.2347 4.59607 19.4221 4.66244 19.5936C4.72881 19.7651 4.8452 19.9127 4.99648 20.0172C5.14777 20.1217 5.32698 20.1783 5.51085 20.1797C5.69472 20.1811 5.87477 20.1272 6.02763 20.025L11.022 16.6955L16.0163 20.025C16.1726 20.1288 16.3568 20.1822 16.5443 20.1781C16.7318 20.1739 16.9135 20.1125 17.0651 20.002C17.2166 19.8916 17.3307 19.7373 17.392 19.5601C17.4532 19.3828 17.4587 19.1911 17.4078 19.0106L15.7301 13.1403L19.8907 9.39612C20.1631 9.15031 20.2631 8.7669 20.1457 8.41927Z" fill="#F3CD03"/>
</svg>
