<svg width="56" height="56" viewBox="0 0 56 56" fill="none" xmlns="http://www.w3.org/2000/svg">
<circle cx="28" cy="28" r="28" fill="#8BD0CA"/>
<path d="M29.4133 15C29.0383 14.6251 28.5296 14.4144 27.9993 14.4144C27.469 14.4144 26.9604 14.6251 26.5853 15L13.2913 28.292C13.1983 28.385 13.1246 28.4954 13.0743 28.6168C13.0239 28.7383 12.998 28.8685 12.998 29C12.998 29.1315 13.0239 29.2617 13.0743 29.3832C13.1246 29.5046 13.1983 29.615 13.2913 29.708C13.4791 29.8958 13.7338 30.0013 13.9993 30.0013C14.1308 30.0013 14.261 29.9754 14.3825 29.925C14.504 29.8747 14.6143 29.801 14.7073 29.708L27.9993 16.414L41.2913 29.708C41.4791 29.8958 41.7338 30.0013 41.9993 30.0013C42.2649 30.0013 42.5195 29.8958 42.7073 29.708C42.8951 29.5202 43.0006 29.2656 43.0006 29C43.0006 28.7345 42.8951 28.4798 42.7073 28.292L37.9993 23.586V17C37.9993 16.7348 37.894 16.4804 37.7064 16.2929C37.5189 16.1054 37.2645 16 36.9993 16H34.9993C34.7341 16 34.4797 16.1054 34.2922 16.2929C34.1047 16.4804 33.9993 16.7348 33.9993 17V19.586L29.4133 15Z" fill="white"/>
<path d="M28 18.586L40 30.586V39C40 39.7957 39.6839 40.5587 39.1213 41.1213C38.5587 41.6839 37.7956 42 37 42H19C18.2044 42 17.4413 41.6839 16.8787 41.1213C16.3161 40.5587 16 39.7957 16 39V30.586L28 18.586Z" fill="white"/>
<g clip-path="url(#clip0_370_8880)">
<path d="M39.7823 33.1535C38.6286 33.1521 37.486 33.3737 36.4198 33.8054C35.3537 34.2371 34.385 34.8706 33.5692 35.6695C32.7534 36.4683 32.1065 37.417 31.6657 38.461C31.2248 39.5051 30.9986 40.6241 31 41.7538C31 41.8366 31.0011 41.9186 31.0034 42H33.7503C33.7503 41.9789 33.7503 41.9579 33.7503 41.9368C33.7501 41.1361 33.911 40.3431 34.2238 39.6033C34.5366 38.8635 34.9952 38.1913 35.5734 37.6251C36.1515 37.0589 36.838 36.6098 37.5934 36.3035C38.3489 35.9971 39.1586 35.8396 39.9763 35.8398H40.0002V33.1562C39.9278 33.1545 39.855 33.1535 39.7823 33.1535Z" fill="#8BD0CA"/>
<path d="M33.362 32.2896L31.7869 30C29.8537 31.2358 28.2661 32.9246 27.1679 34.9133C26.0697 36.9019 25.4958 39.1275 25.4981 41.3883C25.4981 41.5932 25.5027 41.7971 25.5121 42H28.2565C28.2511 41.858 28.2483 41.7149 28.2483 41.5709C28.2462 39.7296 28.7126 37.9168 29.6055 36.2964C30.4983 34.6759 31.7893 33.2989 33.362 32.2896Z" fill="#8BD0CA"/>
<path d="M20.4334 37.0522C20.1445 38.3566 19.9992 39.6876 20 41.0224C20 41.3504 20.0087 41.6763 20.026 42H22.7698C22.7563 41.7369 22.7497 41.4716 22.75 41.204C22.7495 40.0366 22.878 38.8725 23.1331 37.7321L20.4334 37.0522Z" fill="#8BD0CA"/>
</g>
<defs>
<clipPath id="clip0_370_8880">
<rect width="20" height="12" fill="white" transform="translate(20 30)"/>
</clipPath>
</defs>
</svg>
