<svg width="32" height="33" viewBox="0 0 32 33" fill="none" xmlns="http://www.w3.org/2000/svg">
<g id="mdi:twitter">
<path id="Vector" d="M29.947 8.50001C28.9204 8.96668 27.8137 9.27334 26.667 9.42001C27.8404 8.71334 28.747 7.59334 29.1737 6.24668C28.067 6.91334 26.8404 7.38001 25.547 7.64668C24.4937 6.50001 23.0137 5.83334 21.3337 5.83334C18.2004 5.83334 15.6404 8.39334 15.6404 11.5533C15.6404 12.0067 15.6937 12.4467 15.787 12.86C11.0404 12.62 6.81371 10.34 4.00038 6.88668C3.50704 7.72668 3.22704 8.71334 3.22704 9.75334C3.22704 11.74 4.22704 13.5 5.77371 14.5C4.82704 14.5 3.94704 14.2333 3.17371 13.8333V13.8733C3.17371 16.6467 5.14704 18.9667 7.76038 19.4867C6.92135 19.7163 6.0405 19.7482 5.18704 19.58C5.54919 20.7167 6.25843 21.7112 7.21507 22.4239C8.17171 23.1366 9.32764 23.5316 10.5204 23.5533C8.49855 25.1539 5.99237 26.0191 3.41371 26.0067C2.96038 26.0067 2.50704 25.98 2.05371 25.9267C4.58704 27.5533 7.60038 28.5 10.827 28.5C21.3337 28.5 27.107 19.78 27.107 12.22C27.107 11.9667 27.107 11.7267 27.0937 11.4733C28.2137 10.6733 29.1737 9.66001 29.947 8.50001Z" fill="#00A99D"/>
</g>
</svg>
