<svg width="554" height="450" viewBox="0 0 554 450" fill="none" xmlns="http://www.w3.org/2000/svg">
<path opacity="0.4" d="M271.788 3.46799C127.174 14.628 43.8656 44.904 24.0426 130.86C4.21964 216.816 83.4996 229.092 98.7452 256.716C113.991 284.34 41.5769 273.6 14.1252 319.644C-13.3147 365.688 -13.3147 479.268 131.525 441.66C276.365 404.052 329.719 399.456 407.485 426.312C485.239 453.168 537.079 427.08 544.696 390.24C552.325 353.4 523.348 317.34 490.568 314.268C457.788 311.196 461.602 267.456 516.482 262.848C571.361 258.24 550.025 210.66 495.133 188.412C440.241 166.152 487.504 145.44 521.81 126.252C556.426 106.896 559.942 -18.792 271.788 3.46799Z" fill="#D1ECEA"/>
<path opacity="0.4" d="M272.372 56.22C162.196 64.728 98.7218 87.792 83.6311 153.276C68.5285 218.76 128.927 228.108 140.549 249.156C152.159 270.204 96.9935 262.02 76.0858 297.096C55.1781 332.172 55.1781 418.704 165.522 390.06C275.865 361.416 316.512 357.9 375.755 378.372C434.997 398.832 474.488 378.96 480.293 350.892C486.098 322.824 464.034 295.356 439.062 293.016C414.089 290.676 416.998 257.352 458.813 253.848C500.629 250.344 484.37 214.092 442.554 197.136C400.739 180.18 436.749 164.4 462.878 149.784C489.221 135.024 491.903 39.276 272.372 56.22Z" fill="#B1DDD9"/>
<path d="M388.496 306.168C388.496 306.168 372.488 298.14 365.419 283.488C358.351 268.836 361.617 254.124 361.617 254.124C361.617 254.124 362.403 263.328 370.199 268.224C377.995 273.108 379.318 263.724 371.808 255.66C364.311 247.608 360.723 240.492 362.618 234.48C364.513 228.468 372.643 217.476 372.643 217.476C372.643 217.476 373.429 231.54 378.781 236.064C384.134 240.6 393.789 235.752 388.866 231.336C383.943 226.908 379.02 215.772 378.972 210.216C378.925 204.648 393.515 189.684 393.515 189.684C393.515 189.684 392.048 200.664 395.624 205.92C399.2 211.176 407.699 211.152 405.697 206.04C403.694 200.928 398.843 185.652 401.608 179.844C404.374 174.036 409.034 168.924 409.034 168.924C409.034 168.924 410.954 183.036 414.434 183.876C417.915 184.716 416.878 172.668 415.853 167.34C414.828 162 431.563 150.552 432.481 149.616C433.399 148.68 441.636 160.38 442.077 167.196C442.518 174.012 429.489 182.424 430.657 186.18C431.825 189.936 445.498 174.036 445.498 174.036C445.498 174.036 454.187 187.692 452.411 195.132C450.635 202.572 431.778 207.492 430.633 212.304C429.489 217.116 444.389 212.388 451.339 207.36C451.339 207.36 459.277 222.228 454.259 229.8C449.241 237.372 430.574 234.72 426.616 239.772C422.659 244.824 427.379 251.976 437.821 249.648C448.251 247.308 454.14 239.952 454.14 239.952C454.14 239.952 454.319 258.492 446.094 265.068C437.869 271.632 424.268 260.256 419.929 265.92C415.59 271.584 429.787 276.624 442.041 272.412C442.041 272.412 441.552 278.304 429.287 287.364C417.009 296.4 388.496 306.168 388.496 306.168Z" fill="#429D88"/>
<path d="M420.668 190.452C420.668 190.452 395.994 262.692 379.198 327.324L384.562 328.62C384.55 328.62 417.581 216.156 420.668 190.452Z" fill="#429D88"/>
<path d="M406.471 313.332C406.471 313.332 397.806 299.376 399.248 284.544C400.69 269.712 410.226 259.824 410.226 259.824C410.226 259.824 406.471 267.384 410.226 274.944C413.981 282.504 419.476 275.82 417.45 265.932C415.423 256.044 416.007 248.772 420.334 244.992C424.673 241.212 436.224 236.556 436.224 236.556C436.224 236.556 430.156 247.896 432.183 254.004C434.209 260.112 444.031 260.988 442.291 255.168C440.563 249.348 442.005 238.296 444.604 233.94C447.202 229.572 465.69 224.928 465.69 224.928C465.69 224.928 459.337 232.776 459.623 238.596C459.909 244.416 466.56 248.484 467.418 243.54C468.289 238.596 471.757 224.352 476.668 221.148C481.579 217.944 487.647 216.204 487.647 216.204C487.647 216.204 482.449 228.132 484.762 230.46C487.074 232.788 491.985 222.9 493.714 218.244C495.442 213.588 513.93 212.724 515.086 212.424C516.243 212.136 517.113 225.216 514.216 230.748C511.332 236.268 497.171 236.568 496.301 240.06C495.43 243.552 513.632 237.732 513.632 237.732C513.632 237.732 513.918 252.564 509.007 257.508C504.096 262.452 487.051 257.22 483.88 260.412C480.697 263.616 494.572 267.096 502.368 266.52C502.368 266.52 501.498 281.928 493.988 285.42C486.478 288.912 473.188 277.86 467.704 279.9C462.221 281.94 462.507 289.788 471.745 292.992C480.995 296.196 489.077 293.28 489.077 293.28C489.077 293.28 480.411 307.824 470.875 308.988C461.339 310.152 456.142 294.732 450.075 297.06C444.008 299.388 452.673 310.152 464.236 312.768C464.236 312.768 461.053 317.136 447.19 318.288C433.339 319.44 406.471 313.332 406.471 313.332Z" fill="#3C8F7C"/>
<path d="M486.491 238.596C486.491 238.596 432.958 283.044 389.176 325.368L392.74 328.956C392.74 328.944 471.889 257.148 486.491 238.596Z" fill="#50BFA5"/>
<path d="M412.825 339.588C412.825 339.588 409.582 323.46 416.103 310.08C422.623 296.7 434.996 290.808 434.996 290.808C434.996 290.808 428.845 296.556 429.727 304.968C430.609 313.38 438.083 309.048 439.633 299.076C441.182 289.104 444.258 282.504 449.634 280.488C455.01 278.484 467.454 278.208 467.454 278.208C467.454 278.208 457.823 286.68 457.584 293.112C457.346 299.544 466.238 303.828 466.643 297.78C467.049 291.72 472.258 281.88 476.215 278.724C480.173 275.556 499.102 277.74 499.102 277.74C499.102 277.74 490.412 282.852 488.66 288.396C486.907 293.94 491.699 300.108 494.238 295.776C496.777 291.456 504.99 279.336 510.7 278.076C516.409 276.816 522.703 277.332 522.703 277.332C522.703 277.332 513.68 286.656 515.027 289.656C516.374 292.656 524.432 285.132 527.674 281.388C530.916 277.644 548.534 283.356 549.714 283.5C550.894 283.632 547.151 296.196 542.514 300.348C537.877 304.5 524.527 299.772 522.501 302.736C520.474 305.7 539.546 306.684 539.546 306.684C539.546 306.684 534.647 320.676 528.318 323.568C522 326.46 507.863 315.54 503.774 317.412C499.686 319.284 511.451 327.456 518.96 329.664C518.96 329.664 512.774 343.788 504.525 344.4C496.277 345.012 487.682 329.964 481.841 329.94C475.989 329.904 473.521 337.356 481.067 343.62C488.612 349.884 497.194 350.016 497.194 350.016C497.194 350.016 484.011 360.564 474.678 358.284C465.344 356.004 465.857 339.732 459.36 339.768C452.864 339.804 457.227 352.944 467.144 359.472C467.144 359.472 462.65 362.436 449.264 358.62C435.842 354.804 412.825 339.588 412.825 339.588Z" fill="#429D88"/>
<path d="M513.811 297.888C513.811 297.888 448.18 320.592 392.43 344.736L394.516 349.356C394.516 349.356 493.654 310.104 513.811 297.888Z" fill="#429D88"/>
<path d="M414.1 385.404C414.1 385.404 411.668 369.12 418.856 356.1C426.044 343.068 438.703 337.824 438.703 337.824C438.703 337.824 432.266 343.26 432.719 351.696C433.172 360.132 440.849 356.196 442.911 346.32C444.961 336.444 448.37 330 453.841 328.272C459.313 326.544 471.757 326.904 471.757 326.904C471.757 326.904 461.709 334.872 461.148 341.292C460.588 347.7 469.254 352.44 469.969 346.416C470.684 340.38 476.37 330.828 480.483 327.864C484.595 324.9 503.393 328.044 503.393 328.044C503.393 328.044 494.453 332.7 492.426 338.148C490.388 343.596 494.882 349.992 497.624 345.804C500.377 341.616 509.186 329.928 514.955 328.968C520.725 327.996 526.983 328.836 526.983 328.836C526.983 328.836 517.494 337.692 518.698 340.752C519.902 343.812 528.318 336.708 531.739 333.132C535.172 329.556 552.479 336.168 553.648 336.36C554.828 336.552 550.441 348.912 545.614 352.824C540.774 356.736 527.674 351.324 525.504 354.18C523.335 357.036 542.324 358.992 542.324 358.992C542.324 358.992 536.721 372.708 530.261 375.276C523.8 377.844 510.235 366.216 506.051 367.872C501.867 369.528 513.215 378.288 520.593 380.88C520.593 380.88 513.704 394.668 505.431 394.86C497.159 395.052 489.339 379.584 483.498 379.26C477.658 378.924 474.821 386.244 482.032 392.892C489.244 399.528 497.814 400.104 497.814 400.104C497.814 400.104 484.118 409.968 474.904 407.22C465.702 404.472 467.025 388.248 460.54 387.948C454.056 387.648 457.751 400.992 467.311 408.024C467.311 408.024 462.674 410.748 449.491 406.26C436.331 401.772 414.1 385.404 414.1 385.404Z" fill="#3C8F7C"/>
<path d="M517.065 348.9C517.065 348.9 450.385 368.22 393.479 389.496L395.326 394.212C395.326 394.224 496.324 360.072 517.065 348.9Z" fill="#50BFA5"/>
<path d="M160.002 397.476C159.99 397.488 159.978 397.5 159.954 397.5C159.346 397.896 158.536 397.704 158.143 397.092C107.816 317.364 89.5907 237.36 89.4119 236.556C89.2569 235.848 89.6979 235.14 90.4012 234.972C91.1045 234.816 91.8078 235.26 91.9627 235.968C92.1415 236.76 110.284 316.344 160.348 395.664C160.741 396.276 160.574 397.068 160.002 397.476Z" fill="#429D88"/>
<path d="M91.2952 238.8C91.2952 238.8 66.5016 216.264 78.8269 187.26C78.8269 187.26 103.036 206.4 91.2952 238.8Z" fill="#429D88"/>
<path d="M93.6084 247.716C93.6084 247.716 94.9792 214.104 125.006 205.116C125.006 205.116 125.864 236.1 93.6084 247.716Z" fill="#429D88"/>
<path d="M101.416 273.108C101.416 273.108 102.787 239.496 132.813 230.508C132.813 230.508 133.672 261.48 101.416 273.108Z" fill="#429D88"/>
<path d="M110.797 298.176C110.797 298.176 112.168 264.564 142.194 255.576C142.194 255.576 143.052 286.548 110.797 298.176Z" fill="#429D88"/>
<path d="M121.132 323.868C121.132 323.868 122.503 290.256 152.529 281.268C152.529 281.28 153.387 312.252 121.132 323.868Z" fill="#429D88"/>
<path d="M136.604 357.216C136.604 357.216 137.974 323.604 168.001 314.616C168.001 314.616 168.859 345.588 136.604 357.216Z" fill="#429D88"/>
<path d="M93.5246 247.74C93.5246 247.74 72.2951 221.772 42.96 232.836C42.96 232.836 60.84 258.06 93.5246 247.74Z" fill="#429D88"/>
<path d="M101.451 272.544C101.451 272.544 77.8138 248.784 49.6826 262.68C49.6826 262.668 69.9228 286.02 101.451 272.544Z" fill="#429D88"/>
<path d="M110.701 298.584C110.701 298.584 87.7667 274.128 59.2422 287.184C59.2541 287.184 78.791 311.124 110.701 298.584Z" fill="#429D88"/>
<path d="M121.203 323.88C121.203 323.88 95.9918 301.8 68.8857 317.616C68.8857 317.616 90.6636 339.516 121.203 323.88Z" fill="#429D88"/>
<path d="M137.474 357.18C137.474 357.18 110.689 337.068 84.835 354.876C84.835 354.876 108.186 375.072 137.474 357.18Z" fill="#429D88"/>
<path d="M140.489 391.896C140.477 391.896 140.453 391.896 140.441 391.896C139.714 391.872 139.154 391.248 139.177 390.528C142.897 296.136 173.161 219.912 173.471 219.156C173.745 218.484 174.508 218.16 175.176 218.424C175.843 218.7 176.177 219.468 175.903 220.14C175.605 220.896 145.507 296.712 141.8 390.624C141.764 391.344 141.192 391.896 140.489 391.896Z" fill="#3C8F7C"/>
<path d="M173.746 222.084C173.746 222.084 166.105 189.336 192.639 172.572C192.639 172.56 201.722 202.176 173.746 222.084Z" fill="#3C8F7C"/>
<path d="M170.611 230.736C170.611 230.736 190.744 203.892 220.508 213.72C220.508 213.708 203.689 239.664 170.611 230.736Z" fill="#3C8F7C"/>
<path d="M162.66 256.08C162.66 256.08 182.793 229.236 212.557 239.064C212.569 239.064 195.75 265.02 162.66 256.08Z" fill="#3C8F7C"/>
<path d="M156.199 282.072C156.199 282.072 176.332 255.228 206.096 265.056C206.108 265.044 189.289 291 156.199 282.072Z" fill="#3C8F7C"/>
<path d="M150.156 309.12C150.156 309.12 170.289 282.276 200.053 292.104C200.065 292.092 183.246 318.048 150.156 309.12Z" fill="#3C8F7C"/>
<path d="M144.029 345.396C144.029 345.396 164.162 318.552 193.926 328.38C193.926 328.38 177.119 354.336 144.029 345.396Z" fill="#3C8F7C"/>
<path d="M170.527 230.712C170.527 230.712 167.762 197.196 137.39 189.48C137.39 189.48 137.819 220.464 170.527 230.712Z" fill="#3C8F7C"/>
<path d="M163.018 255.636C163.018 255.636 157.022 222.552 126.042 217.848C126.042 217.848 129.475 248.652 163.018 255.636Z" fill="#3C8F7C"/>
<path d="M155.89 282.348C155.89 282.348 150.871 249.096 120.034 243.48C120.046 243.48 122.573 274.368 155.89 282.348Z" fill="#3C8F7C"/>
<path d="M150.215 309.168C150.215 309.168 141.978 276.576 110.748 274.032C110.748 274.032 116.267 304.512 150.215 309.168Z" fill="#3C8F7C"/>
<path d="M144.768 345.864C144.768 345.864 134.124 313.98 102.798 313.8C102.786 313.8 110.57 343.788 144.768 345.864Z" fill="#3C8F7C"/>
<path d="M171.803 394.428C171.791 394.44 171.779 394.452 171.768 394.464C171.267 394.992 170.432 395.016 169.908 394.512C101.892 329.436 64.9405 256.26 64.5829 255.528C64.2611 254.88 64.5233 254.088 65.167 253.752C65.8107 253.428 66.5974 253.692 66.9311 254.34C67.3007 255.072 104.05 327.852 171.72 392.592C172.232 393.084 172.256 393.888 171.803 394.428Z" fill="#3C8F7C"/>
<path d="M66.9428 257.244C66.9428 257.244 37.4527 241.428 42.4352 210.288C42.4472 210.288 70.5426 222.948 66.9428 257.244Z" fill="#3C8F7C"/>
<path d="M71.3412 265.332C71.3412 265.332 64.5707 232.392 91.5456 216.348C91.5456 216.348 99.83 246.18 71.3412 265.332Z" fill="#3C8F7C"/>
<path d="M85.0258 288.06C85.0258 288.06 78.2552 255.12 105.23 239.076C105.23 239.076 113.515 268.92 85.0258 288.06Z" fill="#3C8F7C"/>
<path d="M100.163 310.092C100.163 310.092 93.3929 277.152 120.368 261.108C120.368 261.096 128.652 290.94 100.163 310.092Z" fill="#3C8F7C"/>
<path d="M116.375 332.496C116.375 332.496 109.605 299.556 136.58 283.512C136.58 283.512 144.864 313.356 116.375 332.496Z" fill="#3C8F7C"/>
<path d="M139.416 361.068C139.416 361.068 132.646 328.128 159.621 312.084C159.621 312.084 167.905 341.928 139.416 361.068Z" fill="#3C8F7C"/>
<path d="M71.2698 265.368C71.2698 265.368 44.4259 245.352 18.6191 263.244C18.6191 263.244 42.0419 283.356 71.2698 265.368Z" fill="#3C8F7C"/>
<path d="M84.9301 287.496C84.9301 287.496 56.2744 270.204 32.3271 290.556C32.3271 290.556 57.5737 308.268 84.9301 287.496Z" fill="#3C8F7C"/>
<path d="M100.176 310.512C100.176 310.512 72.0331 292.38 47.5137 312C47.5018 312 72.2358 330.456 100.176 310.512Z" fill="#3C8F7C"/>
<path d="M116.447 332.496C116.447 332.496 86.6708 317.232 64.1777 339.18C64.1777 339.18 90.5805 355.104 116.447 332.496Z" fill="#3C8F7C"/>
<path d="M140.251 360.828C140.251 360.828 109.425 347.856 88.625 371.436C88.625 371.436 116.148 385.32 140.251 360.828Z" fill="#3C8F7C"/>
<path d="M137.592 109.548C139.356 115.02 141.549 119.556 146.747 121.38C148.034 121.836 149.381 121.644 150.692 121.212L152.814 120.516C155.079 119.784 157.498 121.02 158.237 123.288L163.411 139.368C164.138 141.636 162.898 144.072 160.633 144.816L153.684 147.084C152.552 147.456 151.3 147.336 150.251 146.748C145.018 143.772 129.057 133.392 122.93 114.324C116.792 95.244 123.681 77.424 126.197 71.928C126.709 70.836 127.639 70.008 128.783 69.636L135.733 67.368C137.997 66.636 140.417 67.872 141.156 70.14L146.329 86.22C147.057 88.488 145.817 90.924 143.552 91.668L141.43 92.364C140.119 92.784 138.915 93.42 138.14 94.56C134.982 99.108 135.84 104.076 137.592 109.548Z" fill="#3C8F7C"/>
<path d="M121.274 145.044L109.95 160.884C109.95 160.884 84.7987 144.576 83.857 113.208C83.1418 88.98 95.9081 76.068 101.725 71.46L97.7199 64.872H120.296L110.486 85.764L106.588 79.368C102.893 85.464 97.1955 97.632 99.6033 111.948C103.048 132.54 121.274 145.044 121.274 145.044Z" fill="#FCFCFC"/>
<path d="M161.778 80.712L173.102 64.872C173.102 64.872 198.254 81.18 199.195 112.548C199.91 136.776 187.144 149.688 181.327 154.296L185.332 160.884H162.756L172.566 139.992L176.464 146.388C180.159 140.292 185.857 128.124 183.449 113.808C180.004 93.228 161.778 80.712 161.778 80.712Z" fill="#FCFCFC"/>
<path d="M269.928 16.488H204.749C200.613 16.488 197.264 19.872 197.264 24.024V57.288C197.264 61.452 200.613 64.824 204.749 64.824H243.239L258.294 97.74V64.824H269.94C274.076 64.824 277.426 61.452 277.426 57.288V24.024C277.414 19.872 274.064 16.488 269.928 16.488Z" fill="#50BFA5"/>
<path d="M218.576 44.832C221.526 44.832 223.917 42.4251 223.917 39.456C223.917 36.4869 221.526 34.08 218.576 34.08C215.627 34.08 213.236 36.4869 213.236 39.456C213.236 42.4251 215.627 44.832 218.576 44.832Z" fill="white"/>
<path d="M237.338 44.832C240.287 44.832 242.678 42.4251 242.678 39.456C242.678 36.4869 240.287 34.08 237.338 34.08C234.389 34.08 231.998 36.4869 231.998 39.456C231.998 42.4251 234.389 44.832 237.338 44.832Z" fill="white"/>
<path d="M256.089 44.832C259.038 44.832 261.429 42.4251 261.429 39.456C261.429 36.4869 259.038 34.08 256.089 34.08C253.14 34.08 250.749 36.4869 250.749 39.456C250.749 42.4251 253.14 44.832 256.089 44.832Z" fill="white"/>
<path d="M381.69 38.976H448.347C452.578 38.976 456.011 42.444 456.011 46.692V80.712C456.011 84.972 452.59 88.428 448.347 88.428H408.999L371.582 122.088L393.61 88.428H381.702C377.47 88.428 374.038 84.984 374.038 80.712V46.68C374.026 42.432 377.459 38.976 381.69 38.976Z" fill="white"/>
<path d="M437.154 78.876H394.587C393.097 78.876 391.894 77.664 391.894 76.164V52.56C391.894 51.06 393.097 49.848 394.587 49.848H437.154C438.644 49.848 439.848 51.06 439.848 52.56V76.164C439.848 77.652 438.644 78.876 437.154 78.876Z" fill="#50BFA5"/>
<path d="M436.856 54.6L415.865 64.356L394.886 54.6" stroke="white" stroke-miterlimit="10"/>
<path d="M393.539 396.444H245.29V221.16C245.29 221.16 254.087 217.596 265.161 213.108C275.841 208.764 288.667 203.58 297.702 199.956C303.472 197.652 307.703 195.972 308.883 195.552L331.805 194.928L392.216 228.888L392.287 237.876L393.539 396.444Z" fill="#50BFA5"/>
<path opacity="0.3" d="M393.539 396.444H245.29V271.272C246.089 271.116 246.768 271.164 247.293 271.404C256.662 275.652 286.283 342.888 299.872 331.332C313.461 319.776 334.917 268.056 368.459 233.676C368.459 233.676 381.297 235.848 392.287 237.888L393.539 396.444Z" fill="#4A6C8F"/>
<path opacity="0.3" d="M290.491 324.72C294.329 347.292 293.626 377.772 292.481 396.444H262.979C260.262 355.656 259.082 261.12 265.173 213.108C275.853 208.764 288.679 203.58 297.714 199.956L297.881 200.244C293.244 210.624 284.662 290.256 290.491 324.72Z" fill="#4A6C8F"/>
<path d="M293.137 198.132C293.065 198.3 292.41 199.752 291.42 202.416C288.309 210.744 281.837 230.772 279.334 259.392C275.972 297.744 279.334 397.356 279.334 397.356H207.277C207.277 397.356 206.896 356.376 208.767 307.128C210.186 269.316 220.651 241.704 227.97 228.54C230.187 224.556 232.106 221.904 233.406 220.668C238.937 215.484 291.897 198.516 293.137 198.132Z" fill="#B8FFD6"/>
<path opacity="0.7" d="M293.137 198.132C293.066 198.3 292.41 199.752 291.421 202.416C277.784 207.384 239.855 223.74 227.971 228.54C230.188 224.556 232.107 221.904 233.406 220.668C238.937 215.484 291.898 198.516 293.137 198.132Z" fill="white"/>
<path d="M414.459 397.572H319.254C319.254 397.572 319.588 376.212 320.231 351.18C320.839 327.708 321.757 301.008 322.937 285.672C324.856 260.892 334.929 219.936 339.22 203.304C340.424 198.672 341.163 195.924 341.163 195.924C344.381 196.452 385.422 218.592 403.397 232.704C407.378 235.836 410.215 238.572 411.288 240.588C411.813 241.596 412.266 243.672 412.659 246.624V246.636C416.7 276.708 414.459 397.572 414.459 397.572Z" fill="#B8FFD6"/>
<path opacity="0.3" d="M414.459 397.572H319.254C319.254 397.572 319.576 377.1 320.184 352.728C330.018 351.936 356.909 359.184 362.857 317.172C368.46 277.74 387.818 245.22 412.54 245.736C412.587 246.012 412.611 246.3 412.659 246.6V246.612C416.7 276.708 414.459 397.572 414.459 397.572Z" fill="#4A6C8F"/>
<path opacity="0.7" d="M412.671 246.6C403.254 238.944 362.142 213.648 339.22 203.292C340.424 198.66 341.163 195.912 341.163 195.912C345.084 196.56 405.423 229.404 411.288 240.564C411.824 241.572 412.277 243.66 412.671 246.6Z" fill="white"/>
<path d="M331.805 275.784C323.103 311.136 327.144 399.036 327.144 399.036H313.162C313.162 399.036 310.051 335.22 319.384 279.84C323.533 255.204 328.646 237.048 332.151 223.968C332.151 223.956 332.163 223.932 332.163 223.908C335.834 210.156 337.705 202.056 334.785 197.976C334.725 197.904 334.666 197.82 334.606 197.748C334.213 197.232 333.712 196.788 333.14 196.416C332.985 196.308 332.818 196.2 332.639 196.116C322.4 190.476 304.21 196.056 304.21 196.056C304.21 196.056 300.42 197.592 296.283 205.656C293.506 211.08 290.562 219.432 288.512 232.248C283.231 265.26 285.782 399.552 285.782 399.552H270.417C270.417 399.552 272.3 253.524 277.736 226.752C281.3 209.16 286.151 199.836 293.744 193.956C296.522 191.82 299.657 190.116 303.233 188.652C304.532 188.1 305.891 187.608 307.321 187.116C315.332 183.756 336.656 180.888 344.047 193.8C344.333 194.304 344.607 194.82 344.845 195.36C351.378 210.072 340.495 240.42 331.805 275.784Z" fill="#50BFA5"/>
<path opacity="0.7" d="M303.245 188.652C283.934 204.468 277.629 225.216 276.127 272.928C274.661 319.848 275.268 375.108 271.085 399.552H270.417C270.417 399.552 272.3 253.524 277.736 226.752C281.3 209.16 286.151 199.836 293.744 193.956C296.534 191.808 299.669 190.116 303.245 188.652Z" fill="white"/>
<path opacity="0.7" d="M319.372 279.84C323.52 255.204 328.634 237.048 332.138 223.968C329.146 240.996 324.569 261.936 322.9 277.272C319.932 304.992 313.627 370.128 315.617 395.508C315.713 396.696 315.796 397.86 315.891 399.036H313.162C313.162 399.036 310.051 335.22 319.372 279.84Z" fill="white"/>
<path d="M334.594 197.748C334.201 197.232 333.7 196.788 333.128 196.416C333.593 195.792 333.855 195.444 333.855 195.444C334.189 196.02 334.427 196.8 334.594 197.748Z" fill="#4A6C8F"/>
<path opacity="0.3" d="M344.059 193.8C340.865 194.64 337.706 196.152 334.785 197.976C334.237 197.22 333.534 196.596 332.64 196.104C322.401 190.464 304.211 196.044 304.211 196.044C304.211 196.044 300.42 197.58 296.284 205.644C295.02 203.088 293.661 199.092 293.745 193.944C297.535 191.016 301.994 188.928 307.322 187.104C315.344 183.768 336.669 180.888 344.059 193.8Z" fill="#F9877C"/>
<path d="M334.798 144.36V198.648C334.798 198.648 327.228 211.44 314.748 214.128C302.268 216.816 297.154 207.84 297.154 207.84C297.154 207.84 297.941 199.116 298.728 190.248C299.538 181.284 300.373 172.188 300.492 171.732L334.44 144.648L334.798 144.36Z" fill="#F7A491"/>
<path d="M318.098 184.524C310.397 189.252 303.734 190.416 298.728 190.248C299.538 181.284 300.372 172.188 300.492 171.732L334.44 144.648C335.012 156.66 332.211 175.836 318.098 184.524Z" fill="#FFA7A6"/>
<path d="M309.193 397.236C309.193 398.82 244.181 397.644 227.41 397.308C225.92 397.272 224.799 397.26 224.155 397.248C223.738 397.236 223.512 397.236 223.512 397.236C223.512 397.236 225.312 388.884 228.22 385.956C231.152 383.004 250.201 368.796 253.574 368.34C256.935 367.884 289.906 372.408 289.906 372.408C289.906 372.408 293.029 371.724 296.617 370.98C296.808 370.944 297.034 370.908 297.249 370.872C301.778 369.948 306.821 369 307.178 369.252C307.166 369.24 309.193 395.436 309.193 397.236Z" fill="#F7A491"/>
<path d="M309.193 397.236C309.193 398.82 244.182 397.644 227.41 397.308C231.785 393.828 251.763 386.268 259.392 384.804C267.688 383.22 297.977 385.488 297.977 385.488C297.977 385.488 297.786 377.364 297.238 370.86C301.767 369.936 306.809 368.988 307.167 369.24C307.167 369.24 309.193 395.436 309.193 397.236Z" fill="#F9877C"/>
<path opacity="0.7" d="M289.894 372.408C289.894 372.408 293.017 371.724 296.605 370.98C295.545 372.3 293.53 374.712 293.029 374.88C292.362 375.108 259.403 371.052 256.03 371.952C252.668 372.864 235.611 382.8 231.796 387.312C229.71 389.784 226.611 393.768 224.144 397.26C223.726 397.248 223.5 397.248 223.5 397.248C223.5 397.248 225.3 388.896 228.208 385.968C231.141 383.016 250.189 368.808 253.562 368.352C256.924 367.872 289.894 372.408 289.894 372.408Z" fill="white"/>
<path d="M430.109 376.656C426.938 395.64 420.18 397.98 420.18 397.98H302.911L301.647 379.968L300.622 365.376L300.455 363.024L310.551 360.948L378.507 346.968C378.507 346.968 373.191 307.488 381.761 272.928C387.054 251.616 396.566 243.888 403.372 241.344C407.592 239.76 410.799 240.18 411.299 240.564C421.24 248.28 425.949 272.436 429.12 309.576C429.894 318.672 430.574 328.548 431.217 339.156C432.231 355.98 431.539 368.04 430.109 376.656Z" fill="#B8FFD6"/>
<path d="M314.044 397.98H302.911L300.455 363.012L310.551 360.936L314.044 397.98Z" fill="#50BFA5"/>
<path opacity="0.3" d="M420.18 397.98H302.911L301.647 379.968C325.714 378.78 384.885 377.28 386.756 377.52C389.033 377.808 379.926 360.876 380.212 358.02C380.486 355.224 402.789 372.72 404.076 373.74C402.932 372.576 384.885 354.216 388.473 352.56C392.168 350.832 411.3 364.812 417.724 361.944C421.658 360.168 427.201 334.68 429.096 309.576C429.871 318.672 430.55 328.548 431.194 339.156C434.484 393.048 420.18 397.98 420.18 397.98Z" fill="#4A6C8F"/>
<path opacity="0.7" d="M378.507 346.956L388.484 352.56C388.484 352.56 385.254 352.236 380.259 351.528C375.813 350.88 316.118 362.736 300.622 365.364L300.455 363.012L310.551 360.936L378.507 346.956Z" fill="white"/>
<path opacity="0.7" d="M430.11 376.656C430.61 336.696 421.146 253.8 410.597 244.428C408.701 242.748 406.222 241.74 403.373 241.344C407.593 239.76 410.799 240.18 411.3 240.564C421.241 248.28 425.95 272.436 429.12 309.576C429.895 318.672 430.575 328.548 431.218 339.156C432.231 355.98 431.54 368.04 430.11 376.656Z" fill="white"/>
<path d="M268.868 187.644C268.165 189.432 263.933 199.56 261.323 206.184C260.19 209.088 259.344 211.308 259.225 211.896C258.879 213.792 244.373 224.232 244.373 224.232L243.8 245.148L231.284 244.728L216.17 244.2L225.539 220.164C225.539 220.164 224.669 214.392 224.109 209.28C223.846 206.868 223.644 204.6 223.644 203.172C223.644 200.952 225.193 195.864 226.731 191.328C226.731 191.328 226.743 191.316 226.743 191.292C228.257 186.792 229.806 182.832 229.806 182.832C229.806 182.832 231.487 163.968 232.786 161.544C234.074 159.132 236.565 159.78 237.388 161.256C237.388 161.256 237.399 161.208 237.423 161.124C237.542 160.392 238.282 156.924 240.165 156.432C242.287 155.88 243.777 158.76 243.777 158.76C243.777 158.76 243.789 158.748 243.789 158.688C243.932 157.992 245.219 152.364 247.829 152.628C250.333 152.88 251.012 157.164 251.107 157.968C251.119 158.052 251.143 158.1 251.143 158.1C251.143 158.1 252.347 155.232 254.66 155.772C256.972 156.336 257.616 158.748 257.616 163.392C257.616 168.036 258.164 182.148 258.164 184.188C258.164 185.88 257.723 193.02 257.592 195.444C257.544 195.972 257.52 196.272 257.52 196.272C257.52 196.272 257.663 195.672 257.985 194.76C258.712 192.588 260.262 188.616 262.503 186.624C265.674 183.78 268.737 183.672 269.56 184.62C269.834 184.968 269.488 186.108 268.868 187.644Z" fill="#F7A491"/>
<path d="M261.323 206.184C260.19 209.088 259.344 211.308 259.225 211.896C258.879 213.792 244.373 224.232 244.373 224.232L243.8 245.148L231.284 244.728C232.19 236.7 233.132 224.016 233.132 224.016C233.132 224.016 228.34 224.184 225.527 220.188C225.527 220.188 224.657 214.416 224.097 209.304C226.028 211.692 228.138 212.556 230.092 213.672C233.394 215.532 238.007 213.276 238.007 213.276C238.007 213.276 241.571 215.664 242.358 215.664C243.145 215.664 255.267 211.02 259.094 207.984C259.761 207.42 260.536 206.82 261.323 206.184Z" fill="#F9877C"/>
<path opacity="0.7" d="M237.388 161.256C237.388 161.256 235.29 159.864 234.289 161.868C233.299 163.872 231.177 183.348 231.177 183.348C231.177 183.348 228.841 187.476 226.743 191.292C228.257 186.792 229.807 182.832 229.807 182.832C229.807 182.832 231.487 163.968 232.787 161.544C234.074 159.132 236.565 159.78 237.388 161.256Z" fill="white"/>
<path opacity="0.7" d="M243.764 158.748C243.764 158.748 242.906 157.488 240.57 157.848C238.508 158.16 237.614 160.536 237.423 161.112C237.542 160.38 238.281 156.912 240.164 156.42C242.286 155.88 243.764 158.748 243.764 158.748Z" fill="white"/>
<path opacity="0.7" d="M251.107 157.968C250.904 157.404 250.034 155.1 247.972 154.848C245.814 154.596 244.05 158.148 243.788 158.676C243.931 157.98 245.218 152.352 247.829 152.616C250.332 152.868 251 157.152 251.107 157.968Z" fill="white"/>
<path opacity="0.7" d="M258.141 184.188C258.141 185.88 257.7 193.02 257.568 195.444C257.425 195.696 257.342 195.828 257.342 195.828C257.342 195.828 257.473 161.304 255.661 158.592C253.849 155.856 251.144 158.112 251.144 158.112C251.144 158.112 252.347 155.244 254.66 155.784C256.972 156.348 257.616 158.76 257.616 163.404C257.592 168.036 258.141 182.148 258.141 184.188Z" fill="white"/>
<path opacity="0.7" d="M268.868 187.644C268.022 187.284 266.985 187.116 265.769 187.308C262.526 187.86 259.272 192.6 257.949 194.76C258.676 192.588 260.226 188.616 262.467 186.624C265.638 183.78 268.701 183.672 269.524 184.62C269.833 184.968 269.488 186.108 268.868 187.644Z" fill="white"/>
<path d="M237.208 205.476C237.208 205.476 245.409 198.912 253.395 198.24" stroke="#F9877C" stroke-miterlimit="10" stroke-linecap="round" stroke-linejoin="round"/>
<path d="M242.716 211.584C242.716 211.584 246.196 202.08 254.85 200.16L256.877 197.784" stroke="#F9877C" stroke-miterlimit="10" stroke-linecap="round" stroke-linejoin="round"/>
<path d="M232.035 186.348C232.035 186.348 243.276 185.784 253.837 185.328" stroke="#F9877C" stroke-miterlimit="10" stroke-linecap="round" stroke-linejoin="round"/>
<path d="M250.809 160.104L249.462 183.072" stroke="#F9877C" stroke-miterlimit="10" stroke-linecap="round" stroke-linejoin="round"/>
<path d="M243.848 161.796L242.608 183.072" stroke="#F9877C" stroke-miterlimit="10" stroke-linecap="round" stroke-linejoin="round"/>
<path d="M237.435 163.716L236.195 182.724" stroke="#F9877C" stroke-miterlimit="10" stroke-linecap="round" stroke-linejoin="round"/>
<path d="M247.96 236.376C247.96 236.376 247.853 239.472 247.698 244.68C247.066 265.2 245.528 318.36 245.528 343.044C245.528 373.98 239.866 390.684 217.636 392.712C201.079 394.236 195.047 384.696 192.723 369.984C192.425 368.208 192.198 366.336 192.008 364.404C191.662 360.876 191.459 357.108 191.328 353.208C190.661 333.624 207.229 265.644 212.903 242.976C214.083 238.296 214.787 235.548 214.787 235.548L220.699 235.68L235.969 236.064L247.96 236.376Z" fill="#B8FFD6"/>
<path d="M247.96 236.376C247.96 236.376 247.853 239.472 247.698 244.68L234.288 244.032L218.625 243.276L212.903 243C214.083 238.32 214.787 235.572 214.787 235.572L220.699 235.704L235.969 236.088L247.96 236.376Z" fill="#50BFA5"/>
<path opacity="0.3" d="M247.96 236.376C247.96 236.376 247.853 239.472 247.698 244.68C247.066 265.2 245.529 318.36 245.529 343.044C245.529 373.98 239.867 390.684 217.636 392.712C201.079 394.236 195.047 384.696 192.723 369.984C192.425 368.208 192.199 366.336 192.008 364.404C192.33 364.68 192.64 364.932 192.961 365.16C227.398 392.076 230.152 331.572 229.758 327.96C229.353 324.3 221.26 329.58 218.84 325.512C217.028 322.476 228.09 273.036 234.288 244.008C234.908 241.14 235.48 238.464 235.981 236.064L247.96 236.376Z" fill="#4A6C8F"/>
<path opacity="0.7" d="M220.711 235.716C220.198 237.588 219.483 240.132 218.625 243.276C211.735 268.584 195.298 331.464 192.961 365.184C192.842 366.864 192.747 368.484 192.723 369.996C192.425 368.22 192.198 366.348 192.008 364.416C191.662 360.888 191.459 357.12 191.328 353.22C190.661 333.636 207.229 265.656 212.903 242.988C214.083 238.308 214.787 235.56 214.787 235.56L220.711 235.716Z" fill="white"/>
<path d="M283.482 122.748H288.918V124.176C293.805 126.852 297.226 133.02 297.226 140.22C297.226 147.408 293.805 153.576 288.918 156.264V157.692H283.482C275.889 157.692 269.738 149.868 269.738 140.22C269.726 130.56 275.889 122.748 283.482 122.748Z" fill="#429D88"/>
<path d="M288.918 157.68C296.508 157.68 302.661 149.858 302.661 140.208C302.661 130.558 296.508 122.736 288.918 122.736C281.327 122.736 275.174 130.558 275.174 140.208C275.174 149.858 281.327 157.68 288.918 157.68Z" fill="#50BFA5"/>
<path d="M288.918 151.884C293.994 151.884 298.108 146.656 298.108 140.208C298.108 133.76 293.994 128.532 288.918 128.532C283.842 128.532 279.728 133.76 279.728 140.208C279.728 146.656 283.842 151.884 288.918 151.884Z" fill="#0E2E35"/>
<path d="M282.052 100.8C278.881 105.828 280.872 113.46 280.872 113.46L282.886 115.8L298.847 96.6L282.052 100.8Z" fill="#1E2425"/>
<path d="M338.111 121.344C337.659 139.104 335.894 173.736 307.012 177.732C306.166 177.852 305.355 177.924 304.569 177.996C297.822 178.464 292.97 176.784 289.478 173.652C279.322 164.64 280.729 143.592 281.205 128.676C281.563 117.204 284.197 107.772 290.682 101.688C295.045 97.584 301.136 94.98 309.492 94.26C311.077 94.128 312.746 94.044 314.498 94.044C322.163 94.056 338.553 103.596 338.111 121.344Z" fill="#F7A491"/>
<path d="M338.111 121.344C337.658 139.104 335.894 173.736 307.012 177.732C306.166 177.852 305.355 177.924 304.568 177.996C309.885 173.556 314.843 167.184 315.63 158.508C317.394 138.972 318.944 104.772 309.503 94.26C311.089 94.128 312.757 94.044 314.51 94.044C322.162 94.056 338.552 103.596 338.111 121.344Z" fill="#F9877C"/>
<path opacity="0.7" d="M286.677 160.524C287.738 166.068 288.679 170.364 289.478 173.652C279.322 164.64 280.729 143.592 281.205 128.676C281.563 117.204 284.197 107.772 290.682 101.688C284.102 120.828 284.114 147.096 286.677 160.524Z" fill="#FFA7A6"/>
<path d="M358.971 112.176C356.754 126.084 343.988 142.992 343.988 142.992L330.244 143.568L329.112 132.084C329.112 132.084 323.08 127.728 323.271 118.848C323.485 110.232 328.659 105.168 328.969 104.856C328.468 105.096 316.25 111.18 304.115 104.352C291.742 97.392 285.961 100.572 283.005 105.036C280.275 109.14 282.886 115.788 282.886 115.788C282.886 115.788 277.2 114.888 276.401 107.268C276.389 107.268 276.401 107.256 276.401 107.256C276.235 105.612 276.294 103.704 276.676 101.388C277.427 96.78 279.572 94.188 282.016 92.76C282.028 92.76 282.028 92.76 282.052 92.76C286.545 90.144 292.112 91.488 292.112 91.488C292.112 91.488 295.307 80.868 315.392 84.96C315.392 84.96 326.072 80.028 334.166 83.496C342.271 86.988 342.557 93.384 342.557 93.384C342.557 93.384 353.965 89.22 358.602 103.38C358.888 104.256 359.079 105.192 359.174 106.14C359.174 106.152 359.186 106.152 359.186 106.176C359.4 108.072 359.317 110.088 358.971 112.176Z" fill="#1E2425"/>
<path d="M358.971 112.176C356.754 126.084 343.988 142.992 343.988 142.992L330.244 143.568L329.112 132.084C329.112 132.084 323.08 127.728 323.271 118.848C323.485 110.232 328.659 105.168 328.969 104.856C328.468 105.096 316.25 111.18 304.115 104.352C291.742 97.392 285.961 100.572 283.005 105.036C280.275 109.14 282.886 115.788 282.886 115.788C282.886 115.788 277.2 114.888 276.401 107.268C277.593 109.044 279.071 108.24 280.323 104.748C282.779 97.836 284.9 94.524 291.564 95.34C298.036 96.144 304.747 101.532 305.176 101.868C305.009 101.52 302.149 95.988 298.251 93.312C298.251 93.312 309.038 94.512 313.794 100.5C318.55 106.488 316.906 95.628 311.875 92.208C311.875 92.208 320.827 89.46 328.146 96.36C335.25 103.068 343.296 96.48 343.761 96.096C343.404 96.444 337.062 102.732 338.576 113.016C339.804 121.5 353.262 120.54 358.971 112.176Z" fill="#1E2425"/>
<path d="M359.162 106.164C358.483 104.256 356.385 99.576 351.367 96.732C345.216 93.252 339.065 96.864 338.541 97.2L340.96 95.256C340.77 90.756 336.681 84.876 329.565 84.192C322.461 83.496 316.81 88.008 316.81 88.008C316.81 88.008 312.913 86.16 305.439 86.052C297.941 85.956 293.65 92.124 293.65 92.124L296.654 95.04C296.213 94.872 288.119 91.632 282.052 92.772C286.546 90.156 292.112 91.5 292.112 91.5C292.112 91.5 295.307 80.88 315.392 84.972C315.392 84.972 326.072 80.04 334.166 83.508C342.272 87 342.558 93.396 342.558 93.396C342.558 93.396 353.965 89.232 358.602 103.392C358.876 104.28 359.079 105.204 359.162 106.164Z" fill="white"/>
<path d="M346.515 123.276H336.586C336.586 123.276 329.184 88.692 306.738 83.52H314.486C321.912 83.52 329.422 87.492 334.345 94.26C338.72 100.284 343.368 109.464 346.515 123.276Z" fill="#50BFA5"/>
<path d="M307.692 164.94H312.317C313.544 164.94 314.534 163.944 314.534 162.708V161.52C314.534 160.284 313.544 159.288 312.317 159.288H307.692C306.464 159.288 305.475 160.284 305.475 161.52V162.708C305.475 163.944 306.464 164.94 307.692 164.94Z" fill="#0E2E35"/>
<path d="M334.941 156.564L330.948 160.848C329.386 162.528 327.205 163.476 324.916 163.476H312.507C311.828 163.476 311.268 162.912 311.268 162.228C311.268 161.544 311.828 160.98 312.507 160.98H324.916C326.513 160.98 328.039 160.32 329.136 159.144L333.129 154.86C333.594 154.356 334.38 154.332 334.881 154.8C335.382 155.268 335.406 156.06 334.941 156.564Z" fill="#0E2E35"/>
<path d="M338.541 122.748H343.976V124.176C348.863 126.852 352.284 133.02 352.284 140.22C352.284 147.408 348.863 153.576 343.976 156.264V157.692H338.541C330.948 157.692 324.797 149.868 324.797 140.22C324.797 130.56 330.948 122.748 338.541 122.748Z" fill="#429D88"/>
<path d="M343.988 157.68C351.578 157.68 357.732 149.858 357.732 140.208C357.732 130.558 351.578 122.736 343.988 122.736C336.397 122.736 330.244 130.558 330.244 140.208C330.244 149.858 336.397 157.68 343.988 157.68Z" fill="#50BFA5"/>
<path d="M343.988 151.884C349.064 151.884 353.179 146.656 353.179 140.208C353.179 133.76 349.064 128.532 343.988 128.532C338.913 128.532 334.798 133.76 334.798 140.208C334.798 146.656 338.913 151.884 343.988 151.884Z" fill="#0E2E35"/>
<path d="M275.126 399.336H131.752C129.07 399.336 126.9 397.152 126.9 394.452V391.86C126.9 389.16 129.07 386.976 131.752 386.976H275.114C277.796 386.976 279.965 389.16 279.965 391.86V394.452C279.977 397.152 277.808 399.336 275.126 399.336Z" fill="#DDDDDD"/>
<path d="M275.126 399.336H233.704C231.022 399.336 228.853 397.152 228.853 394.452V391.86C228.853 389.16 231.022 386.976 233.704 386.976H275.126C277.808 386.976 279.977 389.16 279.977 391.86V394.452C279.977 397.152 277.808 399.336 275.126 399.336Z" fill="#429D88"/>
<path d="M264.397 376.656H136.078C132.753 376.656 130.047 373.944 130.047 370.584V261.96C130.047 258.612 132.741 255.888 136.078 255.888H264.397C267.723 255.888 270.429 258.6 270.429 261.96V370.584C270.429 373.944 267.735 376.656 264.397 376.656Z" fill="#F5F5F5"/>
<path d="M263.802 263.568V368.964C263.802 369.684 263.694 370.392 263.515 371.04C262.61 374.28 259.665 376.644 256.173 376.644H131.06C126.841 376.644 123.432 373.212 123.432 368.964V263.568C123.432 260.868 124.814 258.492 126.912 257.112C128.104 256.332 129.523 255.876 131.06 255.876H256.173C260.381 255.888 263.802 259.332 263.802 263.568Z" fill="#DDDDDD"/>
<path opacity="0.3" d="M263.802 351.648V368.964C263.802 369.684 263.694 370.392 263.515 371.04C262.61 374.28 259.665 376.644 256.173 376.644H131.06C126.841 376.644 123.432 373.212 123.432 368.964V272.064C136.842 300.96 172.804 348.876 262.335 351.6C262.824 351.636 263.301 351.648 263.802 351.648Z" fill="#4A6C8F"/>
<path opacity="0.7" d="M263.802 263.568V368.964C263.802 369.684 263.694 370.392 263.516 371.04C263.218 367.716 262.812 360.636 262.324 351.6C260.869 324.408 258.902 279.528 258.306 266.16C258.199 263.952 256.447 262.212 254.278 262.116L126.9 257.1C128.092 256.32 129.511 255.864 131.049 255.864H256.161C260.381 255.888 263.802 259.332 263.802 263.568Z" fill="#B1BBC6"/>
<path d="M217.087 394.992V399.336H168.107V392.064C168.107 390.72 168.608 389.424 169.55 388.476C180.766 377.172 182.09 352.332 182.101 341.532C182.101 338.664 184.402 336.348 187.251 336.348H199.231C202.068 336.348 204.38 338.664 204.38 341.52C204.368 352.764 202.938 379.248 190.374 389.82H211.913C214.786 389.808 217.087 392.136 217.087 394.992Z" fill="#B1BBC6"/>
<path d="M183.043 394.152V392.064C183.043 390.72 183.544 389.424 184.486 388.476C195.702 377.172 197.014 352.308 197.037 341.52C197.037 338.664 194.725 336.348 191.888 336.348H179.896C177.048 336.348 174.747 338.664 174.747 341.532C174.735 352.332 173.412 377.172 162.195 388.464C161.254 389.412 160.753 390.708 160.753 392.052V394.14C160.753 397.008 163.053 399.324 165.902 399.324H177.882C180.731 399.336 183.043 397.008 183.043 394.152Z" fill="#DDDDDD"/>
<path d="M493.047 409.692H71.7824C69.2196 409.692 67.1455 407.604 67.1455 405.024V402.54C67.1455 399.96 69.2196 397.872 71.7824 397.872H493.047C495.61 397.872 497.684 399.96 497.684 402.54V405.024C497.672 407.604 495.598 409.692 493.047 409.692Z" fill="#50BFA5"/>
<path d="M493.047 409.692H308.764C306.201 409.692 304.127 407.604 304.127 405.024V402.54C304.127 399.96 306.201 397.872 308.764 397.872H493.035C495.598 397.872 497.672 399.96 497.672 402.54V405.024C497.672 407.604 495.598 409.692 493.047 409.692Z" fill="#429D88"/>
<path d="M425.914 365.892H416.223L413.564 385.968H425.902C430.109 385.968 433.53 382.536 433.53 378.288V373.584C433.542 369.336 430.121 365.892 425.914 365.892ZM428.905 377.34C428.905 379.896 426.855 381.96 424.328 381.96H416.914L418.511 369.9H424.316C426.831 369.9 428.894 371.964 428.894 374.52V377.34H428.905Z" fill="#50BFA5"/>
<path d="M422.85 362.076C422.564 369.432 421.038 386.868 413.362 397.872H376.529C373.597 393.66 371.57 388.5 370.164 383.34C366.802 371.04 366.969 358.632 366.969 358.632H422.934C422.922 358.632 422.934 359.916 422.85 362.076Z" fill="white"/>
<path opacity="0.3" d="M422.85 362.076C422.564 369.432 421.039 386.868 413.362 397.872H376.529C373.597 393.66 371.571 388.5 370.164 383.34C394.648 392.736 416.473 374.688 422.85 362.076Z" fill="#FDE4DE"/>
<path d="M484.703 307.452L482.271 307.104C481.496 306.996 480.96 306.276 481.067 305.496L483.01 291.708C483.118 290.928 483.833 290.388 484.608 290.496L487.039 290.844C487.814 290.952 488.35 291.672 488.243 292.452L486.3 306.24C486.193 307.02 485.466 307.56 484.703 307.452Z" fill="#DDDDDD"/>
<path d="M474.714 389.952L468.992 389.136C467.895 388.98 467.133 387.948 467.288 386.844L478.981 304.08C479.136 302.976 480.161 302.208 481.258 302.364L486.979 303.18C488.076 303.336 488.839 304.368 488.684 305.472L476.99 388.236C476.835 389.34 475.81 390.108 474.714 389.952Z" fill="#B8FFD6"/>
<path d="M490.961 306.348C491.998 306.492 492.713 307.464 492.57 308.508L489.364 331.164L487.254 330.864L490.127 310.572L488.005 310.272L488.601 306.012L490.961 306.348Z" fill="#DDDDDD"/>
<path d="M463.812 303.45L454.189 380.969L464.291 382.24L473.913 304.721L463.812 303.45Z" fill="#3C8F7C"/>
<path d="M473.915 304.728L463.807 303.456L464.784 295.584C464.951 294.264 466.155 293.316 467.466 293.484L472.794 294.156C474.106 294.324 475.047 295.536 474.88 296.856L473.915 304.728Z" fill="#DDDDDD"/>
<path d="M464.216 300.151L462.94 310.427L473.042 311.698L474.317 301.422L464.216 300.151Z" fill="#50BFA5"/>
<path d="M464.227 300.147L463.969 302.231L474.07 303.502L474.329 301.418L464.227 300.147Z" fill="#B1BBC6"/>
<path opacity="0.3" d="M471.449 301.056L461.417 381.873L464.303 382.236L474.335 301.419L471.449 301.056Z" fill="#4A6C8F"/>
<path opacity="0.7" d="M464.233 300.149L454.201 380.966L456.685 381.279L466.717 300.462L464.233 300.149Z" fill="white"/>
<path d="M459.421 305.736L456.965 305.94C456.191 306.012 455.499 305.424 455.44 304.644L454.272 290.772C454.2 289.992 454.784 289.296 455.559 289.236L458.014 289.032C458.789 288.96 459.481 289.548 459.54 290.328L460.708 304.2C460.78 304.98 460.196 305.664 459.421 305.736Z" fill="#B8FFD6"/>
<path d="M468.051 388.392L462.294 388.884C461.185 388.98 460.208 388.152 460.124 387.036L453.103 303.744C453.008 302.628 453.83 301.644 454.939 301.56L460.696 301.068C461.805 300.972 462.782 301.8 462.866 302.916L469.887 386.208C469.982 387.312 469.159 388.296 468.051 388.392Z" fill="white"/>
<path d="M465.273 303.24C466.322 303.156 467.228 303.924 467.324 304.98L469.243 327.78L467.121 327.96L465.404 307.548L463.271 307.728L462.913 303.444L465.273 303.24Z" fill="#B8FFD6"/>
<path d="M448.264 305.515L438.138 306.555L446.014 384.269L456.141 383.229L448.264 305.515Z" fill="#3C8F7C"/>
<path d="M448.299 305.508L438.167 306.552L437.368 298.656C437.237 297.324 438.191 296.136 439.514 296.004L444.866 295.452C446.189 295.32 447.369 296.28 447.5 297.612L448.299 305.508Z" fill="#DDDDDD"/>
<path d="M447.938 302.209L437.812 303.249L438.856 313.551L448.982 312.511L447.938 302.209Z" fill="#50BFA5"/>
<path d="M447.968 302.176L437.841 303.218L438.053 305.307L448.18 304.265L447.968 302.176Z" fill="#B1BBC6"/>
<path opacity="0.3" d="M447.938 302.211L445.045 302.508L453.256 383.529L456.15 383.231L447.938 302.211Z" fill="#4A6C8F"/>
<path opacity="0.7" d="M440.31 302.987L437.819 303.243L446.031 384.263L448.521 384.007L440.31 302.987Z" fill="white"/>
<path d="M485.323 337.968L484.476 348.96L480.722 397.98H444.056L442.876 382.62L440.277 348.96L439.431 337.968H485.323Z" fill="#DDDDDD"/>
<path d="M485.323 337.968L484.476 348.96H440.277L439.431 337.968H485.323Z" fill="#50BFA5"/>
<path opacity="0.3" d="M485.323 337.968L484.477 348.96L480.722 397.98H444.056L442.876 382.62C469.446 382.584 478.922 350.172 481.544 337.968H485.323Z" fill="#4A6C8F"/>
</svg>
