<svg width="32" height="33" viewBox="0 0 32 33" fill="none" xmlns="http://www.w3.org/2000/svg">
<g id="ri:instagram-fill">
<path id="Vector" d="M16.0003 3.16666C19.623 3.16666 20.075 3.17999 21.4963 3.24666C22.9163 3.31332 23.883 3.53599 24.7337 3.86666C25.6137 4.20532 26.355 4.66399 27.0963 5.40399C27.7743 6.07052 28.2989 6.87677 28.6337 7.76666C28.963 8.61599 29.187 9.58399 29.2537 11.004C29.3163 12.4253 29.3337 12.8773 29.3337 16.5C29.3337 20.1227 29.3203 20.5747 29.2537 21.996C29.187 23.416 28.963 24.3827 28.6337 25.2333C28.2999 26.1237 27.7752 26.9301 27.0963 27.596C26.4296 28.2737 25.6234 28.7983 24.7337 29.1333C23.8843 29.4627 22.9163 29.6867 21.4963 29.7533C20.075 29.816 19.623 29.8333 16.0003 29.8333C12.3777 29.8333 11.9257 29.82 10.5043 29.7533C9.08432 29.6867 8.11766 29.4627 7.26699 29.1333C6.37676 28.7993 5.57036 28.2746 4.90433 27.596C4.2262 26.9296 3.70157 26.1233 3.36699 25.2333C3.03633 24.384 2.81366 23.416 2.74699 21.996C2.68433 20.5747 2.66699 20.1227 2.66699 16.5C2.66699 12.8773 2.68033 12.4253 2.74699 11.004C2.81366 9.58266 3.03633 8.61732 3.36699 7.76666C3.70064 6.87623 4.2254 6.06975 4.90433 5.40399C5.57055 4.72563 6.3769 4.20096 7.26699 3.86666C8.11766 3.53599 9.08299 3.31332 10.5043 3.24666C11.9257 3.18399 12.3777 3.16666 16.0003 3.16666ZM16.0003 9.83332C14.2322 9.83332 12.5365 10.5357 11.2863 11.7859C10.036 13.0362 9.33366 14.7319 9.33366 16.5C9.33366 18.2681 10.036 19.9638 11.2863 21.214C12.5365 22.4643 14.2322 23.1667 16.0003 23.1667C17.7684 23.1667 19.4641 22.4643 20.7144 21.214C21.9646 19.9638 22.667 18.2681 22.667 16.5C22.667 14.7319 21.9646 13.0362 20.7144 11.7859C19.4641 10.5357 17.7684 9.83332 16.0003 9.83332ZM24.667 9.49999C24.667 9.05796 24.4914 8.63404 24.1788 8.32148C23.8663 8.00892 23.4424 7.83332 23.0003 7.83332C22.5583 7.83332 22.1344 8.00892 21.8218 8.32148C21.5093 8.63404 21.3337 9.05796 21.3337 9.49999C21.3337 9.94202 21.5093 10.3659 21.8218 10.6785C22.1344 10.9911 22.5583 11.1667 23.0003 11.1667C23.4424 11.1667 23.8663 10.9911 24.1788 10.6785C24.4914 10.3659 24.667 9.94202 24.667 9.49999ZM16.0003 12.5C17.0612 12.5 18.0786 12.9214 18.8288 13.6716C19.5789 14.4217 20.0003 15.4391 20.0003 16.5C20.0003 17.5609 19.5789 18.5783 18.8288 19.3284C18.0786 20.0786 17.0612 20.5 16.0003 20.5C14.9395 20.5 13.922 20.0786 13.1719 19.3284C12.4218 18.5783 12.0003 17.5609 12.0003 16.5C12.0003 15.4391 12.4218 14.4217 13.1719 13.6716C13.922 12.9214 14.9395 12.5 16.0003 12.5Z" fill="#00A99D"/>
</g>
</svg>
