<svg width="32" height="33" viewBox="0 0 32 33" fill="none" xmlns="http://www.w3.org/2000/svg">
<g id="ri:whatsapp-fill">
<path id="Vector" d="M2.67234 29.8333L4.47501 23.2093C3.28719 21.1731 2.66314 18.8573 2.66701 16.5C2.66701 9.13599 8.63634 3.16666 16.0003 3.16666C23.3643 3.16666 29.3337 9.13599 29.3337 16.5C29.3337 23.864 23.3643 29.8333 16.0003 29.8333C13.644 29.8371 11.3292 29.2135 9.29368 28.0267L2.67234 29.8333ZM11.1883 10.244C11.0162 10.2547 10.8479 10.3 10.6937 10.3773C10.549 10.4592 10.417 10.5616 10.3017 10.6813C10.1417 10.832 10.051 10.9627 9.95368 11.0893C9.46089 11.7306 9.19582 12.5179 9.20034 13.3267C9.20301 13.98 9.37368 14.616 9.64034 15.2107C10.1857 16.4133 11.083 17.6867 12.2683 18.8667C12.5537 19.1507 12.8323 19.436 13.1323 19.7013C14.6035 20.9966 16.3567 21.9307 18.2523 22.4293L19.011 22.5453C19.2577 22.5587 19.5043 22.54 19.7523 22.528C20.1407 22.5079 20.5198 22.4028 20.863 22.22C21.0376 22.1301 21.208 22.0322 21.3737 21.9267C21.3737 21.9267 21.431 21.8893 21.5403 21.8067C21.7203 21.6733 21.831 21.5787 21.9803 21.4227C22.091 21.308 22.187 21.1733 22.2603 21.02C22.3643 20.8027 22.4683 20.388 22.511 20.0427C22.543 19.7787 22.5337 19.6347 22.5297 19.5453C22.5243 19.4027 22.4057 19.2547 22.2763 19.192L21.5003 18.844C21.5003 18.844 20.3403 18.3387 19.6323 18.016C19.5577 17.9834 19.4777 17.9649 19.3963 17.9613C19.3051 17.952 19.2129 17.9622 19.126 17.9914C19.0391 18.0206 18.9594 18.0681 18.8923 18.1307V18.128C18.8857 18.128 18.7963 18.204 17.8323 19.372C17.777 19.4463 17.7008 19.5025 17.6134 19.5334C17.526 19.5643 17.4314 19.5684 17.3417 19.5453C17.2548 19.5221 17.1697 19.4927 17.087 19.4573C16.9217 19.388 16.8643 19.3613 16.751 19.312L16.7443 19.3093C15.9816 18.9763 15.2753 18.5265 14.651 17.976C14.483 17.8293 14.327 17.6693 14.167 17.5147C13.6424 17.0123 13.1853 16.444 12.807 15.824L12.7283 15.6973C12.6718 15.6122 12.6262 15.5204 12.5923 15.424C12.5417 15.228 12.6737 15.0707 12.6737 15.0707C12.6737 15.0707 12.9977 14.716 13.1483 14.524C13.2738 14.3644 13.3908 14.1984 13.499 14.0267C13.6563 13.7733 13.7057 13.5133 13.623 13.312C13.2497 12.4 12.863 11.492 12.4657 10.5907C12.387 10.412 12.1537 10.284 11.9417 10.2587C11.8697 10.2507 11.7977 10.2427 11.7257 10.2373C11.5466 10.2284 11.3672 10.2315 11.1883 10.244Z" fill="#00A99D"/>
</g>
</svg>
