<svg width="568" height="389" viewBox="0 0 568 389" fill="none" xmlns="http://www.w3.org/2000/svg">
<path opacity="0.4" d="M76.0769 203.672C76.0769 203.672 20.4809 200.156 13.4729 280.388C6.46494 360.62 55.5209 394.208 119.997 365.132H487.233C487.233 365.132 527.409 358.616 540.969 321.512C554.517 284.408 531.153 271.868 531.153 271.868C531.153 271.868 548.913 268.856 552.645 247.292C556.377 225.728 539.097 211.688 539.097 211.688C539.097 211.688 579.273 179.096 563.397 135.968C547.509 92.8396 498.453 109.388 498.453 109.388C498.453 109.388 497.517 81.3075 475.557 70.2795C453.597 59.2515 437.241 86.8275 437.241 86.8275C437.241 86.8275 437.241 -6.94046 356.409 1.08754C275.577 9.11554 277.449 82.3155 277.449 82.3155C277.449 82.3155 264.369 62.7555 239.601 70.2795C214.833 77.8036 210.633 108.896 210.633 108.896C210.633 108.896 172.785 66.2715 125.601 103.376C78.4169 140.48 104.109 195.14 104.109 195.14C104.109 195.14 89.1569 186.62 76.0769 203.672Z" fill="#8BD0CA"/>
<path opacity="0.4" d="M127.077 244.627C127.077 244.627 84.7292 241.951 79.4012 303.055C74.0612 364.159 111.429 389.743 160.533 367.591H440.193C440.193 367.591 470.793 362.623 481.113 334.363C491.433 306.103 473.637 296.563 473.637 296.563C473.637 296.563 487.161 294.271 490.005 277.855C492.849 261.439 479.685 250.747 479.685 250.747C479.685 250.747 510.285 225.931 498.189 193.087C486.093 160.243 448.725 172.843 448.725 172.843C448.725 172.843 448.017 151.459 431.289 143.059C414.561 134.659 402.117 155.659 402.117 155.659C402.117 155.659 402.117 84.2475 340.557 90.3555C278.997 96.4635 280.425 152.215 280.425 152.215C280.425 152.215 270.465 137.323 251.601 143.047C232.737 148.771 229.545 172.447 229.545 172.447C229.545 172.447 200.721 139.987 164.781 168.247C128.841 196.507 148.413 238.123 148.413 238.123C148.413 238.123 137.037 231.643 127.077 244.627Z" fill="#8BD0CA"/>
<path d="M215.313 240.752C202.821 236.972 197.289 264.116 192.249 266.516C187.209 268.916 196.113 251.828 190.353 247.76C184.593 243.692 176.313 249.26 175.365 266.528C174.417 283.796 165.141 291.08 161.109 277.316C157.089 263.54 145.605 270.956 146.361 283.604C147.117 296.252 155.637 305.78 150.693 309.836C145.749 313.88 140.109 298.88 132.993 296.108C125.877 293.336 121.077 312.716 124.125 319.376C127.173 326.036 143.829 331.556 142.221 337.832C140.613 344.108 132.549 340.4 126.213 333.932C119.865 327.464 116.253 337.172 119.889 348.104C123.525 359.036 137.373 365.492 146.193 363.632C155.025 361.784 160.917 366.176 163.509 372.644C166.101 379.112 199.665 373.904 202.125 365.036C204.573 356.168 190.221 361.556 184.617 360.236C179.025 358.916 183.153 352.376 186.933 351.044C190.713 349.712 214.161 346.88 218.361 339.56C222.561 332.252 223.425 322.7 219.609 319.736C215.793 316.76 199.629 325.124 193.317 324.836C187.005 324.548 203.589 313.964 211.065 311.528C218.529 309.092 225.153 292.364 224.721 287.096C224.301 281.828 213.825 296.912 204.321 294.716C194.805 292.52 217.953 280.988 220.989 276.392C224.025 271.796 224.949 261.476 222.369 258.764C219.777 256.052 210.573 270.068 205.821 269.9C201.045 269.744 228.129 244.616 215.313 240.752Z" fill="#FCFCFC"/>
<path d="M58.4968 268.988C67.7128 263.18 78.1888 283.796 82.7848 284.6C87.3808 285.416 76.4128 273.644 80.1448 269.084C83.8768 264.524 91.7728 267.176 96.3808 280.868C100.989 294.56 110.061 298.364 110.241 286.376C110.421 274.4 121.305 277.82 123.501 288.164C125.697 298.508 120.969 308.072 125.841 310.232C130.725 312.392 131.925 299.06 137.037 295.256C142.149 291.44 150.321 305.972 149.337 312.008C148.365 318.044 136.185 326.18 138.873 330.872C141.561 335.564 147.225 330.788 150.897 324.176C154.569 317.564 159.633 324.572 159.129 334.172C158.637 343.772 148.917 352.04 141.405 352.508C133.893 352.976 130.125 357.824 129.477 363.596C128.829 369.38 100.653 372.644 96.7168 366.044C92.7808 359.456 105.525 360.596 109.737 358.292C113.949 355.988 109.173 351.644 105.825 351.416C102.489 351.188 82.9888 354.104 77.9848 349.16C72.9808 344.204 70.1728 336.716 72.5848 333.476C74.9968 330.236 89.8648 333.38 94.8808 331.748C99.8968 330.116 84.2008 325.28 77.6488 324.98C71.0968 324.68 62.0608 312.692 61.2328 308.348C60.4048 304.016 72.1768 313.82 79.3408 309.956C86.5048 306.08 65.3248 301.94 61.8568 298.916C58.3888 295.892 55.3528 287.792 56.8408 285.032C58.3168 282.272 68.8408 291.512 72.6328 290.324C76.4248 289.136 49.0408 274.952 58.4968 268.988Z" fill="#FCFCFC"/>
<path d="M137.685 212.852C126.081 214.148 131.073 238.424 127.773 242.168C124.473 245.912 125.793 228.728 119.613 227.396C113.445 226.076 108.597 233.564 113.877 248.108C119.169 262.652 114.093 271.916 105.945 261.992C97.7848 252.068 90.9568 262.208 96.0328 272.348C101.097 282.488 111.465 287.336 108.813 292.4C106.161 297.464 96.2488 287.108 89.4208 287.336C82.5928 287.552 85.4488 305.192 90.2968 309.596C95.1448 314 110.793 312.68 111.681 318.416C112.557 324.152 104.625 323.924 97.1368 320.84C89.6488 317.756 90.0808 327.008 96.9208 334.724C103.749 342.439 117.417 342.884 124.029 338.252C130.641 333.62 137.037 335.168 141.441 339.572C145.845 343.976 171.633 327.896 170.529 319.736C169.425 311.576 159.513 321.056 154.437 321.944C149.373 322.82 150.465 315.992 153.117 313.568C155.757 311.144 174.057 300.56 174.933 293.072C175.809 285.584 173.169 277.424 168.981 276.32C164.793 275.216 154.437 287.78 149.145 289.76C143.853 291.74 153.777 277.196 159.057 272.564C164.349 267.932 163.905 251.852 161.697 247.664C159.489 243.476 156.189 259.568 147.597 261.104C139.005 262.652 153.993 245.012 154.869 240.164C155.745 235.316 152.889 226.496 149.805 225.176C146.721 223.856 144.069 238.616 140.109 240.164C136.149 241.724 149.589 211.532 137.685 212.852Z" fill="#3C8F7C"/>
<path d="M135.261 232.028C135.261 232.028 115.257 307.136 138.477 384.824L145.773 383.204C145.785 383.216 121.485 307.136 135.261 232.028Z" fill="#50BFA5"/>
<path d="M262.389 300.775C256.341 293.335 241.809 307.58 237.753 306.956C233.697 306.344 246.153 299.612 244.317 294.764C242.493 289.916 235.161 289.904 227.469 300.02C219.777 310.136 211.137 310.748 214.365 300.716C217.581 290.684 207.549 290.468 202.809 298.472C198.069 306.476 199.317 315.776 194.649 316.208C189.981 316.64 192.717 305.192 189.525 300.572C186.333 295.952 175.437 305.768 174.549 311.072C173.661 316.376 181.533 326.588 177.969 329.744C174.405 332.9 171.033 327.32 169.833 320.78C168.633 314.24 162.441 318.656 160.149 326.804C157.857 334.952 163.629 344.576 169.761 347.084C175.893 349.592 177.669 354.692 176.589 359.684C175.509 364.688 198.069 375.332 203.205 370.952C208.341 366.572 197.397 363.932 194.529 360.824C191.673 357.716 196.869 355.436 199.725 356.192C202.569 356.936 218.001 364.868 223.569 362.144C229.137 359.42 233.589 353.972 232.485 350.588C231.381 347.204 218.109 345.644 214.389 342.872C210.669 340.1 225.117 340.484 230.661 342.08C236.205 343.676 247.113 336.223 249.021 332.84C250.929 329.455 238.353 334.328 233.469 329.084C228.585 323.84 247.413 326.348 251.157 324.8C254.901 323.252 259.701 317.36 259.245 314.636C258.789 311.924 247.425 316.652 244.593 314.6C241.785 312.536 268.593 308.395 262.389 300.775Z" fill="#3C8F7C"/>
<path d="M248.085 307.628C248.085 307.628 187.365 327.2 144.057 377.756L148.413 382.076C148.413 382.064 190.125 331.484 248.085 307.628Z" fill="#50BFA5"/>
<path d="M120.165 373.568C120.165 373.568 102.741 348.44 89.9009 346.844C77.0609 345.248 84.5009 351.8 81.5849 353.12C78.6689 354.428 67.8689 343.34 56.4809 343.484C45.0929 343.628 52.1009 348.596 50.7929 350.636C49.4849 352.676 39.1169 348.596 33.5729 353.552C28.0289 358.508 35.1809 358.808 34.7369 361.136C34.2929 363.464 22.9169 366.824 23.0609 376.46C23.2049 386.096 40.2809 373.4 44.2169 371.792C48.1529 370.184 45.6809 374.132 47.2769 376.604C48.8849 379.088 58.8089 371.492 63.1889 368.72C67.5689 365.948 68.0009 366.536 66.2489 370.328C64.4969 374.12 70.0409 375.284 79.9649 371.636C89.8889 367.988 84.0569 370.616 83.9009 373.676C83.7449 376.736 117.309 371.984 120.165 373.568Z" fill="#FCFCFC"/>
<path d="M34.2686 369.944C34.2686 369.944 84.0686 347.659 126.141 383.131L130.233 380.408C130.245 380.408 85.6526 343.172 34.2686 369.944Z" fill="#50BFA5"/>
<path d="M128.468 370.903C128.468 370.903 115.856 331.303 99.8125 324.079C83.7685 316.867 90.8125 328.363 86.4925 328.915C82.1725 329.455 72.5725 310.735 57.7285 306.367C42.8845 302.011 50.0005 311.251 47.4805 313.387C44.9605 315.511 33.1285 306.067 23.9365 310.303C14.7445 314.539 23.9245 317.768 22.4245 320.636C20.9245 323.492 4.79646 323.311 1.13646 335.875C-2.52354 348.451 24.7405 338.768 30.5005 338.264C36.2605 337.748 31.4605 341.875 32.5645 345.739C33.6565 349.603 49.5805 343.711 56.3845 341.851C63.1765 340.003 63.5125 340.928 59.7205 345.164C55.9285 349.4 62.6725 353.131 77.0245 352.351C91.3765 351.571 82.7365 352.651 81.3325 356.575C79.8925 360.511 125.384 367.711 128.468 370.903Z" fill="#3C8F7C"/>
<path d="M18.3086 331.892C18.3086 331.892 91.9286 322.832 132.417 385.736L138.825 383.828C138.825 383.828 95.7686 317.636 18.3086 331.892Z" fill="#50BFA5"/>
<path d="M465.5 371.564H406.952C406.952 371.564 409.46 364.988 416.348 360.92C423.236 356.852 444.836 360.608 444.836 360.608C444.836 360.608 431.372 348.716 422.612 346.52C413.852 344.324 403.52 350.276 402.572 350.588C401.636 350.9 406.952 336.812 421.976 333.368C437 329.924 456.728 344.948 456.728 344.948C456.728 344.948 450.152 325.856 441.08 318.968C432.008 312.08 411.968 323.348 411.968 323.348C411.968 323.348 428.252 298.304 445.148 300.812C462.056 303.32 470.504 331.808 470.504 331.808C470.504 331.808 471.752 303.32 467.06 293.924C462.368 284.528 440.132 291.104 439.196 291.416C438.26 291.728 462.368 274.196 475.82 277.952C489.284 281.708 488.66 317.396 488.66 317.396C488.66 317.396 496.172 287.336 509.324 280.136C522.476 272.936 543.14 277.628 543.14 277.628C543.14 277.628 527.492 282.008 521.852 286.076C516.212 290.144 496.808 320.828 496.808 320.828C496.808 320.828 515.276 300.164 530.936 301.1C546.584 302.036 556.604 325.208 556.604 325.208C556.604 325.208 547.52 313.94 537.824 313.316C528.116 312.692 505.58 327.092 505.58 327.092C505.58 327.092 529.064 322.4 539.072 329.912C549.092 337.424 549.404 368.108 549.404 368.108C549.404 368.108 538.448 343.688 525.92 340.868C513.392 338.048 493.988 346.508 493.988 346.508C493.988 346.508 515.588 344.312 527.168 354.956C538.748 365.6 537.188 388.772 537.188 388.772C537.188 388.772 523.724 370.616 511.52 364.664C499.316 358.712 483.032 363.728 483.032 363.728C483.032 363.728 502.124 365.288 509.324 370.616C516.524 375.944 517.376 384.848 517.376 384.848L465.5 371.564Z" fill="#FCFCFC"/>
<path d="M426.356 218.648C421.16 222.416 424.16 231.596 424.436 240.764C424.712 249.932 420.128 245.24 415.388 237.944C410.648 230.66 398.672 239.72 411.884 251.348C425.096 262.976 415.496 260.912 408.932 254.072C402.368 247.232 391.676 256.604 406.124 266.084C420.584 275.564 415.172 284.768 407.168 275.288C399.164 265.808 390.224 276.284 397.94 283.304C405.656 290.324 414.824 287.084 416.348 290.888C417.872 294.692 407.804 298.028 397.664 293.492C387.524 288.956 384.824 308.072 403.616 309.08C422.408 310.1 416.276 321.464 408.656 318.572C401.036 315.68 389.192 311.72 390.032 322.856C390.872 333.98 407.78 330.536 415.664 330.464C423.536 330.392 412.196 342.836 400.82 340.184C389.444 337.532 384.272 350.48 397.592 356.312C410.9 362.132 421.916 348.26 426.776 349.232C431.636 350.204 422.708 360.68 414.8 361.52C406.892 362.36 394.052 367.268 403.292 378.092C412.532 388.916 433.22 371.816 439.796 362.276C446.372 352.736 461.624 361.736 472.712 352.244C483.8 342.752 479.144 330.188 470.396 332.792C461.648 335.408 452.636 344.468 448.52 341.072C444.404 337.676 449.948 331.328 461.696 324.704C473.444 318.08 469.568 305.54 463.34 306.32C457.112 307.1 449.456 321.116 442.796 323.036C436.136 324.956 437.576 314.96 447.2 309.8C456.824 304.64 460.868 293.96 455.288 291.68C449.708 289.388 443.06 300.476 438.464 305.708C433.868 310.94 428.408 302.336 435.704 297.344C443 292.352 452.792 286.292 449.708 279.716C446.612 273.14 438.644 285.212 433.112 288.08C427.58 290.948 429.824 279.944 440.024 276.74C450.212 273.536 452.924 267.068 450.464 264.128C448.004 261.188 438.62 268.124 433.916 269.48C429.212 270.836 430.4 262.64 439.04 259.544C446.048 257.024 452.204 248.84 447.8 245.948C443.396 243.056 439.832 246.872 435.668 250.7C431.516 254.528 433.58 246.956 436.04 240.968C442.604 224.912 435.128 212.3 426.356 218.648Z" fill="#50BFA5"/>
<path d="M526.173 238.424C519.765 238.16 516.429 247.22 510.969 254.588C505.509 261.956 504.813 255.428 505.617 246.776C506.409 238.124 491.397 237.812 494.565 255.128C497.733 272.444 491.481 264.872 490.569 255.44C489.657 246.008 475.449 246.728 480.921 263.132C486.393 279.536 476.457 283.412 476.049 271.004C475.641 258.596 462.129 261.296 463.845 271.58C465.549 281.876 474.753 284.996 473.601 288.932C472.437 292.856 462.465 289.244 457.317 279.404C452.169 269.564 438.201 282.896 452.325 295.328C466.449 307.772 454.593 312.884 450.393 305.9C446.193 298.904 439.353 288.464 433.125 297.728C426.897 306.992 442.305 314.756 448.533 319.58C454.761 324.404 438.141 327.152 430.857 318.02C423.573 308.888 411.489 315.86 418.329 328.676C425.169 341.492 442.413 337.424 445.629 341.192C448.845 344.972 435.345 347.66 428.613 343.424C421.881 339.188 408.765 335.084 409.317 349.304C409.869 363.524 436.701 362.912 447.777 359.504C458.853 356.084 465.249 372.596 479.829 372.02C494.409 371.444 498.549 358.688 490.065 355.316C481.581 351.944 468.897 353.48 467.757 348.26C466.617 343.04 474.909 341.492 488.241 343.568C501.573 345.644 506.289 333.392 500.925 330.152C495.549 326.912 480.861 333.164 474.441 330.548C468.021 327.932 475.353 320.972 486.105 322.88C496.857 324.788 506.649 318.92 503.673 313.664C500.709 308.408 488.625 312.992 481.773 314.252C474.921 315.512 475.965 305.372 484.785 305.972C493.605 306.572 505.041 307.88 506.697 300.8C508.341 293.72 494.613 298.256 488.493 297.092C482.373 295.916 490.953 288.668 500.937 292.472C510.921 296.276 517.065 292.868 516.945 289.04C516.837 285.212 505.173 284.84 500.637 282.992C496.101 281.144 502.113 275.444 510.813 278.36C517.881 280.724 527.781 278.108 526.113 273.116C524.445 268.124 519.285 268.904 513.645 269.336C508.005 269.768 514.329 265.1 519.957 261.92C535.065 253.412 536.997 238.868 526.173 238.424Z" fill="#3C8F7C"/>
<path d="M346.316 199.003C338.204 209.851 321.872 219.775 301.532 225.235C266.204 234.703 223.748 218.107 206.528 199.975C201.656 194.839 198.8 189.583 198.716 184.759C198.68 182.971 198.824 181.339 199.1 179.791C202.172 162.595 223.004 160.891 223.004 160.891C223.004 160.891 216.92 139.027 233.924 134.575C250.928 130.123 262.664 114.739 263.072 93.2834L272.192 94.1715L306.056 97.4715L308.816 97.7355C308.816 97.7355 306.788 145.087 320.54 147.115C334.304 149.143 331.076 161.287 331.076 161.287C343.592 166.567 349.964 173.395 351.5 180.715C352.784 186.679 350.804 192.991 346.316 199.003Z" fill="#202425"/>
<path d="M263.072 93.2715L272.192 94.1595C271.88 95.1075 271.616 96.0795 271.46 97.1115C268.436 116.143 259.364 133.207 238.4 137.311C217.436 141.415 225.368 162.295 225.368 162.295C212.924 165.283 204.452 172.555 199.112 179.767C202.184 162.571 223.016 160.867 223.016 160.867C223.016 160.867 216.932 139.003 233.936 134.551C250.928 130.111 262.676 114.727 263.072 93.2715Z" fill="white"/>
<path d="M351.512 180.703C343.076 168.871 327.032 164.119 327.032 164.119C327.032 164.119 329.408 155.263 318.824 149.863C308.24 144.463 309.296 148.135 308.012 110.095C307.832 105.163 307.16 100.975 306.068 97.4595L308.828 97.7235C308.828 97.7235 306.8 145.075 320.552 147.103C334.316 149.131 331.088 161.275 331.088 161.275C343.592 166.555 349.964 173.383 351.512 180.703Z" fill="white"/>
<path d="M346.316 199.003C338.204 209.851 321.872 219.775 301.532 225.235C266.204 234.703 223.748 218.107 206.528 199.975C212.996 191.623 221.324 174.655 240.98 169.747C271.244 162.187 253.364 131.575 272.972 125.383C292.556 119.179 308.228 139.555 309.68 160.831C310.916 178.699 340.232 180.835 346.316 199.003Z" fill="#002523" fill-opacity="0.05"/>
<path d="M394.365 316.231C391.917 322.747 370.725 328.867 370.725 328.867L365.985 319.604L324.225 237.896L326.025 205.76L326.865 191L327.069 187.364C327.069 187.364 342.153 192.26 347.445 200C350.817 204.908 369.825 247.856 382.617 280.196C389.961 298.771 395.265 313.855 394.365 316.231Z" fill="#B8FFD6"/>
<path opacity="0.7" d="M382.629 280.196C368.289 250.508 346.881 201.284 340.629 197.132C338.301 195.572 333.225 193.388 326.877 191L327.081 187.364C327.081 187.364 342.165 192.26 347.457 200C350.829 204.908 369.837 247.856 382.629 280.196Z" fill="white"/>
<path opacity="0.3" d="M365.996 319.604L324.236 237.896L326.036 205.76C332.828 212.312 341.792 221.9 345.188 227.288C350.48 235.712 344.96 258.332 344.96 261.236C344.96 264.116 354.104 262.916 363.008 275.672C370.448 286.352 369.464 308.66 365.996 319.604Z" fill="#F7A491"/>
<path d="M349.101 376.472H197.061C197.061 376.472 234.153 297.812 234.561 295.364C234.897 293.384 226.665 224.072 223.905 198.08C223.629 195.404 223.413 193.208 223.257 191.564C223.077 189.524 223.017 188.372 223.077 188.348C223.761 188.12 265.101 171.715 277.977 172.459C286.137 172.951 313.605 182.54 323.493 186.068C324.597 186.464 325.485 186.788 326.097 187.016C326.205 187.052 326.301 187.087 326.397 187.123C326.829 187.28 327.081 187.364 327.081 187.364C327.081 187.364 327.609 188.948 328.461 191.588C331.377 200.708 338.109 222.379 340.077 233.839C340.077 233.875 340.089 233.912 340.089 233.948C340.281 235.124 340.437 236.168 340.521 237.092C340.833 240.308 339.909 244.099 338.337 247.975C333.777 259.315 323.805 271.316 323.805 271.316L338.709 333.272L349.101 376.472Z" fill="#B8FFD6"/>
<path opacity="0.3" d="M338.348 247.987C333.788 259.315 323.816 271.328 323.816 271.328C323.816 271.328 258.644 304.699 245.516 322.339C235.688 335.563 211.676 362.971 199.652 376.471H197.072C197.072 376.471 234.164 297.799 234.56 295.364C234.68 294.703 233.816 286.411 232.532 274.7C230.936 260.312 228.692 240.775 226.772 223.903C225.62 213.739 224.6 204.56 223.904 198.068C226.616 204.104 229.652 211.592 232.88 219.164C236.708 228.104 240.8 237.164 244.916 244.1C248.444 250.028 252.008 254.407 255.464 255.859C269.48 261.739 281.24 247.723 292.1 246.367C302.972 245.011 290.756 253.16 293 258.128C294.812 262.076 320.12 258.019 338.348 247.987Z" fill="#97D3C1"/>
<path opacity="0.3" d="M244.928 244.099C241.172 253.483 236.252 265.675 232.532 274.699C230.936 260.311 228.692 240.775 226.772 223.903C228.692 222.283 230.804 220.663 232.892 219.163C236.708 228.103 240.8 237.175 244.928 244.099Z" fill="#FCFCFC"/>
<path opacity="0.3" d="M349.101 376.471H252.549C252.501 376.207 252.561 375.943 252.777 375.703C255.957 371.875 306.801 348.811 338.721 333.283L349.101 376.471Z" fill="#F7A491"/>
<path opacity="0.7" d="M340.076 233.84C336.716 220.592 330.488 202.796 325.352 190.436C308.192 184.088 283.028 176.636 276.164 175.916C267.824 175.028 236.396 184.232 223.256 191.552C223.076 189.512 223.016 188.36 223.076 188.336C223.76 188.108 265.1 171.704 277.976 172.448C286.136 172.94 313.604 182.528 323.492 186.056C324.596 186.452 325.484 186.776 326.096 187.004C326.204 187.04 326.3 187.076 326.396 187.112C326.828 187.268 327.08 187.352 327.08 187.352C327.08 187.352 327.608 188.936 328.46 191.576C331.376 200.72 338.108 222.38 340.076 233.84Z" fill="#FCFCFC"/>
<path d="M394.364 316.231C394.604 321.259 361.988 341.467 343.832 352.292C336.848 356.48 332 359.263 332 359.263C332 359.263 321.512 356.095 314.096 339.343C313.76 338.587 313.436 337.819 313.112 337.015C312.656 335.863 312.2 334.651 311.78 333.379C311.78 333.379 314.24 331.736 318.14 329.12C331.52 320.204 361.892 299.995 368.048 296.371C373.64 293.071 379.736 295.76 384.668 300.248C384.68 300.248 384.68 300.248 384.68 300.248C388.208 303.476 391.124 307.639 392.804 311.167C393.752 313.147 394.292 314.911 394.364 316.231Z" fill="#B8FFD6"/>
<path d="M343.832 352.292C336.848 356.48 332 359.264 332 359.264C332 359.264 321.512 356.095 314.096 339.343C313.76 338.587 313.436 337.819 313.112 337.015C312.656 335.863 312.2 334.651 311.78 333.379C311.78 333.379 314.24 331.736 318.14 329.12C325.436 329.564 342.392 332.684 343.832 352.292Z" fill="#50BFA5"/>
<path opacity="0.3" d="M394.365 316.231C394.701 323.203 332.001 359.263 332.001 359.263C332.001 359.263 321.513 356.095 314.097 339.343C330.501 337.399 358.089 329.539 360.105 328.615C362.757 327.415 337.497 327.895 345.189 324.055C351.177 321.055 377.013 317.167 392.817 311.179C393.753 313.147 394.293 314.911 394.365 316.231Z" fill="#F7A491"/>
<path opacity="0.7" d="M384.668 300.26C380.144 299.072 373.22 297.452 369.728 299.264C365.156 301.652 326.216 328.1 313.112 337.028C312.656 335.876 312.2 334.664 311.78 333.392C311.78 333.392 360.104 301.052 368.048 296.384C373.64 293.072 379.748 295.772 384.668 300.26Z" fill="white"/>
<path d="M336.885 350.719C336.885 350.719 330.105 359.227 326.313 359.695C322.545 360.163 317.013 355.915 317.013 355.915C317.013 355.915 308.661 362.071 305.973 362.383C305.553 362.431 305.205 362.383 304.893 362.275C303.177 361.699 302.829 359.215 302.829 359.215C302.829 359.215 297.621 361.435 295.269 361.279C292.893 361.123 291.477 358.591 291.477 358.591C291.477 358.591 287.061 360.163 284.697 360.319C282.333 360.475 280.905 357.643 280.905 357.643C280.905 357.643 272.673 360.247 273.345 357.175C273.417 356.827 274.929 354.415 276.909 351.439C280.437 346.147 285.441 339.091 286.449 338.791C288.021 338.323 296.217 339.823 296.217 339.823L316.401 334.303C316.401 334.303 317.433 334.351 319.149 334.771C321.513 335.335 325.209 336.583 329.337 339.343C332.661 341.563 334.521 344.203 335.589 346.363C336.741 348.847 336.885 350.719 336.885 350.719Z" fill="#F7A491"/>
<path opacity="0.7" d="M319.124 334.783C311.336 337.495 298.929 342.715 298.929 342.715C298.929 342.715 289.232 339.259 286.976 340.987C285.776 341.911 281.048 346.963 276.896 351.451C280.424 346.159 285.428 339.103 286.436 338.803C288.008 338.335 296.204 339.835 296.204 339.835L316.388 334.315C316.388 334.315 317.42 334.363 319.124 334.783Z" fill="white"/>
<path d="M336.885 350.72C336.885 350.72 330.105 359.227 326.313 359.695C322.545 360.163 317.013 355.916 317.013 355.916C317.013 355.916 308.661 362.072 305.973 362.384C305.553 362.432 305.205 362.383 304.893 362.275C309.801 357.979 312.105 352.688 312.969 352.4C314.001 352.052 321.465 353.444 324.741 352.58C326.745 352.052 331.989 349.255 335.577 346.375C336.741 348.847 336.885 350.72 336.885 350.72Z" fill="#F7A491"/>
<path d="M281.013 356.839C281.013 356.839 292.533 342.895 293.133 342.559" stroke="#F7A491" stroke-miterlimit="10" stroke-linecap="round" stroke-linejoin="round"/>
<path d="M291.837 357.535C291.837 357.535 301.185 344.551 301.881 344.023C302.577 343.495 307.341 343.759 307.341 343.759" stroke="#F7A491" stroke-miterlimit="10" stroke-linecap="round" stroke-linejoin="round"/>
<path d="M303.776 357.703C303.776 357.703 311.396 348.007 312.776 347.575C314.156 347.143 319.7 347.839 319.7 347.839" stroke="#F7A491" stroke-miterlimit="10" stroke-linecap="round" stroke-linejoin="round"/>
<path d="M315.165 206.587C315.021 207.595 314.829 208.495 314.589 209.239C314.253 210.235 313.833 210.967 313.365 211.267C310.425 213.103 296.013 206.059 296.013 206.059L294.393 200.203C294.405 200.131 294.933 199.603 295.809 198.835C296.841 197.887 298.377 196.603 300.105 195.271C303.969 192.367 308.841 189.379 311.637 190.207C315.273 191.299 316.089 200.659 315.165 206.587Z" fill="#EAFFF3"/>
<path opacity="0.3" d="M314.589 209.239C314.253 210.235 313.833 210.967 313.365 211.267C310.425 213.103 296.013 206.06 296.013 206.06L296.049 206.048C296.577 205.928 302.901 204.391 309.237 205.939C312.093 206.635 313.905 207.883 314.589 209.239Z" fill="#F7A491"/>
<path opacity="0.3" d="M307.401 201.716C307.821 202.916 298.281 204.86 298.281 204.86L296.049 206.048L296.013 206.06L294.393 200.204C294.405 200.132 294.933 199.604 295.809 198.836C296.073 199.1 296.889 198.992 298.389 198.344C304.473 195.74 305.985 195.536 307.077 196.496C308.157 197.48 298.389 201.392 298.389 201.392C298.389 201.392 306.969 200.528 307.401 201.716Z" fill="#F7A491"/>
<path opacity="0.7" d="M315.728 206.011C315.332 201.727 314.66 191.959 310.988 191.383C308.12 190.927 303.32 193.255 300.656 194.707C304.52 191.803 309.392 188.815 312.188 189.643C315.836 190.723 316.664 200.095 315.728 206.011Z" fill="white"/>
<path d="M320.516 242.479C320.6 242.719 319.76 242.707 318.512 242.551C315.032 242.131 308.252 240.643 308.252 240.643L303.344 249.067L294.848 223.291V223.279L289.988 208.579L296.276 207.655C296.276 207.655 297.284 209.107 298.928 211.411C300.992 214.363 304.064 218.719 307.232 223.243C313.568 232.267 320.336 241.987 320.516 242.479Z" fill="#EAFFF3"/>
<path opacity="0.6" d="M299.336 219.775C299.336 220.543 294.74 213.331 294.896 214.867C294.968 215.527 294.896 219.223 294.848 223.267L289.988 208.567L296.276 207.643C296.276 207.643 297.284 209.095 298.928 211.399C299.12 214.915 299.336 219.319 299.336 219.775Z" fill="#F7A491"/>
<path opacity="0.7" d="M320.516 242.479C320.6 242.719 319.76 242.707 318.512 242.551C317.72 241.555 317.096 240.715 316.988 240.487C316.808 240.139 311.78 231.259 307.244 223.243C313.508 232.183 320.132 241.411 320.516 242.479Z" fill="white"/>
<path d="M291.692 208.087C291.692 208.087 290.648 213.679 289.328 220.651C287.024 232.807 283.988 248.491 283.676 248.527C283.232 248.431 278.48 241.051 278.48 241.051C278.48 241.051 265.268 243.631 265.232 243.235C265.208 242.923 276.74 223.507 283.172 212.671C285.392 208.915 286.94 206.323 287.024 206.131L291.692 208.087Z" fill="#EAFFF3"/>
<path opacity="0.6" d="M291.692 208.087C291.692 208.087 290.648 213.679 289.328 220.651C288.56 216.259 287.744 211.867 287.48 211.795C287.288 211.747 285.428 212.131 283.16 212.659C285.38 208.903 286.928 206.312 287.012 206.12L291.692 208.087Z" fill="#F7A491"/>
<path d="M299.853 205.172C298.809 207.98 296.397 210.068 292.317 210.068C286.341 210.068 284.949 208.124 284.277 203.672C283.809 200.384 283.581 197.168 286.761 195.812C287.877 195.308 289.437 195.056 291.549 195.116C295.905 195.224 300.237 196.304 300.441 200.972C300.525 202.424 300.333 203.876 299.853 205.172Z" fill="#EAFFF3"/>
<path opacity="0.3" d="M299.853 205.172C298.809 207.98 296.397 210.068 292.317 210.068C286.341 210.068 284.949 208.124 284.277 203.672C283.809 200.384 283.581 197.168 286.761 195.812C286.905 197.84 288.933 199.712 289.929 202.796C290.913 205.856 296.169 206.552 299.853 205.172Z" fill="#F7A491"/>
<path d="M288.596 207.187C288.332 207.799 288.116 208.171 288.116 208.171C288.116 208.171 271.52 214.388 269.576 210.356C269.48 210.188 269.408 209.983 269.312 209.767C268.556 207.799 267.944 204.235 267.956 200.779C267.992 195.991 269.252 191.408 273.02 191.468C276.452 191.528 280.16 193.088 283.004 194.6C283.676 194.948 284.288 195.307 284.84 195.643C284.864 195.667 284.876 195.668 284.876 195.668C286.64 196.724 287.756 197.575 287.756 197.575C290.936 200.731 289.46 205.243 288.596 207.187Z" fill="#EAFFF3"/>
<path opacity="0.3" d="M288.105 208.172C288.105 208.172 271.509 214.388 269.565 210.356C269.469 210.188 269.397 209.984 269.301 209.768C271.281 208.604 274.029 207.668 277.041 207.248C285.237 206.096 288.105 208.172 288.105 208.172Z" fill="#F7A491"/>
<path opacity="0.3" d="M288.596 207.188C286.664 206.264 282.656 204.296 282.188 203.888C281.576 203.372 288.02 202.664 287.48 202.22C286.94 201.776 280.244 201.344 280.244 200.804C280.34 200.288 286.688 201.248 287.036 200.54C287.24 200.108 286.604 197.936 284.888 195.656C286.652 196.712 287.768 197.564 287.768 197.564C290.936 200.732 289.46 205.244 288.596 207.188Z" fill="#F7A491"/>
<path opacity="0.7" d="M283.004 194.611C280.328 193.831 275.252 192.715 272.216 194.275C270.08 195.391 268.712 198.043 267.944 200.791C267.992 194.455 270.752 191.443 273.008 191.479C276.452 191.527 280.172 193.087 283.004 194.611Z" fill="white"/>
<path d="M301.04 185.443C301.04 185.443 295.016 190.003 284.384 189.343C273.284 188.647 267.332 183.367 267.332 182.743C267.332 182.179 270.476 146.107 271.004 140.107C271.052 139.567 271.076 139.267 271.076 139.267L297.728 159.871L299.84 176.107L301.04 185.443Z" fill="#F7A491"/>
<path d="M299.84 176.095C284.516 175.831 274.64 161.191 271.004 140.107C271.052 139.567 271.076 139.267 271.076 139.267L297.728 159.871L299.84 176.095Z" fill="#FFA7A6"/>
<path d="M317.768 108.608H312.008V110.108C306.836 112.928 303.224 119.408 303.224 126.956C303.224 134.504 306.848 140.996 312.008 143.804V145.304H317.768C325.796 145.304 332.312 137.084 332.312 126.956C332.312 116.828 325.796 108.608 317.768 108.608Z" fill="#429D88"/>
<path d="M312.02 145.316C320.052 145.316 326.564 137.101 326.564 126.968C326.564 116.834 320.052 108.62 312.02 108.62C303.987 108.62 297.476 116.834 297.476 126.968C297.476 137.101 303.987 145.316 312.02 145.316Z" fill="#50BFA5"/>
<path d="M312.02 139.231C317.388 139.231 321.74 133.741 321.74 126.967C321.74 120.194 317.388 114.703 312.02 114.703C306.652 114.703 302.3 120.194 302.3 126.967C302.3 133.741 306.652 139.231 312.02 139.231Z" fill="#0E2E35"/>
<path d="M319.532 122.923C317.804 141.319 316.556 154.159 309.692 160.819C308.396 162.079 306.908 163.111 305.18 163.915C302.84 165.019 299.864 165.115 296.636 164.419C284.804 161.887 269.324 148.603 266.912 133.855C264.116 116.731 262.856 88.2314 285.596 83.3594C287.792 82.8674 290.204 82.6274 292.88 82.6274C297.2 82.6274 300.884 83.0954 303.992 83.9954C320.312 88.6274 321.248 104.563 319.532 122.923Z" fill="#F7A491"/>
<path opacity="0.7" d="M319.532 122.923C317.804 141.319 316.556 154.159 309.692 160.819C313.472 152.239 314.864 140.755 316.652 127.795C319.112 109.891 316.34 94.3515 304.004 83.9955C320.312 88.6275 321.248 104.563 319.532 122.923Z" fill="#FFA7A6"/>
<path d="M296.648 164.42C284.816 161.888 269.336 148.604 266.924 133.856C264.128 116.731 262.868 88.2315 285.608 83.3595C288.968 97.9635 285.98 110.636 283.58 128.036C281.144 145.832 288.728 156.824 296.648 164.42Z" fill="#F9877C"/>
<path d="M329.455 100.915C327.187 111.799 320.455 115.387 320.071 115.555C320.155 115.183 321.163 105.752 317.467 95.4075C317.467 95.4075 303.223 101.156 287.071 91.0755C287.071 91.0755 289.879 101.611 281.695 103.723C281.695 103.723 276.763 115.436 277.015 123.38C277.243 131.348 268.819 131.108 268.819 131.108C268.819 131.108 256.411 125.252 253.831 106.772C253.015 100.916 253.651 95.2275 255.559 90.2595C257.863 84.2355 262.039 79.2675 267.715 76.3515C272.131 74.0835 277.459 73.0635 283.567 73.7715C283.567 73.7715 301.831 67.4475 313.999 71.8995C326.155 76.3395 323.359 87.3435 323.359 87.3435C323.359 87.3435 326.347 88.1595 328.255 91.2075C329.575 93.2595 330.403 96.3435 329.455 100.915Z" fill="#202425"/>
<path d="M329.455 100.916C327.187 111.8 320.455 115.388 320.071 115.556C320.155 115.184 321.163 105.752 317.467 95.4075C317.467 95.4075 303.223 101.156 287.071 91.0755C287.071 91.0755 289.879 101.612 281.695 103.724C281.695 103.724 276.763 115.436 277.015 123.38C277.243 131.348 268.819 131.108 268.819 131.108C268.819 131.108 256.411 125.252 253.831 106.772C253.015 100.916 253.651 95.2275 255.559 90.2595C264.067 104.504 278.803 97.4235 278.803 97.4235L277.039 80.9475C277.039 80.9475 293.131 85.8435 304.315 88.3875C315.499 90.9315 328.699 87.9435 329.455 100.916Z" fill="#002523" fill-opacity="0.05"/>
<path d="M320.792 88.5795C320.792 88.5795 323.54 77.9955 310.784 73.2915C298.028 68.5755 280.184 76.6275 280.184 76.6275C280.184 76.6275 275.06 74.8995 267.728 76.3515C272.144 74.0835 277.472 73.0635 283.58 73.7715C283.58 73.7715 301.844 67.4475 314.012 71.8995C326.168 76.3395 323.372 87.3435 323.372 87.3435C323.372 87.3435 326.36 88.1595 328.268 91.2075C324.692 89.1195 320.792 88.5795 320.792 88.5795Z" fill="white"/>
<path d="M267.224 108.607H261.464V110.107C256.292 112.927 252.68 119.407 252.68 126.955C252.68 134.503 256.304 140.995 261.464 143.803V145.303H267.224C275.252 145.303 281.768 137.083 281.768 126.955C281.768 116.827 275.252 108.607 267.224 108.607Z" fill="#429D88"/>
<path d="M258.788 109.171H269.3C269.3 109.171 272.48 75.6195 295.52 70.6155H287.324C279.476 70.6155 272.06 74.4675 267.764 81.0315C263.936 86.8635 260.252 95.7675 258.788 109.171Z" fill="#50BFA5"/>
<path d="M299.792 152.948H295.028C293.696 152.948 292.616 151.868 292.616 150.536V149.42C292.616 148.088 293.696 147.008 295.028 147.008H299.792C301.124 147.008 302.204 148.088 302.204 149.42V150.536C302.204 151.868 301.124 152.948 299.792 152.948Z" fill="#0E2E35"/>
<path d="M271.04 144.14L275.264 148.64C276.92 150.404 279.224 151.4 281.636 151.4H294.752C295.472 151.4 296.06 150.812 296.06 150.092C296.06 149.372 295.472 148.784 294.752 148.784H281.624C279.932 148.784 278.312 148.088 277.16 146.852L272.936 142.352C272.444 141.824 271.616 141.8 271.088 142.292C270.572 142.784 270.536 143.612 271.04 144.14Z" fill="#0E2E35"/>
<path d="M261.464 145.316C269.496 145.316 276.008 137.101 276.008 126.968C276.008 116.834 269.496 108.62 261.464 108.62C253.431 108.62 246.92 116.834 246.92 126.968C246.92 137.101 253.431 145.316 261.464 145.316Z" fill="#50BFA5"/>
<path d="M261.464 139.231C266.832 139.231 271.184 133.741 271.184 126.967C271.184 120.194 266.832 114.703 261.464 114.703C256.096 114.703 251.744 120.194 251.744 126.967C251.744 133.741 256.096 139.231 261.464 139.231Z" fill="#0E2E35"/>
<path d="M240.872 222.151C240.872 222.151 217.688 287.983 206.24 303.439C194.816 318.883 182.48 306.439 178.772 295.627C175.064 284.815 176.864 270.883 188.612 243.403C190.52 238.927 192.44 234.547 194.36 230.335C204.212 208.639 214.064 191.263 223.088 188.347C225.968 187.423 228.404 187.423 230.432 188.107C242.876 192.295 240.872 222.151 240.872 222.151Z" fill="#B8FFD6"/>
<path opacity="0.7" d="M230.42 188.095C224.852 190.483 220.46 192.871 218.504 194.851C214.556 198.919 203.492 215.887 194.36 230.323C204.212 208.627 214.064 191.251 223.088 188.335C225.968 187.423 228.392 187.423 230.42 188.095Z" fill="white"/>
<path d="M261.26 197.443C261.26 197.443 259.532 201.439 256.652 207.871C245.072 233.839 209.864 307.591 199.46 310.807C193.82 312.559 188.624 310.087 184.592 305.635C181.676 302.455 179.348 298.243 177.86 293.863C176.66 290.335 175.988 286.663 175.988 283.327C175.988 270.043 192.68 241.303 202.568 228.955C209.396 220.411 222.464 202.783 230.576 192.667C234.188 188.143 236.828 185.119 237.476 185.107C239.468 185.023 241.316 185.143 243.044 185.443C250.004 186.511 254.804 190.051 257.744 193.003C260.12 195.415 261.26 197.443 261.26 197.443Z" fill="#AEF2D0"/>
<path d="M261.26 197.443C261.26 197.443 259.532 201.439 256.652 207.871C241.988 208.147 233.624 197.995 230.588 192.655C234.2 188.131 236.84 185.107 237.488 185.095C254.048 184.435 261.26 197.443 261.26 197.443Z" fill="#FCFCFC"/>
<path opacity="0.3" d="M261.26 197.443C261.26 197.443 259.532 201.439 256.652 207.871C245.072 233.839 209.864 307.591 199.46 310.807C193.82 312.559 188.624 310.087 184.592 305.635C197.744 295.567 204.404 278.899 206.924 274.603C210.308 268.843 199.808 272.911 197.768 270.535C195.884 268.315 250.784 215.179 257.756 192.991C260.12 195.415 261.26 197.443 261.26 197.443Z" fill="#FCFCFC"/>
<path opacity="0.7" d="M243.056 185.431C229.424 201.511 193.292 247.663 185.552 265.459C180.044 278.095 178.592 288.139 177.86 293.875C176.66 290.347 175.988 286.675 175.988 283.339C175.988 270.055 192.68 241.315 202.568 228.967C209.396 220.423 222.464 202.795 230.576 192.679C234.188 188.155 236.828 185.131 237.476 185.119C239.468 185.011 241.328 185.131 243.056 185.431Z" fill="#FCFCFC"/>
<path opacity="0.3" d="M261.261 197.443C259.389 197.683 257.661 197.755 256.053 197.683C245.625 197.227 240.549 190.795 238.545 187.303C237.789 185.971 237.477 185.083 237.477 185.083C238.281 185.047 239.049 185.047 239.805 185.095C248.469 185.407 254.313 189.511 257.685 192.907C260.109 195.379 261.261 197.443 261.261 197.443Z" fill="#F7A491"/>
<path d="M276.2 150.691C276.2 151.315 274.28 167.539 273.896 168.547C273.512 169.579 263.18 176.719 263.18 176.719L257.672 192.919L256.052 197.683C251.216 197.479 247.544 195.991 244.784 194.071C241.592 191.899 239.624 189.175 238.544 187.303L239.804 185.107L248.84 169.087C248.84 169.087 248.528 151.879 249.14 145.555V145.543C249.224 144.655 249.332 144.007 249.452 143.623C250.46 140.563 263.54 117.067 265.352 116.611C265.844 116.491 266.684 117.139 267.236 117.619C267.548 117.919 267.776 118.147 267.776 118.147C267.776 118.147 271.484 115.087 272.492 115.339C273.5 115.603 273.764 118.279 273.764 118.279C273.764 118.279 275.804 116.887 277.472 117.655C279.128 118.411 278.744 123.139 278.744 123.139C278.744 123.139 281.66 123.259 282.26 125.059C282.296 125.095 282.296 125.131 282.308 125.179C282.836 127.063 276.2 150.043 276.2 150.691Z" fill="#F7A491"/>
<path opacity="0.7" d="M267.236 117.619C266.708 118.195 266.228 118.759 265.976 118.999C265.4 119.563 251.264 140.023 249.128 145.543C249.212 144.655 249.32 144.007 249.44 143.623C250.448 140.563 263.528 117.067 265.34 116.611C265.832 116.479 266.672 117.127 267.236 117.619Z" fill="#F9877C"/>
<path d="M276.2 150.691C276.2 151.315 274.28 167.539 273.896 168.547C273.512 169.579 263.18 176.719 263.18 176.719L257.672 192.919L256.052 197.683C251.216 197.479 247.544 195.991 244.784 194.071C248.72 188.047 253.136 181.123 253.556 179.971C254.312 177.859 253.7 170.803 253.556 170.347C253.556 169.915 268.568 170.191 269.612 166.747C270.68 163.291 271.568 149.467 271.868 148.423C272.132 147.547 280.688 134.323 282.26 125.047C282.296 125.083 282.296 125.119 282.308 125.167C282.836 127.063 276.2 150.043 276.2 150.691Z" fill="#FB6B67" fill-opacity="0.5"/>
<path d="M266.972 120.091C266.972 120.091 260.276 133.075 257.456 138.799" stroke="#F7A491" stroke-miterlimit="10" stroke-linecap="round" stroke-linejoin="round"/>
<path d="M271.904 121.795C271.904 121.795 265.136 135.151 262.928 140.467" stroke="#F7A491" stroke-miterlimit="10" stroke-linecap="round" stroke-linejoin="round"/>
<path d="M277.124 125.419C277.124 125.419 270.392 137.455 268.388 142.483" stroke="#F7A491" stroke-miterlimit="10" stroke-linecap="round" stroke-linejoin="round"/>
<path d="M269.733 359.455H385.569C387.717 359.455 389.457 361.195 389.457 363.343V363.739C389.457 365.887 387.717 367.627 385.569 367.627H269.733C267.585 367.627 265.845 365.887 265.845 363.739V363.343C265.845 361.195 267.585 359.455 269.733 359.455Z" fill="#50BFA5"/>
<path d="M269.733 359.455H299.289C301.437 359.455 303.177 361.195 303.177 363.343V363.739C303.177 365.887 301.437 367.627 299.289 367.627H269.733C267.585 367.627 265.845 365.887 265.845 363.739V363.343C265.845 361.195 267.585 359.455 269.733 359.455Z" fill="#429D88"/>
<path d="M462.129 335.791H347.025C341.793 335.791 337.845 331.039 338.817 325.891L359.889 213.703C360.633 209.755 364.077 206.887 368.097 206.887H483.201C488.433 206.887 492.381 211.639 491.409 216.787L470.337 328.975C469.605 332.923 466.149 335.791 462.129 335.791Z" fill="#FCFCFC"/>
<path d="M498.668 216.787L477.596 328.975C476.852 332.923 473.396 335.791 469.388 335.791H354.284C349.052 335.791 345.104 331.039 346.076 325.891L348.02 315.547L356.108 272.419L367.124 213.727C367.868 209.779 371.324 206.899 375.344 206.899H490.448C491.012 206.899 491.564 206.947 492.092 207.067C492.836 207.211 493.544 207.463 494.18 207.811C497.408 209.383 499.4 212.995 498.668 216.787Z" fill="#DDDDDD"/>
<path opacity="0.3" d="M498.668 216.787L477.596 328.975C476.852 332.923 473.396 335.791 469.388 335.791H354.284C349.052 335.791 345.104 331.039 346.076 325.891L348.02 315.547C360.056 317.755 375.956 314.695 391.568 293.911C423.032 252.031 436.532 302.911 450.356 273.859C462.296 248.791 478.088 217.111 494.192 207.799C497.408 209.383 499.4 212.995 498.668 216.787Z" fill="#6DA1A4"/>
<path opacity="0.7" d="M490.46 206.887C491.024 206.887 491.576 206.935 492.104 207.055L377.984 211.147C374.732 211.267 371.912 213.499 371.072 216.655C368.276 227.203 361.796 251.527 356.108 272.407L367.124 213.715C367.868 209.767 371.324 206.887 375.344 206.887H490.46Z" fill="white"/>
<path d="M340.796 356.959H413.804C415.952 356.959 417.692 358.699 417.692 360.847V363.727C417.692 365.875 415.952 367.615 413.804 367.615H340.796C338.648 367.615 336.908 365.875 336.908 363.727V360.847C336.908 358.699 338.648 356.959 340.796 356.959Z" fill="#50BFA5"/>
<path d="M340.796 356.959H381.716C383.864 356.959 385.604 358.699 385.604 360.847V363.727C385.604 365.875 383.864 367.615 381.716 367.615H340.796C338.648 367.615 336.908 365.875 336.908 363.727V360.847C336.908 358.699 338.648 356.959 340.796 356.959Z" fill="#429D88"/>
<path d="M426.045 367.615H404.169C401.697 367.615 399.741 365.515 399.921 363.055L405.177 289.207C405.333 286.975 407.193 285.247 409.425 285.247H420.789C423.021 285.247 424.881 286.975 425.037 289.207L430.293 363.055C430.473 365.527 428.517 367.615 426.045 367.615Z" fill="#FCFCFC"/>
<path d="M431.264 367.615H409.388C406.916 367.615 404.96 365.515 405.14 363.055L410.396 289.207C410.552 286.975 412.412 285.247 414.644 285.247H426.008C428.24 285.247 430.1 286.975 430.256 289.207L435.512 363.055C435.692 365.527 433.736 367.615 431.264 367.615Z" fill="#B1BBC6"/>
<path d="M496.941 374.839V381.619C496.941 385.615 493.701 388.855 489.705 388.855H108.165C104.169 388.855 100.929 385.615 100.929 381.619V374.839C100.929 373.399 101.349 372.067 102.081 370.939C103.365 368.935 105.609 367.615 108.177 367.615H489.717C493.701 367.615 496.941 370.855 496.941 374.839Z" fill="#3C8F7C"/>
<path d="M273.429 367.615H190.857C174.297 371.503 158.181 377.275 142.149 382.915C136.377 384.955 130.605 386.959 124.833 388.867H140.421C141.561 388.471 142.689 388.075 143.829 387.679C168.237 379.087 192.405 370.387 217.533 368.383C221.541 368.059 225.549 367.915 229.569 367.915C255.477 367.915 281.445 374.155 307.125 380.431C316.833 382.795 326.553 385.243 335.565 388.879H347.421C335.217 382.147 321.513 378.763 308.325 375.535C296.805 372.703 285.165 369.883 273.429 367.615Z" fill="#50BFA5"/>
<path d="M272.684 377.755C257.42 374.239 241.472 371.479 225.656 371.479C213.764 371.479 201.92 373.039 190.556 377.059C182.072 380.059 174.224 384.283 166.652 388.867H176.768C181.796 386.131 186.908 383.695 192.236 381.811C202.952 378.031 214.208 376.519 225.656 376.519C240.884 376.519 256.472 379.195 271.556 382.663C279.956 384.595 288.38 386.779 296.84 388.855H319.928C304.208 385.831 288.524 381.415 272.684 377.755Z" fill="#50BFA5"/>
<path d="M405.153 370.975C426.753 378.139 449.505 381.763 472.245 381.763C480.489 381.763 488.733 381.259 496.929 380.299V375.211C488.745 376.195 480.501 376.711 472.245 376.711C451.605 376.711 430.965 373.651 411.225 367.603H395.745C398.865 368.791 401.985 369.931 405.153 370.975Z" fill="#50BFA5"/>
<path d="M323.048 367.615H305.78C306.872 367.939 307.964 368.251 309.056 368.587C330.644 375.043 352.064 382.591 373.868 388.867H393.404C369.752 383.083 346.532 375.019 323.048 367.615Z" fill="#50BFA5"/>
<path d="M152.493 367.615H133.653C122.793 370.411 111.957 372.643 101.061 373.495C100.977 373.939 100.929 374.383 100.929 374.851V378.559C116.997 377.359 132.669 373.303 148.221 368.851C149.649 368.443 151.065 368.023 152.493 367.615Z" fill="#50BFA5"/>
<path d="M411.117 382.255C394.617 378.091 375.753 372.547 359.721 367.615H342.812C350.636 370.099 360.009 373.015 369.921 375.979C383.049 379.903 397.137 383.923 409.881 387.151C412.269 387.751 414.597 388.327 416.865 388.867H442.365L442.401 388.519C435.021 387.835 423.741 385.447 411.117 382.255Z" fill="#50BFA5"/>
<path opacity="0.3" d="M496.941 374.839V381.619C496.941 385.615 493.701 388.855 489.705 388.855H108.165C104.169 388.855 100.929 385.615 100.929 381.619V374.839C100.929 373.399 101.349 372.067 102.081 370.939C102.441 375.043 103.917 378.703 107.241 381.211C110.853 383.923 115.677 384.295 120.201 384.247C144.753 383.959 168.165 374.179 192.477 370.771C226.257 366.019 260.361 373.651 294.225 377.731C352.377 384.763 411.789 381.319 468.717 367.603H489.705C493.701 367.615 496.941 370.855 496.941 374.839Z" fill="#50BFA5"/>
<path d="M191.529 322.603L191.049 334.267L189.705 367.615H160.173L158.337 322.603H191.529Z" fill="#50BFA5"/>
<path d="M190.209 355.231H159.669L158.937 337.159H190.941L190.209 355.231Z" fill="white"/>
<path opacity="0.3" d="M170.313 339.823C170.589 340.627 174.033 357.043 176.241 367.615H160.161L158.337 322.603H191.529L191.049 334.267C184.449 335.623 170.001 338.875 170.313 339.823Z" fill="#F7A491"/>
<path d="M194.277 322.603L193.965 329.287L193.797 332.839H156.069L155.589 322.603H194.277Z" fill="#50BFA5"/>
<path opacity="0.3" d="M193.965 329.287L193.797 332.827H156.069L155.589 322.591H162.609C165.789 326.119 169.773 329.851 170.805 329.779C171.957 329.695 185.013 329.455 193.965 329.287Z" fill="#F7A491"/>
<path d="M189.705 322.603H160.173L162.597 314.587H187.269L189.645 322.447L189.705 322.603Z" fill="#50BFA5"/>
<path opacity="0.3" d="M189.705 322.603H160.173L162.609 314.599H169.065C169.773 317.551 171.573 320.035 171.573 320.035L189.657 322.459L189.705 322.603Z" fill="#F7A491"/>
<path d="M435.884 91.7115H369.716C365.516 91.7115 362.108 95.1315 362.108 99.3195V132.86C362.108 137.06 365.504 140.468 369.716 140.468H408.776L424.064 173.66V140.468H435.884C440.084 140.468 443.492 137.072 443.492 132.86V99.3195C443.492 95.1195 440.084 91.7115 435.884 91.7115Z" fill="#50BFA5"/>
<path d="M383.756 120.296C386.752 120.296 389.18 117.867 389.18 114.872C389.18 111.876 386.752 109.448 383.756 109.448C380.76 109.448 378.332 111.876 378.332 114.872C378.332 117.867 380.76 120.296 383.756 120.296Z" fill="white"/>
<path d="M402.8 120.296C405.796 120.296 408.224 117.867 408.224 114.872C408.224 111.876 405.796 109.448 402.8 109.448C399.804 109.448 397.376 111.876 397.376 114.872C397.376 117.867 399.804 120.296 402.8 120.296Z" fill="white"/>
<path d="M421.844 120.296C424.84 120.296 427.268 117.867 427.268 114.872C427.268 111.876 424.84 109.448 421.844 109.448C418.848 109.448 416.42 111.876 416.42 114.872C416.42 117.867 418.848 120.296 421.844 120.296Z" fill="white"/>
<path d="M465.26 112.052H531.429C535.629 112.052 539.037 115.472 539.037 119.66V153.2C539.037 157.4 535.641 160.808 531.429 160.808H492.368L455.229 194L477.093 160.808H465.273C461.073 160.808 457.665 157.412 457.665 153.2V119.66C457.653 115.472 461.06 112.052 465.26 112.052Z" fill="white"/>
<path d="M520.281 151.4H478.101C476.601 151.4 475.389 150.188 475.389 148.688V125.492C475.389 123.992 476.601 122.78 478.101 122.78H520.281C521.781 122.78 522.993 123.992 522.993 125.492V148.688C522.993 150.188 521.781 151.4 520.281 151.4Z" fill="#50BFA5"/>
<path d="M520.017 127.472L499.185 137.084L478.353 127.472" stroke="white" stroke-miterlimit="10"/>
<path d="M518.48 106.172H457.064V92.1195C457.064 89.2995 459.344 87.0195 462.164 87.0195H518.48C521.3 87.0195 523.58 89.2995 523.58 92.1195V101.072C523.58 103.892 521.3 106.172 518.48 106.172Z" fill="#50BFA5"/>
<path d="M131.289 140.371C131.289 145.387 131.913 149.755 135.753 152.671C136.701 153.403 137.889 153.595 139.089 153.595H141.045C143.133 153.595 144.825 155.287 144.825 157.363V172.111C144.825 174.187 143.133 175.879 141.045 175.879H134.625C133.569 175.879 132.573 175.447 131.853 174.679C128.277 170.803 117.729 157.855 117.729 140.359C117.729 122.863 128.277 109.927 131.853 106.039C132.573 105.259 133.581 104.839 134.625 104.839H141.045C143.133 104.839 144.825 106.531 144.825 108.607V123.355C144.825 125.431 143.133 127.123 141.045 127.123H139.089C137.889 127.123 136.701 127.327 135.753 128.047C131.901 130.987 131.289 135.343 131.289 140.371Z" fill="#FCFCFC"/>
<path d="M190.976 121.351V123.103L157.58 119.491C156.728 119.395 155.996 120.067 155.996 120.919V128.491V136.063C155.996 136.915 156.74 137.575 157.58 137.491L190.976 133.879V135.631C190.976 136.903 192.512 137.539 193.424 136.639L200.564 129.499C201.128 128.935 201.128 128.035 200.564 127.471L193.424 120.331C192.524 119.443 190.976 120.079 190.976 121.351Z" fill="#3C8F7C"/>
<path d="M166.592 159.38V157.628L199.988 161.24C200.84 161.336 201.572 160.664 201.572 159.812V152.24V144.668C201.572 143.816 200.828 143.156 199.988 143.24L166.592 146.852V145.1C166.592 143.828 165.056 143.192 164.144 144.092L157.004 151.232C156.44 151.796 156.44 152.696 157.004 153.26L164.144 160.4C165.044 161.3 166.592 160.664 166.592 159.38Z" fill="#50BFA5"/>
<path d="M367.701 58.5315C366.201 56.8275 366.369 54.2355 368.073 52.7475C369.777 51.2475 372.369 51.4155 373.857 53.1195C375.357 54.8235 375.189 57.4155 373.485 58.9035C371.793 60.4035 369.201 60.2355 367.701 58.5315Z" fill="#50BFA5"/>
<path d="M341.721 65.3835C340.461 63.9555 340.605 61.7835 342.033 60.5235C343.461 59.2635 345.633 59.4076 346.893 60.8356C348.153 62.2636 348.009 64.4355 346.581 65.6955C345.153 66.9435 342.981 66.8115 341.721 65.3835Z" fill="#00A99D"/>
<path d="M337.881 87.3076C337.089 86.4076 337.173 85.0276 338.073 84.2356C338.973 83.4436 340.353 83.5276 341.145 84.4276C341.937 85.3276 341.853 86.7076 340.953 87.4996C340.053 88.2916 338.685 88.2076 337.881 87.3076Z" fill="white"/>
<path d="M89.5649 204.295C87.4169 203.587 86.2409 201.271 86.9609 199.111C87.6809 196.951 89.9849 195.787 92.1449 196.507C94.2929 197.215 95.4689 199.531 94.7489 201.691C94.0289 203.839 91.7129 205.003 89.5649 204.295Z" fill="#50BFA5"/>
<path d="M72.9328 210.703C71.1208 210.103 70.1488 208.16 70.7368 206.348C71.3368 204.536 73.2808 203.563 75.0928 204.151C76.9048 204.751 77.8768 206.695 77.2888 208.507C76.6888 210.319 74.7448 211.303 72.9328 210.703Z" fill="#00A99D"/>
<path d="M80.4572 229.555C79.3172 229.183 78.6932 227.947 79.0772 226.807C79.4492 225.667 80.6852 225.043 81.8252 225.427C82.9652 225.799 83.5892 227.035 83.2052 228.175C82.8212 229.315 81.5972 229.927 80.4572 229.555Z" fill="#FCFCFC"/>
<path d="M550.341 178.567C551.985 181.615 550.857 185.419 547.809 187.063C544.761 188.707 540.957 187.579 539.313 184.531C537.669 181.483 538.797 177.679 541.845 176.035C544.893 174.379 548.697 175.519 550.341 178.567Z" fill="#FCFCFC"/>
<path d="M553.221 212.203C553.653 213.007 553.353 214.004 552.561 214.436C551.757 214.868 550.761 214.567 550.329 213.775C549.897 212.971 550.197 211.976 550.989 211.544C551.793 211.1 552.789 211.399 553.221 212.203Z" fill="#50BFA5"/>
<path d="M528.981 175.508C529.725 176.876 529.209 178.592 527.841 179.336C526.473 180.08 524.757 179.564 524.013 178.196C523.269 176.828 523.785 175.112 525.153 174.368C526.521 173.624 528.237 174.14 528.981 175.508Z" fill="#50BFA5"/>
</svg>
