<svg width="75" height="66" viewBox="0 0 75 66" fill="none" xmlns="http://www.w3.org/2000/svg">
<path d="M72.6562 42.1863C71.3625 42.1863 70.3125 43.2363 70.3125 44.5301V60.9363H4.6875V32.8113H30.4688C31.7625 32.8113 32.8125 31.7613 32.8125 30.4676C32.8125 29.1738 31.7625 28.1238 30.4688 28.1238H4.6875V18.7488H30.4688C31.7625 18.7488 32.8125 17.6988 32.8125 16.4051C32.8125 15.1113 31.7625 14.0613 30.4688 14.0613H4.6875C2.1 14.0613 0 16.1613 0 18.7488V60.9363C0 63.5238 2.1 65.6238 4.6875 65.6238H70.3125C72.9 65.6238 75 63.5238 75 60.9363V44.5301C75 43.2363 73.95 42.1863 72.6562 42.1863Z" fill="#659E38"/>
<path d="M21.0938 42.1863H11.7188C10.425 42.1863 9.375 43.2363 9.375 44.5301C9.375 45.8238 10.425 46.8738 11.7188 46.8738H21.0938C22.3875 46.8738 23.4375 45.8238 23.4375 44.5301C23.4375 43.2363 22.3875 42.1863 21.0938 42.1863ZM73.5797 7.21757L57.1734 0.186324C56.8803 0.0633409 56.5656 0 56.2477 0C55.9298 0 55.615 0.0633409 55.3219 0.186324L38.9156 7.21757C38.4951 7.39974 38.137 7.70093 37.8854 8.08406C37.6339 8.46718 37.4999 8.91551 37.5 9.37382V18.7488C37.5 31.6441 42.2672 39.1816 55.0828 46.5644C55.4438 46.7707 55.8469 46.8738 56.25 46.8738C56.6531 46.8738 57.0562 46.7707 57.4172 46.5644C70.2328 39.2004 75 31.6629 75 18.7488V9.37382C75 8.43632 74.4422 7.58789 73.5797 7.21757ZM70.3125 18.7488C70.3125 29.5723 66.7313 35.5301 56.25 41.8113C45.7687 35.516 42.1875 29.5582 42.1875 18.7488V10.9207L56.25 4.89257L70.3125 10.9207V18.7488Z" fill="#659E38"/>
<path d="M64.7484 14.5723C63.7406 13.7754 62.2687 13.9301 61.4531 14.9379L54.0844 24.1535L51.1688 19.7941C50.4422 18.716 48.9844 18.4301 47.9203 19.1426C46.8469 19.8598 46.5516 21.3176 47.2687 22.391L51.9562 29.4223C52.3734 30.0457 53.0578 30.4301 53.8078 30.4676H53.9062C54.6141 30.4676 55.2891 30.1488 55.7391 29.5863L65.1141 17.8676C65.9203 16.8551 65.7609 15.3832 64.7484 14.5723Z" fill="#659E38"/>
</svg>
